<svg width="16" height="17" viewBox="0 0 16 17" fill="none" xmlns="http://www.w3.org/2000/svg">
<path fill-rule="evenodd" clip-rule="evenodd" d="M8.00002 15.1666C11.68 15.1666 14.6667 12.1733 14.6667 8.49996L14.6641 8.31345C14.5652 4.71957 11.6176 1.83329 8.00002 1.83329C4.32669 1.83329 1.33335 4.81996 1.33335 8.49996C1.33335 12.1733 4.32669 15.1666 8.00002 15.1666ZM5.33335 7.17996C5.53335 6.98663 5.84669 6.98663 6.04002 7.18663L8.00002 9.15329L9.96002 7.18663C10.1534 6.98663 10.4734 6.98663 10.6667 7.17996C10.8667 7.37996 10.8667 7.69329 10.6667 7.88663L8.35335 10.2133C8.26002 10.3066 8.13335 10.36 8.00002 10.36C7.86669 10.36 7.74002 10.3066 7.64669 10.2133L5.33335 7.88663C5.23335 7.79329 5.18669 7.66663 5.18669 7.53996C5.18669 7.40663 5.23335 7.27996 5.33335 7.17996Z" fill="white"/>
</svg>
