<svg width="16" height="16" viewBox="0 0 16 16" fill="none" xmlns="http://www.w3.org/2000/svg">
<path fill-rule="evenodd" clip-rule="evenodd" d="M7.99996 14.6665C11.68 14.6665 14.6666 11.6732 14.6666 7.99984L14.6641 7.81333C14.5652 4.21945 11.6176 1.33317 7.99996 1.33317C4.32663 1.33317 1.33329 4.31984 1.33329 7.99984C1.33329 11.6732 4.32663 14.6665 7.99996 14.6665ZM5.33329 6.67984C5.53329 6.4865 5.84663 6.4865 6.03996 6.68651L7.99996 8.65317L9.95996 6.68651C10.1533 6.4865 10.4733 6.4865 10.6666 6.67984C10.8666 6.87984 10.8666 7.19317 10.6666 7.3865L8.35329 9.71317C8.25996 9.8065 8.13329 9.85984 7.99996 9.85984C7.86663 9.85984 7.73996 9.8065 7.64663 9.71317L5.33329 7.38651C5.23329 7.29317 5.18663 7.16651 5.18663 7.03984C5.18663 6.90651 5.23329 6.77984 5.33329 6.67984Z" fill="#1CAED4"/>
</svg>
