<svg width="14" height="15" viewBox="0 0 14 15" fill="none" xmlns="http://www.w3.org/2000/svg">
  <path fill-rule="evenodd" clip-rule="evenodd" d="M6.99996 14.1666C10.68 14.1666 13.6666 11.1733 13.6666 7.49996L13.6641 7.31345C13.5652 3.71957 10.6176 0.833294 6.99996 0.833294C3.32663 0.833294 0.333293 3.81996 0.333294 7.49996C0.333294 11.1733 3.32663 14.1666 6.99996 14.1666ZM4.33329 6.17996C4.53329 5.98663 4.84663 5.98663 5.03996 6.18663L6.99996 8.15329L8.95996 6.18663C9.15329 5.98663 9.47329 5.98663 9.66663 6.17996C9.86663 6.37996 9.86663 6.69329 9.66663 6.88663L7.35329 9.21329C7.25996 9.30663 7.13329 9.35996 6.99996 9.35996C6.86663 9.35996 6.73996 9.30663 6.64663 9.21329L4.33329 6.88663C4.23329 6.79329 4.18663 6.66663 4.18663 6.53996C4.18663 6.40663 4.23329 6.27996 4.33329 6.17996Z" fill="#1CAED4"/>
</svg>
