<svg width="24" height="25" viewBox="0 0 24 25" fill="none" xmlns="http://www.w3.org/2000/svg">
<path fill-rule="evenodd" clip-rule="evenodd" d="M2 12.5C2 6.98 6.49 2.5 12 2.5L12.2798 2.50384C17.6706 2.65216 22 7.07356 22 12.5C22 18.01 17.52 22.5 12 22.5C6.49 22.5 2 18.01 2 12.5ZM13.98 16.5C14.27 16.2 14.27 15.73 13.97 15.44L11.02 12.5L13.97 9.56C14.27 9.27 14.27 8.79 13.98 8.5C13.68 8.2 13.21 8.2 12.92 8.5L9.43 11.97C9.29 12.11 9.21 12.3 9.21 12.5C9.21 12.7 9.29 12.89 9.43 13.03L12.92 16.5C13.06 16.65 13.25 16.72 13.44 16.72C13.64 16.72 13.83 16.65 13.98 16.5Z" fill= 'white'/>
</svg>
