<svg width="24" height="24" viewBox="0 0 24 24" fill="none" xmlns="http://www.w3.org/2000/svg">
<path fill-rule="evenodd" clip-rule="evenodd" d="M22 12C22 6.48 17.51 2 12 2L11.7202 2.00384C6.32942 2.15216 2 6.57356 2 12C2 17.51 6.48 22 12 22C17.51 22 22 17.51 22 12ZM10.02 16C9.73 15.7 9.73 15.23 10.03 14.94L12.98 12L10.03 9.06C9.73 8.77 9.73 8.29 10.02 8C10.32 7.7 10.79 7.7 11.08 8L14.57 11.47C14.71 11.61 14.79 11.8 14.79 12C14.79 12.2 14.71 12.39 14.57 12.53L11.08 16C10.94 16.15 10.75 16.22 10.56 16.22C10.36 16.22 10.17 16.15 10.02 16Z" fill="#E0E0E0"/>
</svg>
