<svg width="24" height="24" viewBox="0 0 24 24" fill="none" xmlns="http://www.w3.org/2000/svg">
<g clip-path="url(#clip0_1847_18044)">
<path fill-rule="evenodd" clip-rule="evenodd" d="M12 2C6.48 2 2 6.49 2 12L2.00384 12.2798C2.15216 17.6706 6.57356 22 12 22C17.51 22 22 17.52 22 12C22 6.49 17.51 2 12 2ZM16 13.98C15.7 14.27 15.23 14.27 14.94 13.97L12 11.02L9.06 13.97C8.77 14.27 8.29 14.27 8 13.98C7.7 13.68 7.7 13.21 8 12.92L11.47 9.43C11.61 9.29 11.8 9.21 12 9.21C12.2 9.21 12.39 9.29 12.53 9.43L16 12.92C16.15 13.06 16.22 13.25 16.22 13.44C16.22 13.64 16.15 13.83 16 13.98Z" fill="white"/>
</g>
<defs>
<clipPath id="clip0_1847_18044">
<rect width="24" height="24" fill="white"/>
</clipPath>
</defs>
</svg>
