<svg width="25" height="25" viewBox="0 0 25 25" fill="none" xmlns="http://www.w3.org/2000/svg">
<path fill-rule="evenodd" clip-rule="evenodd" d="M22.5 12.5C22.5 6.98 18.01 2.5 12.5 2.5L12.2202 2.50384C6.82942 2.65216 2.5 7.07356 2.5 12.5C2.5 18.01 6.98 22.5 12.5 22.5C18.01 22.5 22.5 18.01 22.5 12.5ZM10.52 16.5C10.23 16.2 10.23 15.73 10.53 15.44L13.48 12.5L10.53 9.56C10.23 9.27 10.23 8.79 10.52 8.5C10.82 8.2 11.29 8.2 11.58 8.5L15.07 11.97C15.21 12.11 15.29 12.3 15.29 12.5C15.29 12.7 15.21 12.89 15.07 13.03L11.58 16.5C11.44 16.65 11.25 16.72 11.06 16.72C10.86 16.72 10.67 16.65 10.52 16.5Z" fill="#1CAED4"/>
</svg>
