<svg width="12" height="12" viewBox="0 0 12 12" fill="none" xmlns="http://www.w3.org/2000/svg">
<path fill-rule="evenodd" clip-rule="evenodd" d="M6 1C3.24 1 1 3.245 1 6L1.00192 6.13988C1.07608 8.83529 3.28678 11 6 11C8.755 11 11 8.76 11 6C11 3.245 8.755 1 6 1ZM8 6.99C7.85 7.135 7.615 7.135 7.47 6.985L6 5.51L4.53 6.985C4.385 7.135 4.145 7.135 4 6.99C3.85 6.84 3.85 6.605 4 6.46L5.735 4.715C5.805 4.645 5.9 4.605 6 4.605C6.1 4.605 6.195 4.645 6.265 4.715L8 6.46C8.075 6.53 8.11 6.625 8.11 6.72C8.11 6.82 8.075 6.915 8 6.99Z" fill="#1CAED4"/>
</svg>
