<svg width="22" height="23" viewBox="0 0 22 23" fill="none" xmlns="http://www.w3.org/2000/svg">
  <path d="M21.0651 7.15002L19.0251 5.6725L18.2451 3.27249C18.0126 2.55252 17.3451 2.065 16.5876 2.065H14.0676L12.0201 0.587523C11.4126 0.137493 10.5876 0.137493 9.98013 0.587523L7.9326 2.065H5.41262C4.65511 2.065 3.98765 2.55252 3.75515 3.27249L2.97512 5.6725L0.935142 7.15002C0.320134 7.60001 0.0651193 8.37998 0.305119 9.10001L1.08515 11.5L0.305119 13.9C0.0651118 14.62 0.320134 15.4 0.935142 15.85L2.97512 17.3275L3.75515 19.7275C3.98765 20.4475 4.65511 20.935 5.41262 20.935H7.93261L9.97263 22.4125C10.2801 22.6375 10.6401 22.75 11.0001 22.75C11.3601 22.75 11.7201 22.6375 12.0201 22.4125L14.0676 20.935H16.5876C17.3451 20.935 18.0126 20.4475 18.2451 19.7275L19.0251 17.3275L21.0651 15.85C21.6801 15.4 21.9351 14.62 21.6951 13.9L20.9151 11.5L21.6951 9.10001C21.9351 8.37999 21.6801 7.60001 21.0651 7.15002ZM8.00763 6.63999C9.03513 6.63999 9.87513 7.48003 9.87513 8.50752C9.87513 9.53502 9.03513 10.375 8.00763 10.375C6.98014 10.375 6.14014 9.53502 6.14014 8.50752C6.14014 7.48003 6.98013 6.63999 8.00763 6.63999ZM8.24764 17.1025C8.03762 17.3875 7.70762 17.545 7.37011 17.545C7.14512 17.545 6.92013 17.4775 6.72512 17.335C6.24511 16.9825 6.14014 16.3 6.49262 15.8125L13.7526 5.89749C14.1051 5.41753 14.7876 5.30501 15.2751 5.66499C15.7551 6.01751 15.8601 6.69999 15.5076 7.18752L8.24764 17.1025ZM13.9926 16.36C12.9651 16.36 12.1251 15.52 12.1251 14.4925C12.1251 13.465 12.9651 12.625 13.9926 12.625C15.0201 12.625 15.8601 13.465 15.8601 14.4925C15.8601 15.52 15.0201 16.36 13.9926 16.36Z" fill="#1CAED4"/>
</svg>
