<svg width="35" height="36" viewBox="0 0 35 36" fill="none" xmlns="http://www.w3.org/2000/svg">
<g id="icon">
<path id="Combined Shape" opacity="0.3" fill-rule="evenodd" clip-rule="evenodd" d="M29.759 10.3233C30.2856 10.5574 30.625 11.0797 30.625 11.656V24.4335C30.625 24.9631 30.3379 25.4511 29.8749 25.7083L18.2082 32.1898C17.7678 32.4345 17.2322 32.4345 16.7918 32.1898L5.1251 25.7083C4.66213 25.4511 4.375 24.9631 4.375 24.4335L4.375 11.656C4.375 11.0797 4.7144 10.5574 5.24105 10.3233L16.9077 5.13814C17.2848 4.97055 17.7152 4.97055 18.0923 5.13814L29.759 10.3233Z" fill="#1CAED4"/>
<path id="Combined Shape Copy" fill-rule="evenodd" clip-rule="evenodd" d="M21.8271 6.66064L11.0834 12.6294V19.3208L14 20.7792V14.3456L25.1637 8.14355L21.8271 6.66064Z" fill="#1CAED4"/>
</g>
</svg>
