<svg width="36" height="35" viewBox="0 0 36 35" fill="none" xmlns="http://www.w3.org/2000/svg">
<path fill-rule="evenodd" clip-rule="evenodd" d="M28.3004 2.9165H10.8004C8.25352 2.9165 6.42535 4.82085 6.42535 7.2915V27.7082C6.42535 30.1788 8.25352 32.0832 10.8004 32.0832H28.3004C29.2364 32.0832 29.7587 31.5391 29.7587 30.6248V29.1667H12.2039C11.4287 29.1667 10.8004 28.5383 10.8004 27.7632V27.6535C10.8004 26.8784 11.4287 26.25 12.2039 26.25H29.7587V4.37484C29.7587 3.4606 29.2364 2.9165 28.3004 2.9165Z" fill="#1CAED4"/>
<mask id="mask0_13761_4350" style="mask-type:luminance" maskUnits="userSpaceOnUse" x="6" y="2" width="24" height="31">
<path fill-rule="evenodd" clip-rule="evenodd" d="M28.3004 2.9165H10.8004C8.25352 2.9165 6.42535 4.82085 6.42535 7.2915V27.7082C6.42535 30.1788 8.25352 32.0832 10.8004 32.0832H28.3004C29.2364 32.0832 29.7587 31.5391 29.7587 30.6248V29.1667H12.2039C11.4287 29.1667 10.8004 28.5383 10.8004 27.7632V27.6535C10.8004 26.8784 11.4287 26.25 12.2039 26.25H29.7587V4.37484C29.7587 3.4606 29.2364 2.9165 28.3004 2.9165Z" fill="white"/>
</mask>
<g mask="url(#mask0_13761_4350)">
</g>
</svg>
