<svg width="11" height="10" viewBox="0 0 11 10" fill="none" xmlns="http://www.w3.org/2000/svg">
<path fill-rule="evenodd" clip-rule="evenodd" d="M0.5 5C0.5 2.2425 2.743 0 5.5 0C8.257 0 10.5 2.2425 10.5 5C10.5 7.757 8.257 10 5.5 10C3.9365 10 2.4915 9.2885 1.5365 8.049C1.414 7.8895 1.444 7.661 1.603 7.539C1.762 7.416 1.9895 7.4465 2.1125 7.605C2.929 8.665 4.1635 9.273 5.5 9.273C7.856 9.273 9.773 7.3565 9.773 5C9.773 2.644 7.856 0.727 5.5 0.727C3.144 0.727 1.2275 2.644 1.2275 5C1.2275 5.219 1.2435 5.4365 1.276 5.6495C1.306 5.8475 1.17 6.033 0.9715 6.0635C0.772 6.0965 0.5875 5.958 0.5575 5.7595C0.5195 5.5105 0.5 5.255 0.5 5ZM4.96706 2.9187C4.96706 2.7177 5.13006 2.5547 5.33056 2.5547C5.53106 2.5547 5.69406 2.7177 5.69406 2.9187V5.1417L7.40606 6.1627C7.57856 6.2657 7.63506 6.4887 7.53206 6.6612C7.46456 6.7747 7.34356 6.8382 7.22006 6.8382C7.15656 6.8382 7.09206 6.8217 7.03406 6.7872L5.14406 5.6602C5.03456 5.5942 4.96706 5.4757 4.96706 5.3477V2.9187Z" fill="#828282"/>
</svg>
