<svg width="83" height="75" viewBox="0 0 83 75" fill="none" xmlns="http://www.w3.org/2000/svg">
  <g clip-path="url(#clip0_1743_76467)">
    <path d="M68.7815 26.7408L67.726 24.9453L68.3583 24.8654C68.3935 24.3661 68.5051 23.874 68.6897 23.4036C69.8983 20.2215 73.9777 17.7632 77.7971 17.9277C78.7205 17.9548 79.6261 18.1699 80.4487 18.5576V18.4824L81.4686 18.5294L82.4884 20.2074C82.7842 20.7765 82.95 21.3957 82.9755 22.0263C83.0009 22.657 82.8855 23.2858 82.6363 23.8736C81.4227 27.0557 77.3432 29.514 73.5239 29.3494C71.168 29.2507 69.4903 28.2308 68.7815 26.7408Z" fill="#FFB100"/>
    <path d="M72.4122 27.549C76.2316 27.7135 80.311 25.2599 81.5246 22.0778C82.7383 18.8957 80.6221 16.1789 76.8027 16.0191C72.9833 15.8593 68.9039 18.3082 67.6902 21.495C66.4766 24.6818 68.5928 27.3891 72.4122 27.549Z" fill="#FFF701"/>
    <path d="M72.4122 27.549H72.6162C68.9294 27.2998 66.91 24.6301 68.1033 21.5044C69.2965 18.3787 73.2485 15.9533 77.0066 16.0191H76.8027C72.9833 15.8593 68.9039 18.3082 67.6902 21.495C66.4766 24.6818 68.5928 27.3891 72.4122 27.549Z" fill="#FEFFCD"/>
    <path d="M73.0905 25.406C75.7829 25.5188 78.6589 23.7891 79.5105 21.547C80.3621 19.305 78.8782 17.392 76.1857 17.2792C73.4933 17.1664 70.6173 18.8914 69.7657 21.1381C68.9141 23.3848 70.3776 25.2979 73.0905 25.406Z" fill="#FEFFCD"/>
    <path d="M72.4785 25.3823C75.171 25.4951 78.047 23.7654 78.9037 21.5187C79.7603 19.272 78.2662 17.3636 75.5738 17.2508C72.8814 17.138 70.0054 18.8677 69.1538 21.1098C68.3022 23.3518 69.7861 25.2648 72.4785 25.3823Z" fill="#FFD701"/>
  </g>
  <g filter="url(#filter0_f_1743_76467)">
    <g clip-path="url(#clip1_1743_76467)">
      <path d="M41.9163 63.3116L39.3528 58.3739L40.8884 58.1542C40.974 56.7813 41.245 55.428 41.6934 54.1342C44.6284 45.3834 54.5356 38.6232 63.8112 39.0756C66.0539 39.1501 68.2531 39.7416 70.2509 40.8077V40.6009L72.7277 40.7302L75.2045 45.3447C75.9229 46.9099 76.3255 48.6125 76.3873 50.3468C76.4491 52.0812 76.1687 53.8102 75.5637 55.4268C72.6163 64.1776 62.7091 70.9378 53.4334 70.4854C47.712 70.214 43.6377 67.4091 41.9163 63.3116Z" fill="#FFB100"/>
      <path d="M50.7338 65.5345C60.0094 65.9869 69.9166 59.2397 72.864 50.4889C75.8114 41.7381 70.6721 34.2669 61.3964 33.8275C52.1208 33.388 42.2136 40.1224 39.2662 48.8861C36.3188 57.6498 41.4581 65.0951 50.7338 65.5345Z" fill="#FFF701"/>
      <path d="M50.7338 65.5345H51.2291C42.2755 64.8495 37.3714 57.5076 40.2693 48.9119C43.1671 40.3162 52.7647 33.6465 61.8918 33.8275H61.3964C52.1208 33.388 42.2136 40.1224 39.2662 48.8861C36.3188 57.6498 41.4581 65.0951 50.7338 65.5345Z" fill="#FEFFCD"/>
      <path d="M52.3808 59.6405C58.9196 59.9507 65.9041 55.194 67.9723 49.0284C70.0404 42.8628 66.4367 37.602 59.8979 37.2917C53.3591 36.9815 46.3745 41.7253 44.3064 47.9038C42.2383 54.0824 45.7925 59.3432 52.3808 59.6405Z" fill="#FEFFCD"/>
      <path d="M50.8947 59.5757C57.4335 59.8859 64.418 55.1293 66.4986 48.9507C68.5791 42.7722 64.9506 37.5243 58.4118 37.2141C51.873 36.9038 44.8884 41.6605 42.8203 47.8262C40.7522 53.9918 44.3559 59.2526 50.8947 59.5757Z" fill="#FFD701"/>
    </g>
  </g>
  <g clip-path="url(#clip2_1743_76467)">
    <path d="M7.14397 9.35082L10.5159 6.34191L11.0047 7.47214C12.1062 7.24731 13.2303 7.16867 14.3438 7.23857C21.8552 7.63642 29.2266 13.798 30.7739 21.0015C31.1756 22.7358 31.1602 24.5461 30.7287 26.3026L30.892 26.2588L31.2985 28.1841L28.1638 31.0582C27.0756 31.9398 25.8141 32.6085 24.4575 33.0227C23.1009 33.437 21.6782 33.5879 20.2777 33.4663C12.7637 33.0589 5.39232 26.8973 3.84497 19.6938C2.88453 15.2522 4.26243 11.5367 7.14397 9.35082Z" fill="#FFB100"/>
    <path d="M7.19915 16.5777C8.7465 23.7812 16.1077 29.9456 23.6217 30.3529C31.1356 30.7602 35.9789 25.2415 34.4213 18.0408C32.8638 10.8401 25.5127 4.67296 17.9886 4.26836C10.4644 3.86375 5.6416 9.37699 7.19915 16.5777Z" fill="#FFF701"/>
    <path d="M7.19915 16.5777L7.30086 16.9573C6.00332 9.95136 10.7928 4.64029 18.1742 5.04249C25.5555 5.44468 32.7919 11.3882 34.523 18.4204L34.4213 18.0408C32.8638 10.8401 25.5127 4.67296 17.9886 4.26836C10.4644 3.86375 5.6416 9.37699 7.19915 16.5777Z" fill="#FEFFCD"/>
    <path d="M12.1909 16.5931C13.2885 21.6693 18.4781 26.0152 23.7705 26.2957C29.0629 26.5761 32.4764 22.7017 31.3788 17.6256C30.2811 12.5494 25.1018 8.20074 19.7992 7.92302C14.4965 7.64529 11.0729 11.4817 12.1909 16.5931Z" fill="#FEFFCD"/>
    <path d="M11.9368 15.4406C13.0344 20.5168 18.224 24.8627 23.5291 25.1499C28.8343 25.4371 32.2325 21.5465 31.1348 16.4703C30.0372 11.3941 24.8477 7.04822 19.5552 6.76777C14.2628 6.48731 10.8493 10.3617 11.9368 15.4406Z" fill="#FFD701"/>
  </g>
  <defs>
    <filter id="filter0_f_1743_76467" x="33.9883" y="29.3537" width="46.7046" height="45.5924" filterUnits="userSpaceOnUse" color-interpolation-filters="sRGB">
      <feFlood flood-opacity="0" result="BackgroundImageFix"/>
      <feBlend mode="normal" in="SourceGraphic" in2="BackgroundImageFix" result="shape"/>
      <feGaussianBlur stdDeviation="2.22403" result="effect1_foregroundBlur_1743_76467"/>
    </filter>
    <clipPath id="clip0_1743_76467">
      <rect width="15.5682" height="13.3442" fill="white" transform="translate(67.3486 16.0098)"/>
    </clipPath>
    <clipPath id="clip1_1743_76467">
      <rect width="37.8084" height="36.6964" fill="white" transform="translate(38.4364 33.8018)"/>
    </clipPath>
    <clipPath id="clip2_1743_76467">
      <rect width="29.994" height="29.994" fill="white" transform="translate(29.7275 0.441406) rotate(75)"/>
    </clipPath>
  </defs>
</svg>
