<svg width="14" height="14" viewBox="0 0 14 14" fill="none" xmlns="http://www.w3.org/2000/svg">
<g clip-path="url(#clip0_4583_20035)">
<path fill-rule="evenodd" clip-rule="evenodd" d="M8.6858 1.38122L13.6326 10.2731C13.7415 10.5385 13.7891 10.7544 13.8027 10.9786C13.8299 11.5024 13.653 12.0116 13.306 12.4034C12.959 12.7938 12.4895 13.0243 11.9791 13.0522H2.01748C1.80654 13.039 1.59561 12.9894 1.39828 12.9126C0.411638 12.5005 -0.0646703 11.3411 0.33679 10.336L5.31762 1.37493C5.48773 1.05993 5.74629 0.78824 6.0661 0.613628C6.9915 0.0821111 8.16866 0.431334 8.6858 1.38122ZM7.59029 7.24118C7.59029 7.57643 7.32492 7.85651 6.99831 7.85651C6.67169 7.85651 6.39952 7.57643 6.39952 7.24118V5.26528C6.39952 4.92932 6.67169 4.65763 6.99831 4.65763C7.32492 4.65763 7.59029 4.92932 7.59029 5.26528V7.24118ZM6.99831 10.2452C6.67169 10.2452 6.39952 9.96512 6.39952 9.63056C6.39952 9.29461 6.67169 9.01523 6.99831 9.01523C7.32492 9.01523 7.59029 9.28832 7.59029 9.62288C7.59029 9.96512 7.32492 10.2452 6.99831 10.2452Z" fill="#FF751D"/>
</g>
<defs>
<clipPath id="clip0_4583_20035">
<rect width="14" height="14" fill="white"/>
</clipPath>
</defs>
</svg>
