<svg width="24" height="25" viewBox="0 0 24 25" fill="none" xmlns="http://www.w3.org/2000/svg">
<path fill-rule="evenodd" clip-rule="evenodd" d="M14.8901 2.86753L23.3703 18.1108C23.557 18.5658 23.6386 18.9358 23.662 19.3201C23.7086 20.2181 23.4053 21.091 22.8104 21.7627C22.2155 22.432 21.4107 22.8271 20.5358 22.875H3.4587C3.0971 22.8523 2.73549 22.7672 2.39721 22.6355C0.705831 21.9291 -0.110698 19.9415 0.57752 18.2186L9.11608 2.85675C9.4077 2.31675 9.85096 1.85099 10.3992 1.55166C11.9856 0.640483 14.0036 1.23915 14.8901 2.86753ZM13.0121 12.9132C13.0121 13.4879 12.5572 13.968 11.9973 13.968C11.4374 13.968 10.9708 13.4879 10.9708 12.9132V9.52591C10.9708 8.94999 11.4374 8.48423 11.9973 8.48423C12.5572 8.48423 13.0121 8.94999 13.0121 9.52591V12.9132ZM11.9973 18.0629C11.4374 18.0629 10.9708 17.5828 10.9708 17.0093C10.9708 16.4333 11.4374 15.9544 11.9973 15.9544C12.5572 15.9544 13.0121 16.4226 13.0121 16.9961C13.0121 17.5828 12.5572 18.0629 11.9973 18.0629Z" fill="#FF0044"/>
</svg>
