<svg width="25" height="25" viewBox="0 0 25 25" fill="none" xmlns="http://www.w3.org/2000/svg">
<path fill-rule="evenodd" clip-rule="evenodd" d="M20.7871 6.24297C21.1761 6.24297 21.5 6.56596 21.5 6.97696V7.35696C21.5 7.75795 21.1761 8.09095 20.7871 8.09095H4.21385C3.82386 8.09095 3.5 7.75795 3.5 7.35696V6.97696C3.5 6.56596 3.82386 6.24297 4.21385 6.24297H7.12957C7.72185 6.24297 8.2373 5.82197 8.37054 5.22798L8.52323 4.54598C8.76054 3.61699 9.5415 3 10.4353 3H14.5647C15.4488 3 16.2385 3.61699 16.467 4.49699L16.6304 5.22698C16.7627 5.82197 17.2781 6.24297 17.8714 6.24297H20.7871ZM19.3058 20.134C19.6102 17.2971 20.1432 10.5571 20.1432 10.4891C20.1626 10.2831 20.0955 10.0881 19.9623 9.93113C19.8193 9.78413 19.6384 9.69713 19.4391 9.69713H5.56852C5.36818 9.69713 5.17756 9.78413 5.04529 9.93113C4.91108 10.0881 4.84494 10.2831 4.85467 10.4891C4.85646 10.5016 4.87558 10.739 4.90755 11.1359C5.04958 12.8992 5.44517 17.8102 5.70079 20.134C5.88168 21.846 7.00498 22.922 8.63206 22.961C9.88763 22.99 11.1811 23 12.5038 23C13.7496 23 15.0149 22.99 16.3094 22.961C17.9929 22.932 19.1152 21.875 19.3058 20.134Z" fill="white"/>
</svg>
