<svg width="25" height="25" viewBox="0 0 25 25" fill="none" xmlns="http://www.w3.org/2000/svg">
<path d="M11.7301 7.79052V3.7815C11.7301 3.35523 12.0701 3 12.5001 3C12.8851 3 13.2113 3.29849 13.263 3.67658L13.2701 3.7815V7.79052L18.05 7.79083C20.43 7.79083 22.3853 9.73978 22.4951 12.1704L22.5 12.3861V17.4254C22.5 19.873 20.6127 21.8822 18.268 21.995L18.06 22H6.94C4.56 22 2.61409 20.0608 2.50484 17.6213L2.5 17.4047V12.3758C2.5 9.9281 4.37791 7.90921 6.72199 7.79585L6.93 7.79083H11.73V14.1932L10.13 12.541C9.83 12.2312 9.34 12.2312 9.04 12.541C8.89 12.6959 8.82 12.9024 8.82 13.1089C8.82 13.2659 8.8648 13.4295 8.95952 13.5679L9.04 13.6666L11.95 16.6819C12.09 16.8368 12.29 16.9194 12.5 16.9194C12.6667 16.9194 12.8333 16.862 12.9653 16.7533L13.04 16.6819L15.95 13.6666C16.25 13.3568 16.25 12.8508 15.95 12.541C15.6773 12.2594 15.2475 12.2338 14.9462 12.4642L14.86 12.541L13.27 14.1932V7.79083L11.7301 7.79052Z" fill="white"/>
</svg>
