<svg width="16" height="16" viewBox="0 0 16 16" fill="none" xmlns="http://www.w3.org/2000/svg">
  <path fill-rule="evenodd" clip-rule="evenodd" d="M5.81366 15.1065L13.1357 5.63783C13.5336 5.12721 13.6751 4.53687 13.5424 3.93578C13.4275 3.38934 13.0914 2.86977 12.5874 2.47561L11.3582 1.49918C10.2882 0.648159 8.96177 0.73774 8.20127 1.71417L7.37887 2.78108C7.27276 2.91456 7.29929 3.11164 7.43193 3.21914C7.43193 3.21914 9.51003 4.88534 9.55424 4.92118C9.69573 5.05555 9.80185 5.23471 9.82838 5.4497C9.87259 5.87074 9.58077 6.26489 9.14747 6.31864C8.94408 6.34552 8.74953 6.28281 8.60805 6.16635L6.42383 4.42848C6.31771 4.34875 6.15854 4.36577 6.07011 4.47327L0.879282 11.1919C0.543249 11.6129 0.42829 12.1593 0.543249 12.6879L1.20647 15.5634C1.24184 15.7157 1.37449 15.8232 1.53366 15.8232L4.45185 15.7874C4.98242 15.7784 5.47763 15.5365 5.81366 15.1065ZM9.89974 14.211H14.6581C15.1224 14.211 15.5 14.5935 15.5 15.0638C15.5 15.535 15.1224 15.9166 14.6581 15.9166H9.89974C9.43548 15.9166 9.05789 15.535 9.05789 15.0638C9.05789 14.5935 9.43548 14.211 9.89974 14.211Z" fill="#333333"/>
</svg>
