<svg width="24" height="24" viewBox="0 0 24 24" fill="none" xmlns="http://www.w3.org/2000/svg">
  <path d="M22.9677 18.1733C23.6437 16.9346 24 15.5384 24 14.119C24 9.54119 20.3494 5.80057 15.8066 5.65413C14.3409 3.12082 11.6011 1.4126 8.46984 1.4126C3.79955 1.4126 0 5.21219 0 9.88249C0 11.3019 0.35625 12.698 1.03233 13.9368L0.51825 17.025C0.480984 17.2489 0.554109 17.4771 0.714656 17.6376C0.875156 17.7981 1.10334 17.8711 1.32727 17.834L4.41558 17.3199C5.57381 17.9521 6.86972 18.3045 8.19361 18.3476C9.65934 20.8808 12.399 22.5888 15.5302 22.5888C16.9497 22.5888 18.3457 22.2326 19.5845 21.5565L22.6728 22.0706C22.8966 22.1076 23.1248 22.0347 23.2854 21.8742C23.4459 21.7136 23.5191 21.4855 23.4818 21.2616L22.9677 18.1733ZM4.54533 15.8824C4.50684 15.8824 4.46822 15.8856 4.42987 15.892L2.06695 16.2853L2.46033 13.9225C2.48738 13.76 2.45653 13.5933 2.37319 13.4512C1.74061 12.373 1.40625 11.139 1.40625 9.88249C1.40625 5.9876 4.57495 2.81885 8.46984 2.81885C12.3647 2.81885 15.5334 5.9876 15.5334 9.88244C15.5334 13.7773 12.3647 16.946 8.46984 16.946C7.21331 16.946 5.97928 16.6117 4.90116 15.9791C4.79269 15.9154 4.66978 15.8824 4.54533 15.8824ZM21.5397 18.1589L21.9331 20.5219L19.5702 20.1285C19.4078 20.1014 19.241 20.1322 19.0989 20.2156C18.0208 20.8482 16.7867 21.1826 15.5302 21.1826C13.1753 21.1826 11.0863 20.0239 9.80212 18.2471C10.3839 18.1549 10.946 18.0029 11.4823 17.7982C11.5919 17.8687 11.722 17.9102 11.862 17.9102H19.2021C19.5904 17.9102 19.9052 17.5954 19.9052 17.207C19.9052 16.8187 19.5904 16.5039 19.2021 16.5039H13.7449C14.352 16.0193 14.8912 15.4532 15.3459 14.8221H19.2021C19.5904 14.8221 19.9052 14.5073 19.9052 14.119C19.9052 13.7306 19.5904 13.4158 19.2021 13.4158H16.1665C16.4123 12.8826 16.6042 12.3197 16.7353 11.7341H19.2022C19.5905 11.7341 19.9053 11.4192 19.9053 11.0309C19.9053 10.6426 19.5905 10.3278 19.2022 10.3278H16.928C16.9357 10.1803 16.9396 10.0318 16.9396 9.88244C16.9396 8.91518 16.7762 7.98546 16.4763 7.11893C19.9254 7.58275 22.5938 10.5449 22.5938 14.119C22.5938 15.3755 22.2594 16.6095 21.6268 17.6876C21.5435 17.8297 21.5127 17.9965 21.5397 18.1589Z" fill="#828282"/>
  <path d="M7.40381 7.67517C7.40381 7.0875 7.88193 6.60937 8.46961 6.60937C9.05728 6.60937 9.5354 7.0875 9.5354 7.67517C9.5354 8.26284 9.05728 8.74096 8.46961 8.74096C8.08129 8.74096 7.76648 9.05577 7.76648 9.44408V11.516C7.76648 11.9043 8.08129 12.2191 8.46961 12.2191C8.85792 12.2191 9.17273 11.9043 9.17273 11.516V10.0453C10.1944 9.74174 10.9417 8.79407 10.9417 7.67517C10.9417 6.31209 9.83268 5.20312 8.46961 5.20312C7.10653 5.20312 5.99756 6.31209 5.99756 7.67517C5.99756 8.06348 6.31237 8.37829 6.70068 8.37829C7.089 8.37829 7.40381 8.06348 7.40381 7.67517Z" fill="#828282"/>
  <path d="M8.46934 13.1558C8.10156 13.1558 7.7492 13.4792 7.76622 13.8589C7.78328 14.2398 8.07517 14.562 8.46934 14.562C8.83712 14.562 9.18948 14.2386 9.17247 13.8589C9.15541 13.4779 8.86351 13.1558 8.46934 13.1558Z" fill="#828282"/>
</svg>
