<svg width="25" height="25" viewBox="0 0 25 25" fill="none" xmlns="http://www.w3.org/2000/svg">
<path d="M21.5 6.25H11C11 5.42275 10.3273 4.75 9.5 4.75H8C7.17275 4.75 6.5 5.42275 6.5 6.25H3.5C3.086 6.25 2.75 6.58525 2.75 7C2.75 7.41475 3.086 7.75 3.5 7.75H6.5C6.5 8.57725 7.17275 9.25 8 9.25H9.5C10.3273 9.25 11 8.57725 11 7.75H21.5C21.914 7.75 22.25 7.41475 22.25 7C22.25 6.58525 21.914 6.25 21.5 6.25ZM8 7.75V6.25H9.5L9.50075 6.997C9.50075 6.9985 9.5 6.99925 9.5 7C9.5 7.00075 9.50075 7.0015 9.50075 7.003V7.75H8Z" fill="white"/>
<path d="M21.5 12.25H17C17 11.4227 16.3273 10.75 15.5 10.75H14C13.1727 10.75 12.5 11.4227 12.5 12.25H3.5C3.086 12.25 2.75 12.5853 2.75 13C2.75 13.4148 3.086 13.75 3.5 13.75H12.5C12.5 14.5773 13.1727 15.25 14 15.25H15.5C16.3273 15.25 17 14.5773 17 13.75H21.5C21.914 13.75 22.25 13.4148 22.25 13C22.25 12.5853 21.914 12.25 21.5 12.25ZM14 13.75V12.25H15.5L15.5007 12.997C15.5007 12.9985 15.5 12.9992 15.5 13C15.5 13.0008 15.5007 13.0015 15.5007 13.003V13.75H14Z" fill="white"/>
<path d="M21.5 18.25H11C11 17.4227 10.3273 16.75 9.5 16.75H8C7.17275 16.75 6.5 17.4227 6.5 18.25H3.5C3.086 18.25 2.75 18.5853 2.75 19C2.75 19.4148 3.086 19.75 3.5 19.75H6.5C6.5 20.5773 7.17275 21.25 8 21.25H9.5C10.3273 21.25 11 20.5773 11 19.75H21.5C21.914 19.75 22.25 19.4148 22.25 19C22.25 18.5853 21.914 18.25 21.5 18.25ZM8 19.75V18.25H9.5L9.50075 18.997C9.50075 18.9985 9.5 18.9992 9.5 19C9.5 19.0008 9.50075 19.0015 9.50075 19.003V19.75H8Z" fill="white"/>
</svg>
