<svg width="16" height="17" viewBox="0 0 16 17" fill="none" xmlns="http://www.w3.org/2000/svg">
<path fill-rule="evenodd" clip-rule="evenodd" d="M10.9406 2.6794L10.9412 3.17915C12.7777 3.32308 13.9908 4.57445 13.9927 6.49349L14 12.1107C14.0026 14.203 12.6882 15.4903 10.5812 15.4937L5.43459 15.5003C3.3408 15.503 2.00988 14.185 2.00724 12.0867L2 6.53547C1.99737 4.60377 3.16768 3.35573 5.00411 3.18715L5.00346 2.6874C5.0028 2.39421 5.22001 2.17366 5.50963 2.17366C5.79924 2.17299 6.01645 2.39288 6.01711 2.68607L6.01777 3.1525L9.92759 3.14717L9.92693 2.68074C9.92627 2.38755 10.1435 2.16766 10.4331 2.16699C10.7161 2.16633 10.9399 2.38622 10.9406 2.6794ZM3.01432 6.74137L12.9797 6.72804V6.49483C12.9514 5.06221 12.2327 4.31059 10.9426 4.19864L10.9432 4.71172C10.9432 4.99824 10.7201 5.22546 10.437 5.22546C10.1474 5.22613 9.92956 4.99957 9.92956 4.71305L9.9289 4.17332L6.01908 4.17865L6.01974 4.71772C6.01974 5.0049 5.80319 5.23146 5.51357 5.23146C5.22396 5.23212 5.00609 5.00624 5.00609 4.71905L5.00543 4.20597C3.7219 4.33457 3.01168 5.08886 3.01366 6.53414L3.01432 6.74137ZM10.1599 9.76985V9.77718C10.1665 10.0837 10.4166 10.3162 10.7201 10.3096C11.0163 10.3023 11.2526 10.0484 11.246 9.74187C11.2322 9.44868 10.9946 9.20947 10.699 9.21013C10.3962 9.2168 10.1593 9.46334 10.1599 9.76985ZM10.7036 12.7617C10.4008 12.755 10.1566 12.5025 10.156 12.196C10.1494 11.8895 10.3923 11.6356 10.6951 11.6283H10.7017C11.011 11.6283 11.2618 11.8808 11.2618 12.194C11.2625 12.5071 11.0123 12.761 10.7036 12.7617ZM7.44808 9.78051C7.46124 10.087 7.71202 10.3262 8.0148 10.3129C8.311 10.2989 8.5473 10.0457 8.53414 9.7392C8.5269 9.43935 8.28336 9.20613 7.98716 9.2068C7.68438 9.22013 7.44742 9.474 7.44808 9.78051ZM8.01744 12.7317C7.71466 12.745 7.46453 12.5058 7.45071 12.1993C7.45071 11.8928 7.68701 11.6396 7.98979 11.6256C8.28599 11.6249 8.53019 11.8581 8.53677 12.1573C8.55059 12.4645 8.31364 12.7177 8.01744 12.7317ZM4.73622 9.80383C4.74938 10.1103 5.00016 10.3502 5.30294 10.3362C5.59914 10.3229 5.83544 10.069 5.82162 9.76252C5.81504 9.46267 5.5715 9.22946 5.27464 9.23012C4.97186 9.24345 4.73556 9.49732 4.73622 9.80383ZM5.30558 12.735C5.0028 12.749 4.75267 12.5091 4.73885 12.2026C4.73819 11.8961 4.97515 11.6422 5.27793 11.6289C5.57413 11.6283 5.81833 11.8615 5.82491 12.1613C5.83873 12.4678 5.60243 12.7217 5.30558 12.735Z" fill="#E0E0E0"/>
</svg>
