<svg width="43" height="43" viewBox="0 0 43 43" fill="none" xmlns="http://www.w3.org/2000/svg">
<rect width="43" height="43" rx="8" fill="#1E3F4F"/>
<path d="M20.7301 16.7905V12.7815C20.7301 12.3552 21.0701 12 21.5001 12C21.8851 12 22.2113 12.2985 22.263 12.6766L22.2701 12.7815V16.7905L27.05 16.7908C29.43 16.7908 31.3853 18.7398 31.4951 21.1704L31.5 21.3861V26.4254C31.5 28.873 29.6127 30.8822 27.268 30.995L27.06 31H15.94C13.56 31 11.6141 29.0608 11.5048 26.6213L11.5 26.4047V21.3758C11.5 18.9281 13.3779 16.9092 15.722 16.7958L15.93 16.7908H20.73V23.1932L19.13 21.541C18.83 21.2312 18.34 21.2312 18.04 21.541C17.89 21.6959 17.82 21.9024 17.82 22.1089C17.82 22.2659 17.8648 22.4295 17.9595 22.5679L18.04 22.6666L20.95 25.6819C21.09 25.8368 21.29 25.9194 21.5 25.9194C21.6667 25.9194 21.8333 25.862 21.9653 25.7533L22.04 25.6819L24.95 22.6666C25.25 22.3568 25.25 21.8508 24.95 21.541C24.6773 21.2594 24.2475 21.2338 23.9462 21.4642L23.86 21.541L22.27 23.1932V16.7908L20.7301 16.7905Z" fill="white"/>
</svg>
