<svg width="43" height="43" viewBox="0 0 43 43" fill="none" xmlns="http://www.w3.org/2000/svg">
<rect width="43" height="43" rx="8" fill="#1E3F4F"/>
<path d="M30.5 15.25H20C20 14.4227 19.3273 13.75 18.5 13.75H17C16.1727 13.75 15.5 14.4227 15.5 15.25H12.5C12.086 15.25 11.75 15.5853 11.75 16C11.75 16.4148 12.086 16.75 12.5 16.75H15.5C15.5 17.5773 16.1727 18.25 17 18.25H18.5C19.3273 18.25 20 17.5773 20 16.75H30.5C30.914 16.75 31.25 16.4148 31.25 16C31.25 15.5853 30.914 15.25 30.5 15.25ZM17 16.75V15.25H18.5L18.5008 15.997C18.5008 15.9985 18.5 15.9992 18.5 16C18.5 16.0008 18.5008 16.0015 18.5008 16.003V16.75H17Z" fill="white"/>
<path d="M30.5 21.25H26C26 20.4227 25.3273 19.75 24.5 19.75H23C22.1727 19.75 21.5 20.4227 21.5 21.25H12.5C12.086 21.25 11.75 21.5853 11.75 22C11.75 22.4148 12.086 22.75 12.5 22.75H21.5C21.5 23.5773 22.1727 24.25 23 24.25H24.5C25.3273 24.25 26 23.5773 26 22.75H30.5C30.914 22.75 31.25 22.4148 31.25 22C31.25 21.5853 30.914 21.25 30.5 21.25ZM23 22.75V21.25H24.5L24.5007 21.997C24.5007 21.9985 24.5 21.9992 24.5 22C24.5 22.0008 24.5007 22.0015 24.5007 22.003V22.75H23Z" fill="white"/>
<path d="M30.5 27.25H20C20 26.4227 19.3273 25.75 18.5 25.75H17C16.1727 25.75 15.5 26.4227 15.5 27.25H12.5C12.086 27.25 11.75 27.5853 11.75 28C11.75 28.4148 12.086 28.75 12.5 28.75H15.5C15.5 29.5773 16.1727 30.25 17 30.25H18.5C19.3273 30.25 20 29.5773 20 28.75H30.5C30.914 28.75 31.25 28.4148 31.25 28C31.25 27.5853 30.914 27.25 30.5 27.25ZM17 28.75V27.25H18.5L18.5008 27.997C18.5008 27.9985 18.5 27.9992 18.5 28C18.5 28.0008 18.5008 28.0015 18.5008 28.003V28.75H17Z" fill="white"/>
</svg>
