<svg width="16" height="16" viewBox="0 0 16 16" fill="none" xmlns="http://www.w3.org/2000/svg">
<path fill-rule="evenodd" clip-rule="evenodd" d="M8.00033 14.6666C11.6803 14.6666 14.667 11.6733 14.667 7.99996L14.6644 7.81345C14.5655 4.21957 11.618 1.33329 8.00033 1.33329C4.32699 1.33329 1.33366 4.31996 1.33366 7.99996C1.33366 11.6733 4.32699 14.6666 8.00033 14.6666ZM5.33366 6.67996C5.53366 6.48663 5.84699 6.48663 6.04033 6.68663L8.00033 8.65329L9.96033 6.68663C10.1537 6.48663 10.4737 6.48663 10.667 6.67996C10.867 6.87996 10.867 7.19329 10.667 7.38663L8.35366 9.71329C8.26033 9.80663 8.13366 9.85996 8.00033 9.85996C7.86699 9.85996 7.74033 9.80663 7.64699 9.71329L5.33366 7.38663C5.23366 7.29329 5.18699 7.16663 5.18699 7.03996C5.18699 6.90663 5.23366 6.77996 5.33366 6.67996Z" fill="#1CAED4"/>
</svg>
