<svg width="24" height="24" viewBox="0 0 24 24" fill="none" xmlns="http://www.w3.org/2000/svg">
<path d="M24.0001 5.3848V4.59863H20.6196V5.3848H21.9168V18.6142H20.6196V19.4004H24.0001V18.6142H22.7029V5.3848H24.0001Z" fill="#1CAED4"/>
<path d="M0.145858 16.2002L4.10231 7.26555C4.37815 6.64945 4.88064 6.27637 5.56188 6.27637H5.70781C6.38862 6.27637 6.87524 6.64937 7.15079 7.26555L11.1074 16.2002C11.1885 16.3786 11.2372 16.5406 11.2372 16.7029C11.2372 17.3677 10.7183 17.9028 10.0534 17.9028C9.46971 17.9028 9.08047 17.5623 8.85353 17.0433L8.0915 15.2597H3.09718L2.30261 17.1245C2.09176 17.6109 1.67028 17.9028 1.15134 17.9028C0.502495 17.9028 0 17.3839 0 16.7353C0 16.5569 0.0647788 16.3786 0.145858 16.2002ZM7.16717 13.0544L5.5942 9.3087L4.02137 13.0544H7.16717Z" fill="#1CAED4"/>
<path d="M12.4204 15.3081V15.2757C12.4204 13.3785 13.8636 12.5029 15.9229 12.5029C16.7986 12.5029 17.4311 12.6488 18.0473 12.8597V12.7137C18.0473 11.6921 17.4148 11.1247 16.1825 11.1247C15.5014 11.1247 14.9501 11.2219 14.4799 11.3679C14.334 11.4165 14.2366 11.4327 14.1229 11.4327C13.5556 11.4327 13.1016 10.9949 13.1016 10.4274C13.1016 9.98955 13.3771 9.61662 13.7662 9.47062C14.5446 9.17876 15.3879 9.0166 16.5392 9.0166C17.8849 9.0166 18.8579 9.37331 19.4742 9.98948C20.1227 10.638 20.4146 11.5948 20.4146 12.7623V16.7188C20.4146 17.3837 19.8795 17.9025 19.2146 17.9025C18.5012 17.9025 18.031 17.3999 18.031 16.881V16.8647C17.431 17.5295 16.6039 17.9673 15.4041 17.9673C13.7662 17.9674 12.4204 17.0271 12.4204 15.3081ZM18.0795 14.7406V14.3028C17.658 14.1082 17.1066 13.9785 16.5067 13.9785C15.4526 13.9785 14.8041 14.4001 14.8041 15.1784V15.2108C14.8041 15.8757 15.3554 16.2648 16.1499 16.2648C17.3012 16.2648 18.0795 15.6325 18.0795 14.7406Z" fill="#1CAED4"/>
</svg>
