<svg width="20" height="20" viewBox="0 0 20 20" fill="none" xmlns="http://www.w3.org/2000/svg">
<g clip-path="url(#clip0_1037_8923)">
<path d="M17.0717 2.92881C13.1664 -0.976054 6.83455 -0.976489 2.92881 2.92881C-0.976489 6.83412 -0.976054 13.166 2.92881 17.0717C6.83412 20.9762 13.166 20.9766 17.0717 17.0717C20.9766 13.166 20.9762 6.83455 17.0717 2.92881ZM11.3042 14.3482C11.3042 15.0686 10.7203 15.6526 9.99984 15.6526C9.27939 15.6526 8.69546 15.0686 8.69546 14.3482V9.13069C8.69546 8.41024 9.27939 7.82631 9.99984 7.82631C10.7203 7.82631 11.3042 8.41024 11.3042 9.13069V14.3482ZM9.97679 6.90107C9.22547 6.90107 8.72459 6.36889 8.74024 5.71192C8.72459 5.02321 9.22547 4.50711 9.99201 4.50711C10.759 4.50711 11.2442 5.02364 11.2603 5.71192C11.2599 6.36889 10.7594 6.90107 9.97679 6.90107Z" fill="#333333"/>
</g>
<defs>
<clipPath id="clip0_1037_8923">
<rect width="20" height="20" fill="white"/>
</clipPath>
</defs>
</svg>
