<svg width="16" height="16" viewBox="0 0 16 16" fill="none" xmlns="http://www.w3.org/2000/svg">
<path d="M13.6574 2.34305C10.5331 -0.780843 5.46764 -0.781191 2.34305 2.34305C-0.781191 5.46729 -0.780843 10.5328 2.34305 13.6574C5.46729 16.7809 10.5328 16.7813 13.6574 13.6574C16.7813 10.5328 16.7809 5.46764 13.6574 2.34305ZM9.04337 11.4786C9.04337 12.0549 8.57623 12.5221 7.99987 12.5221C7.42351 12.5221 6.95637 12.0549 6.95637 11.4786V7.30455C6.95637 6.72819 7.42351 6.26105 7.99987 6.26105C8.57623 6.26105 9.04337 6.72819 9.04337 7.30455V11.4786ZM7.98143 5.52086C7.38038 5.52086 6.97967 5.09511 6.9922 4.56953C6.97967 4.01857 7.38038 3.60569 7.99361 3.60569C8.60719 3.60569 8.99537 4.01891 9.00824 4.56953C9.00789 5.09511 8.60753 5.52086 7.98143 5.52086Z" fill="#7ED321"/>
</svg>
