<svg width="53" height="24" viewBox="0 0 53 24" fill="none" xmlns="http://www.w3.org/2000/svg">
<g clip-path="url(#clip0_1_3)">
<path d="M0.5 8C0.5 3.58172 4.08172 0 8.5 0H42.5C48.0228 0 52.5 4.47715 52.5 10C52.5 15.5228 48.0228 20 42.5 20H0.5V8Z" fill="#E02954"/>
<path d="M9.14999 6.32999H11.58C11.9933 6.32999 12.3467 6.38999 12.64 6.50999C12.9333 6.62999 13.1733 6.78999 13.36 6.98999C13.5533 7.18332 13.6933 7.40999 13.78 7.66999C13.8733 7.92999 13.92 8.19999 13.92 8.47999C13.92 8.83999 13.8567 9.15666 13.73 9.42999C13.61 9.69666 13.4433 9.91999 13.23 10.1C13.0233 10.28 12.7833 10.4167 12.51 10.51C12.2367 10.6033 11.95 10.65 11.65 10.65H10.62V13H9.14999V6.32999ZM11.5 9.42999C11.78 9.42999 12 9.34666 12.16 9.17999C12.3267 9.00666 12.41 8.78332 12.41 8.50999C12.41 8.22999 12.3267 8.00332 12.16 7.82999C11.9933 7.64999 11.77 7.55999 11.49 7.55999H10.62V9.42999H11.5ZM15.0312 6.32999H17.5113C17.8979 6.32999 18.2379 6.38666 18.5313 6.49999C18.8246 6.60666 19.0679 6.75666 19.2613 6.94999C19.4613 7.13666 19.6079 7.35666 19.7012 7.60999C19.8013 7.86332 19.8513 8.13332 19.8513 8.41999C19.8513 8.85332 19.7546 9.23332 19.5612 9.55999C19.3746 9.87999 19.1079 10.1367 18.7613 10.33L20.2413 13H18.5813L17.3412 10.55H16.5013V13H15.0312V6.32999ZM17.4312 9.33999C17.7112 9.33999 17.9312 9.25666 18.0913 9.08999C18.2513 8.92332 18.3313 8.71332 18.3313 8.45999C18.3313 8.18666 18.2513 7.96999 18.0913 7.80999C17.9312 7.64999 17.7112 7.56999 17.4312 7.56999H16.5013V9.33999H17.4312ZM24.1616 13.17C23.6682 13.17 23.2082 13.08 22.7816 12.9C22.3616 12.72 21.9949 12.4733 21.6816 12.16C21.3749 11.8467 21.1316 11.4767 20.9516 11.05C20.7782 10.6167 20.6916 10.1533 20.6916 9.65999C20.6916 9.15999 20.7782 8.69666 20.9516 8.26999C21.1316 7.84332 21.3749 7.47332 21.6816 7.15999C21.9949 6.84666 22.3616 6.59999 22.7816 6.41999C23.2082 6.23999 23.6682 6.14999 24.1616 6.14999C24.6549 6.14999 25.1116 6.23999 25.5316 6.41999C25.9582 6.59999 26.3249 6.84666 26.6316 7.15999C26.9449 7.47332 27.1882 7.84332 27.3616 8.26999C27.5416 8.69666 27.6316 9.15999 27.6316 9.65999C27.6316 10.1533 27.5416 10.6167 27.3616 11.05C27.1882 11.4767 26.9449 11.8467 26.6316 12.16C26.3249 12.4733 25.9582 12.72 25.5316 12.9C25.1116 13.08 24.6549 13.17 24.1616 13.17ZM24.1616 11.75C24.4549 11.75 24.7182 11.6933 24.9516 11.58C25.1849 11.4667 25.3816 11.3133 25.5416 11.12C25.7082 10.9267 25.8349 10.7033 25.9216 10.45C26.0082 10.1967 26.0516 9.92666 26.0516 9.63999C26.0516 9.35332 26.0082 9.08332 25.9216 8.82999C25.8349 8.57666 25.7082 8.35666 25.5416 8.16999C25.3816 7.97666 25.1849 7.82666 24.9516 7.71999C24.7182 7.60666 24.4549 7.54999 24.1616 7.54999C23.8682 7.54999 23.6016 7.60666 23.3616 7.71999C23.1282 7.82666 22.9282 7.97666 22.7616 8.16999C22.6016 8.35666 22.4782 8.57666 22.3916 8.82999C22.3049 9.08332 22.2616 9.35332 22.2616 9.63999C22.2616 9.92666 22.3049 10.1967 22.3916 10.45C22.4782 10.7033 22.6016 10.9267 22.7616 11.12C22.9282 11.3133 23.1282 11.4667 23.3616 11.58C23.6016 11.6933 23.8682 11.75 24.1616 11.75ZM28.9762 6.32999H30.4062L32.1462 9.45999L33.8462 6.32999H35.2862L35.5962 13H34.0862L33.8962 8.63999L32.5162 11.24H31.7362L30.2762 8.66999L30.1062 13H28.6662L28.9762 6.32999ZM40.094 13.17C39.6007 13.17 39.1407 13.08 38.714 12.9C38.294 12.72 37.9273 12.4733 37.614 12.16C37.3073 11.8467 37.064 11.4767 36.884 11.05C36.7107 10.6167 36.624 10.1533 36.624 9.65999C36.624 9.15999 36.7107 8.69666 36.884 8.26999C37.064 7.84332 37.3073 7.47332 37.614 7.15999C37.9273 6.84666 38.294 6.59999 38.714 6.41999C39.1407 6.23999 39.6007 6.14999 40.094 6.14999C40.5873 6.14999 41.044 6.23999 41.464 6.41999C41.8907 6.59999 42.2573 6.84666 42.564 7.15999C42.8773 7.47332 43.1207 7.84332 43.294 8.26999C43.474 8.69666 43.564 9.15999 43.564 9.65999C43.564 10.1533 43.474 10.6167 43.294 11.05C43.1207 11.4767 42.8773 11.8467 42.564 12.16C42.2573 12.4733 41.8907 12.72 41.464 12.9C41.044 13.08 40.5873 13.17 40.094 13.17ZM40.094 11.75C40.3873 11.75 40.6507 11.6933 40.884 11.58C41.1173 11.4667 41.314 11.3133 41.474 11.12C41.6407 10.9267 41.7673 10.7033 41.854 10.45C41.9407 10.1967 41.984 9.92666 41.984 9.63999C41.984 9.35332 41.9407 9.08332 41.854 8.82999C41.7673 8.57666 41.6407 8.35666 41.474 8.16999C41.314 7.97666 41.1173 7.82666 40.884 7.71999C40.6507 7.60666 40.3873 7.54999 40.094 7.54999C39.8007 7.54999 39.534 7.60666 39.294 7.71999C39.0607 7.82666 38.8607 7.97666 38.694 8.16999C38.534 8.35666 38.4107 8.57666 38.324 8.82999C38.2373 9.08332 38.194 9.35332 38.194 9.63999C38.194 9.92666 38.2373 10.1967 38.324 10.45C38.4107 10.7033 38.534 10.9267 38.694 11.12C38.8607 11.3133 39.0607 11.4667 39.294 11.58C39.534 11.6933 39.8007 11.75 40.094 11.75Z" fill="white"/>
<path d="M4.50024 24V20H0.500244C0.500244 22.2091 2.29111 24 4.50024 24Z" fill="#82252A"/>
<rect x="6" y="4" width="40" height="11" fill="#E02954"/>
</g>
<defs>
<clipPath id="clip0_1_3">
<rect width="53" height="24" fill="white"/>
</clipPath>
</defs>
</svg>
