<svg width="24" height="24" viewBox="0 0 24 24" fill="none" xmlns="http://www.w3.org/2000/svg">
  <path d="M20.4861 3.51458C15.7997 -1.17126 8.20146 -1.17179 3.51458 3.51458C-1.17179 8.20094 -1.17126 15.7992 3.51458 20.4861C8.20094 25.1714 15.7992 25.1719 20.4861 20.4861C25.1719 15.7992 25.1714 8.20146 20.4861 3.51458ZM13.5651 17.2178C13.5651 18.0824 12.8643 18.7831 11.9998 18.7831C11.1353 18.7831 10.4346 18.0824 10.4346 17.2178V10.9568C10.4346 10.0923 11.1353 9.39157 11.9998 9.39157C12.8643 9.39157 13.5651 10.0923 13.5651 10.9568V17.2178ZM11.9722 8.28129C11.0706 8.28129 10.4695 7.64267 10.4883 6.8543C10.4695 6.02785 11.0706 5.40853 11.9904 5.40853C12.9108 5.40853 13.4931 6.02837 13.5124 6.8543C13.5118 7.64267 12.9113 8.28129 11.9722 8.28129Z" fill="#FF751D"/>
</svg>
