<svg width="24" height="23" viewBox="0 0 24 23" fill="none" xmlns="http://www.w3.org/2000/svg">
  <path fill-rule="evenodd" clip-rule="evenodd" d="M14.89 2.36753L23.3703 17.6108C23.5569 18.0658 23.6386 18.4358 23.6619 18.8201C23.7086 19.7181 23.4053 20.591 22.8104 21.2627C22.2155 21.932 21.4106 22.3271 20.5358 22.375H3.45864C3.09703 22.3523 2.73543 22.2672 2.39715 22.1355C0.70577 21.4291 -0.110759 19.4415 0.577459 17.7186L9.11602 2.35675C9.40764 1.81675 9.85089 1.35099 10.3991 1.05166C11.9855 0.140483 14.0035 0.739151 14.89 2.36753ZM13.012 12.4132C13.012 12.9879 12.5571 13.468 11.9972 13.468C11.4373 13.468 10.9707 12.9879 10.9707 12.4132V9.02591C10.9707 8.44999 11.4373 7.98423 11.9972 7.98423C12.5571 7.98423 13.012 8.44999 13.012 9.02591V12.4132ZM11.9972 17.5629C11.4373 17.5629 10.9707 17.0828 10.9707 16.5093C10.9707 15.9333 11.4373 15.4544 11.9972 15.4544C12.5571 15.4544 13.012 15.9226 13.012 16.4961C13.012 17.0828 12.5571 17.5629 11.9972 17.5629Z" fill="#FF751D"/>
</svg>
