<svg width="16" height="17" viewBox="0 0 16 17" fill="none" xmlns="http://www.w3.org/2000/svg">
<g clip-path="url(#clip0_200_24207)">
<path d="M11.5 0.51551C11.438 0.51551 5.5 0.5 5.5 0.5C4.44199 0.5 3.50001 1.47051 3.50001 2.50001L2.922 2.51351C1.8645 2.51351 1 3.4705 1 4.5V14.5C1 15.5295 1.942 16.5 3.00001 16.5H10.5C11.558 16.5 12.5 15.5295 12.5 14.5H13C14.058 14.5 15 13.5295 15 12.5V4.51201L11.5 0.51551ZM10.5 15.5H3.00001C2.47501 15.5 2.00002 15.0095 2.00002 14.5V4.5C2.00002 3.75601 2.61201 3.50001 3.50001 3.50001V12.5C3.50001 13.5295 4.44199 14.5 5.5 14.5C5.5 14.5 10.921 14.4945 11.5045 14.4945C11.5045 15.1015 11.1065 15.5 10.5 15.5ZM11.5 11.0055H7.00001C6.72401 11.0055 6.50001 10.782 6.50001 10.506C6.50001 10.23 6.72401 10.0065 7.00001 10.0065H11.5C11.776 10.0065 12 10.23 12 10.506C12 10.782 11.776 11.0055 11.5 11.0055ZM11.5 8.50801H7.00001C6.72401 8.50801 6.50001 8.28449 6.50001 8.00851C6.50001 7.73252 6.72401 7.50902 7.00001 7.50902H11.5C11.776 7.50902 12 7.73252 12 8.00851C12 8.28401 11.776 8.50801 11.5 8.50801ZM12.5 4.5C11.9675 4.5 11.5 4.01952 11.5 3.50001C11.5 3.50001 11.5 2.487 11.5 1.5155V1.5145L14 4.5H12.5Z" fill="#FF751D"/>
</g>
<defs>
<clipPath id="clip0_200_24207">
<rect width="16" height="16" fill="white" transform="translate(0 0.5)"/>
</clipPath>
</defs>
</svg>
