<svg width="35" height="36" viewBox="0 0 35 36" fill="none" xmlns="http://www.w3.org/2000/svg">
<g id="icon">
<path id="Stroke 1" d="M26.715 8.79521C25.7943 7.87453 24.3018 7.87396 23.3804 8.79393L7.90773 24.2428C7.24914 24.9004 7.24873 25.9675 7.90681 26.6256L8.88464 27.6034C9.54272 28.2615 10.6098 28.2611 11.2674 27.6025L26.7163 12.1298C27.6362 11.2084 27.6357 9.71589 26.715 8.79521Z" fill="#1CAED4"/>
<path id="Combined Shape" opacity="0.3" fill-rule="evenodd" clip-rule="evenodd" d="M10.1064 14.875C12.4643 14.875 14.375 12.9649 14.375 10.6042C14.375 8.24355 12.4643 6.33337 10.1064 6.33337C7.74841 6.33337 5.83337 8.24355 5.83337 10.6042C5.83337 12.9649 7.74841 14.875 10.1064 14.875ZM24.898 29.6667C27.256 29.6667 29.1667 27.7565 29.1667 25.3958C29.1667 23.0308 27.256 21.125 24.898 21.125C22.54 21.125 20.625 23.0308 20.625 25.3958C20.625 27.7565 22.54 29.6667 24.898 29.6667Z" fill="#1CAED4"/>
</g>
</svg>
