<svg width="14" height="14" viewBox="0 0 14 14" fill="none" xmlns="http://www.w3.org/2000/svg">
<path opacity="0.3" fill-rule="evenodd" clip-rule="evenodd" d="M11.9036 3.63772C12.1142 3.73134 12.25 3.94025 12.25 4.17077V9.28178C12.25 9.49363 12.1351 9.68882 11.95 9.79171L7.28329 12.3843C7.10711 12.4822 6.89289 12.4822 6.71671 12.3843L2.05004 9.79171C1.86485 9.68882 1.75 9.49363 1.75 9.28178L1.75 4.17077C1.75 3.94025 1.88576 3.73134 2.09642 3.63772L6.76309 1.56364C6.91392 1.49661 7.08608 1.49661 7.23691 1.56364L11.9036 3.63772Z" fill="#1CAED4"/>
<path fill-rule="evenodd" clip-rule="evenodd" d="M8.7309 2.17261L4.4334 4.56011V7.23668L5.60006 7.82001V5.24658L10.0655 2.76577L8.7309 2.17261Z" fill="#1CAED4"/>
</svg>
