<svg width="22" height="23" viewBox="0 0 22 23" fill="none" xmlns="http://www.w3.org/2000/svg">
<path d="M21.065 7.15002L19.025 5.6725L18.245 3.27249C18.0125 2.55252 17.345 2.065 16.5875 2.065H14.0675L12.02 0.587523C11.4125 0.137493 10.5875 0.137493 9.98001 0.587523L7.93248 2.065H5.4125C4.65499 2.065 3.98753 2.55252 3.75503 3.27249L2.975 5.6725L0.93502 7.15002C0.320012 7.60001 0.0649973 8.37998 0.304997 9.10001L1.08503 11.5L0.304997 13.9C0.0649897 14.62 0.320012 15.4 0.93502 15.85L2.975 17.3275L3.75503 19.7275C3.98753 20.4475 4.65499 20.935 5.4125 20.935H7.93249L9.9725 22.4125C10.28 22.6375 10.64 22.75 11 22.75C11.36 22.75 11.72 22.6375 12.02 22.4125L14.0675 20.935H16.5875C17.345 20.935 18.0125 20.4475 18.245 19.7275L19.025 17.3275L21.065 15.85C21.68 15.4 21.935 14.62 21.695 13.9L20.915 11.5L21.695 9.10001C21.935 8.37999 21.68 7.60001 21.065 7.15002ZM8.00751 6.63999C9.03501 6.63999 9.875 7.48003 9.875 8.50752C9.875 9.53502 9.035 10.375 8.00751 10.375C6.98002 10.375 6.14002 9.53502 6.14002 8.50752C6.14002 7.48003 6.98001 6.63999 8.00751 6.63999ZM8.24752 17.1025C8.0375 17.3875 7.7075 17.545 7.36999 17.545C7.145 17.545 6.92 17.4775 6.725 17.335C6.24499 16.9825 6.14002 16.3 6.4925 15.8125L13.7525 5.89749C14.105 5.41753 14.7875 5.30501 15.275 5.66499C15.755 6.01751 15.86 6.69999 15.5075 7.18752L8.24752 17.1025ZM13.9925 16.36C12.965 16.36 12.125 15.52 12.125 14.4925C12.125 13.465 12.965 12.625 13.9925 12.625C15.02 12.625 15.86 13.465 15.86 14.4925C15.86 15.52 15.02 16.36 13.9925 16.36Z" fill="#1CAED4"/>
</svg>
