<svg width="16" height="16" viewBox="0 0 16 16" fill="none" xmlns="http://www.w3.org/2000/svg">
<path d="M14.71 5.43339L13.35 4.44837L12.8299 2.84837C12.6749 2.36839 12.23 2.04337 11.725 2.04337H10.045L8.67995 1.05839C8.27495 0.758369 7.72497 0.758369 7.31997 1.05839L5.95495 2.04337H4.27496C3.76995 2.04337 3.32498 2.36838 3.16998 2.84837L2.64996 4.44837L1.28997 5.43339C0.879967 5.73338 0.709957 6.25336 0.869957 6.73338L1.38998 8.33338L0.869957 9.93339C0.709952 10.4134 0.879967 10.9334 1.28997 11.2334L2.64996 12.2184L3.16998 13.8184C3.32498 14.2984 3.76995 14.6234 4.27496 14.6234H5.95495L7.31496 15.6084C7.51995 15.7584 7.75997 15.8334 7.99996 15.8334C8.23995 15.8334 8.47997 15.7584 8.67996 15.6084L10.045 14.6234H11.725C12.23 14.6234 12.675 14.2984 12.83 13.8184L13.35 12.2184L14.71 11.2334C15.12 10.9334 15.29 10.4134 15.13 9.93339L14.6099 8.33338L15.13 6.73338C15.29 6.25337 15.12 5.73338 14.71 5.43339ZM6.00497 5.09336C6.68997 5.09336 7.24996 5.65339 7.24996 6.33839C7.24996 7.02338 6.68996 7.58338 6.00497 7.58338C5.31997 7.58338 4.75997 7.02338 4.75997 6.33839C4.75997 5.65339 5.31997 5.09336 6.00497 5.09336ZM6.16497 12.0684C6.02496 12.2584 5.80496 12.3634 5.57995 12.3634C5.42996 12.3634 5.27996 12.3184 5.14996 12.2234C4.82995 11.9884 4.75997 11.5334 4.99496 11.2084L9.83495 4.59837C10.07 4.27839 10.525 4.20338 10.85 4.44337C11.17 4.67838 11.24 5.13337 11.005 5.45838L6.16497 12.0684ZM9.99496 11.5734C9.30996 11.5734 8.74996 11.0134 8.74996 10.3284C8.74996 9.64338 9.30996 9.08338 9.99496 9.08338C10.68 9.08338 11.24 9.64338 11.24 10.3284C11.24 11.0134 10.68 11.5734 9.99496 11.5734Z" fill="#FF751D"/>
</svg>
