<svg width="26" height="24" viewBox="0 0 26 24" fill="none" xmlns="http://www.w3.org/2000/svg">
<path opacity="0.4" fill-rule="evenodd" clip-rule="evenodd" d="M16.6756 2H7.33333C3.92889 2 2 3.92889 2 7.33333V16.6667C2 20.0711 3.92889 22 7.33333 22H16.6756C17.1015 22 17.5042 21.9698 17.8828 21.9103C16.7355 20.9948 16 19.5844 16 18C16 15.2401 18.24 13 21 13C21.3425 13 21.677 13.0344 22 13.0999V7.33333C22 3.92889 20.08 2 16.6756 2ZM16 11.9947C16 11.4492 15.5188 11 14.9229 11H6.06563C5.48125 11 5 11.4492 5 11.9947C5 12.5508 5.48125 13 6.06563 13H14.9229C15.5188 13 16 12.5508 16 11.9947ZM18.0098 6C18.5576 6 19 6.4492 19 6.99465C19 7.5508 18.5576 8 18.0098 8L5.97968 8C5.44244 8 5 7.5508 5 6.99465C5 6.4492 5.44244 6 5.97968 6L18.0098 6ZM10 17.0053C10 16.4492 9.61957 16 9.14855 16H5.84239C5.38043 16 5 16.4492 5 16.9947C5 17.5508 5.38043 18 5.84239 18H9.14855C9.61957 18 10 17.5508 10 17.0053Z" fill="#BDBDBD"/>
<path fill-rule="evenodd" clip-rule="evenodd" d="M21 22.1667C18.7 22.1667 16.8333 20.3042 16.8333 18C16.8333 15.7 18.7 13.8334 21 13.8334C23.3042 13.8334 25.1667 15.7 25.1667 18C25.1667 20.3042 23.3042 22.1667 21 22.1667ZM22.3292 19.5459C22.3792 19.575 22.4333 19.5917 22.4917 19.5917C22.5958 19.5917 22.7 19.5375 22.7583 19.4375C22.8458 19.2917 22.8 19.1 22.65 19.0084L21.1667 18.125V16.2C21.1667 16.025 21.025 15.8875 20.8542 15.8875C20.6833 15.8875 20.5417 16.025 20.5417 16.2V18.3042C20.5417 18.4125 20.6 18.5125 20.6958 18.5709L22.3292 19.5459Z" fill="#BDBDBD"/>
</svg>
