<svg width="36" height="35" viewBox="0 0 36 35" fill="none" xmlns="http://www.w3.org/2000/svg">
<rect opacity="0.3" x="6.42535" y="5.8335" width="11.6667" height="23.3333" fill="#1CAED4"/>
<path fill-rule="evenodd" clip-rule="evenodd" d="M26.842 8.75016H22.467C22.467 8.75016 21.0087 8.49995 21.0087 7.29183C21.0087 6.08371 22.467 5.8335 22.467 5.8335H29.7587V13.1252C29.7587 13.1252 29.7587 14.5835 28.3003 14.5835C26.842 14.5835 26.842 13.1252 26.842 13.1252V8.75016ZM26.842 21.8753V26.2503H22.467C22.467 26.2503 21.0087 26.2503 21.0087 27.7086C21.0087 29.167 22.467 29.167 22.467 29.167H29.7587V21.8753C29.7587 21.8753 29.5085 20.417 28.3003 20.417C27.0922 20.417 26.842 21.8753 26.842 21.8753ZM13.717 26.2503H9.34202V21.8753C9.34202 21.8753 9.34202 20.417 7.88369 20.417C6.42535 20.417 6.42535 21.8753 6.42535 21.8753V29.167H13.717C13.717 29.167 15.1754 28.9168 15.1754 27.7086C15.1754 26.5005 13.717 26.2503 13.717 26.2503ZM9.34202 13.1252V8.75016H13.717C13.717 8.75016 15.1754 8.75016 15.1754 7.29183C15.1754 5.8335 13.717 5.8335 13.717 5.8335H6.42535V13.1252C6.42535 13.1252 6.67556 14.5835 7.88369 14.5835C9.09181 14.5835 9.34202 13.1252 9.34202 13.1252Z" fill="#1CAED4"/>
</svg>
