<svg width="17" height="16" viewBox="0 0 17 16" fill="none" xmlns="http://www.w3.org/2000/svg">
<path opacity="0.3" fill-rule="evenodd" clip-rule="evenodd" d="M8.92311 14.6667C12.605 14.6667 15.5898 11.6819 15.5898 8.00004C15.5898 4.31814 12.605 1.33337 8.92311 1.33337C5.24121 1.33337 2.25644 4.31814 2.25644 8.00004C2.25644 11.6819 5.24121 14.6667 8.92311 14.6667Z" fill="#1CAED4"/>
<path fill-rule="evenodd" clip-rule="evenodd" d="M7.98375 8.806V9.912H8.82375C10.5178 9.912 11.8478 8.61 11.8478 6.93C11.8478 5.25 10.5178 3.948 8.82375 3.948C7.12975 3.948 5.81375 5.25 5.81375 6.93H7.00375C7.00375 5.866 7.74575 5.054 8.82375 5.054C9.88775 5.054 10.6578 5.866 10.6578 6.93C10.6578 7.994 9.88775 8.806 8.82375 8.806H7.98375ZM8.9231 10.6667C8.55491 10.6667 8.25643 10.9651 8.25643 11.3333C8.25643 11.7015 8.55491 12 8.9231 12C9.29129 12 9.58976 11.7015 9.58976 11.3333C9.58976 10.9651 9.29129 10.6667 8.9231 10.6667Z" fill="#1CAED4"/>
</svg>
