<svg width="61" height="60" viewBox="0 0 61 60" fill="none" xmlns="http://www.w3.org/2000/svg">
  <g clip-path="url(#clip0_514_29382)">
    <path d="M59.7265 47.6245L35.1155 6.80898C34.1459 5.20106 32.3771 4.20215 30.4994 4.20215C28.6217 4.20215 26.853 5.20105 25.8833 6.8091L1.27241 47.6245C0.270345 49.2864 0.240696 51.3686 1.19495 53.0584C2.14945 54.7483 3.94781 55.798 5.88843 55.798H55.1105C57.0511 55.798 58.8496 54.7483 59.8041 53.0583C60.7583 51.3684 60.7287 49.2862 59.7265 47.6245ZM56.4026 51.1375C56.1398 51.6026 55.6447 51.8917 55.1105 51.8917H5.88843C5.35417 51.8917 4.85906 51.6027 4.59644 51.1376C4.3337 50.6724 4.34191 50.0991 4.61765 49.6417L29.2288 8.82625C29.4957 8.38363 29.9826 8.10859 30.4996 8.10859C31.0164 8.10859 31.5033 8.38363 31.7702 8.82625L56.3811 49.6417C56.6571 50.0992 56.6653 50.6724 56.4026 51.1375Z" fill="#FF0044"/>
    <path d="M30.5182 20.2744C29.0322 20.2744 27.8726 21.0718 27.8726 22.4853C27.8726 26.798 28.3799 32.9954 28.3799 37.3082C28.38 38.4317 29.3586 38.9028 30.5183 38.9028C31.3881 38.9028 32.6203 38.4317 32.6203 37.3082C32.6203 32.9955 33.1276 26.7981 33.1276 22.4853C33.1276 21.0719 31.9317 20.2744 30.5182 20.2744Z" fill="#FF0044"/>
    <path d="M30.5549 41.4033C28.9603 41.4033 27.7642 42.6718 27.7642 44.194C27.7642 45.68 28.9602 46.9847 30.5549 46.9847C32.0408 46.9847 33.3094 45.68 33.3094 44.194C33.3094 42.6718 32.0407 41.4033 30.5549 41.4033Z" fill="#FF0044"/>
  </g>
  <defs>
    <clipPath id="clip0_514_29382">
      <rect width="60" height="60" fill="white" transform="translate(0.5)"/>
    </clipPath>
  </defs>
</svg>
