<svg width="24" height="24" viewBox="0 0 24 24" fill="none" xmlns="http://www.w3.org/2000/svg">
<path d="M20.764 14.118C20.764 16.3569 19.8922 18.4618 18.309 20.045C16.7258 21.6281 14.6209 22.5 12.382 22.5C10.1431 22.5 8.0382 21.6281 6.45504 20.045C4.87191 18.4618 4 16.3569 4 14.118C4 11.879 4.87187 9.77416 6.45504 8.191C7.78046 6.86561 9.47163 6.03913 11.3009 5.80502L10.1298 4.63389C9.64163 4.14573 9.64163 3.35429 10.1298 2.86612C10.618 2.37796 11.4094 2.37796 11.8976 2.86612L15.1336 6.10213C15.6217 6.5903 15.6217 7.38174 15.1336 7.8699L11.8976 11.1059C11.6535 11.35 11.3336 11.472 11.0137 11.472C10.6938 11.472 10.3739 11.35 10.1298 11.1059C9.64167 10.6178 9.64167 9.82631 10.1298 9.33814L11.0883 8.37967C8.46527 8.97072 6.50004 11.319 6.50004 14.118C6.5 17.3613 9.13866 20 12.382 20C15.6254 20 18.264 17.3613 18.264 14.118C18.264 13.4276 18.8237 12.868 19.514 12.868C20.2044 12.868 20.764 13.4276 20.764 14.118Z" fill="#1CAED4"/>
</svg>
