<svg width="12" height="11" viewBox="0 0 12 11" fill="none" xmlns="http://www.w3.org/2000/svg">
<path fill-rule="evenodd" clip-rule="evenodd" d="M3.68571 4.22586C3.89282 4.22586 4.06071 4.39375 4.06071 4.60086V8.03093C4.06071 8.23803 3.89282 8.40593 3.68571 8.40593C3.47861 8.40593 3.31071 8.23803 3.31071 8.03093V4.60086C3.31071 4.39375 3.47861 4.22586 3.68571 4.22586Z" fill="#1CAED4"/>
<path fill-rule="evenodd" clip-rule="evenodd" d="M6.01904 2.58456C6.22615 2.58456 6.39404 2.75246 6.39404 2.95956V8.03092C6.39404 8.23803 6.22615 8.40592 6.01904 8.40592C5.81194 8.40592 5.64404 8.23803 5.64404 8.03092V2.95956C5.64404 2.75246 5.81194 2.58456 6.01904 2.58456Z" fill="#1CAED4"/>
<path fill-rule="evenodd" clip-rule="evenodd" d="M8.31429 6.03842C8.52139 6.03842 8.68929 6.20631 8.68929 6.41342V8.03093C8.68929 8.23804 8.52139 8.40593 8.31429 8.40593C8.10718 8.40593 7.93929 8.23804 7.93929 8.03093V6.41342C7.93929 6.20631 8.10718 6.03842 8.31429 6.03842Z" fill="#1CAED4"/>
<path fill-rule="evenodd" clip-rule="evenodd" d="M1.44177 1.02688C1.98009 0.449418 2.74762 0.125 3.65714 0.125H8.34286C9.25452 0.125 10.0223 0.449267 10.5602 1.02706C11.0953 1.60182 11.375 2.39692 11.375 3.29258V7.70742C11.375 8.60308 11.0953 9.39818 10.5602 9.97294C10.0223 10.5507 9.25452 10.875 8.34286 10.875H3.65714C2.74548 10.875 1.97775 10.5507 1.43982 9.97294C0.904713 9.39818 0.625 8.60308 0.625 7.70742V3.29258C0.625 2.39646 0.906177 1.60143 1.44177 1.02688ZM1.99037 1.53829C1.60573 1.95091 1.375 2.55216 1.375 3.29258V7.70742C1.375 8.4483 1.60481 9.04949 1.98875 9.46188C2.36987 9.87125 2.93071 10.125 3.65714 10.125H8.34286C9.06929 10.125 9.63013 9.87125 10.0113 9.46188C10.3952 9.04949 10.625 8.4483 10.625 7.70742V3.29258C10.625 2.5517 10.3952 1.95051 10.0113 1.53812C9.63013 1.12875 9.06929 0.875 8.34286 0.875H3.65714C2.93333 0.875 2.37229 1.1286 1.99037 1.53829Z" fill="#1CAED4"/>
</svg>
