<svg width="12" height="13" viewBox="0 0 12 13" fill="none" xmlns="http://www.w3.org/2000/svg">
<path fill-rule="evenodd" clip-rule="evenodd" d="M5.99989 9.50022L3.9577 10.5739C3.71328 10.7024 3.41097 10.6084 3.28247 10.364C3.2313 10.2666 3.21364 10.1552 3.23223 10.0468L3.62225 7.77276L1.97009 6.1623C1.77234 5.96955 1.7683 5.65299 1.96105 5.45525C2.0378 5.37651 2.13837 5.32526 2.24719 5.30945L4.53043 4.97768L5.55153 2.90871C5.67374 2.66108 5.97355 2.55942 6.22118 2.68163C6.31978 2.73029 6.3996 2.81011 6.44826 2.90871L7.46936 4.97768L9.7526 5.30945C10.0259 5.34916 10.2152 5.60288 10.1755 5.87615C10.1597 5.98497 10.1084 6.08554 10.0297 6.1623L8.37754 7.77276L8.76756 10.0468C8.81424 10.3189 8.63145 10.5774 8.35928 10.6241C8.2509 10.6427 8.13941 10.625 8.04208 10.5739L5.99989 9.50022Z" fill="#FF751D"/>
</svg>
