<svg width="16" height="16" viewBox="0 0 16 16" fill="none" xmlns="http://www.w3.org/2000/svg">
<path fill-rule="evenodd" clip-rule="evenodd" d="M8 0.5C12.1355 0.5 15.5 3.8645 15.5 8C15.5 12.1355 12.1355 15.5 8 15.5C3.8645 15.5 0.5 12.1355 0.5 8C0.5 3.8645 3.8645 0.5 8 0.5ZM8 1.625C4.48475 1.625 1.625 4.48475 1.625 8C1.625 11.5153 4.48475 14.375 8 14.375C11.5153 14.375 14.375 11.5153 14.375 8C14.375 4.48475 11.5153 1.625 8 1.625ZM7.7459 4.32155C8.05715 4.32155 8.3084 4.57355 8.3084 4.88405V8.20055L10.8622 9.72305C11.1284 9.8828 11.2161 10.2278 11.0571 10.4948C10.9514 10.6711 10.7647 10.7693 10.5734 10.7693C10.4752 10.7693 10.3762 10.7438 10.2854 10.6905L7.4579 9.0038C7.2884 8.9018 7.1834 8.71805 7.1834 8.52005V4.88405C7.1834 4.57355 7.4354 4.32155 7.7459 4.32155Z" fill="#828282"/>
</svg>
