<svg width="12" height="12" viewBox="0 0 12 12" fill="none" xmlns="http://www.w3.org/2000/svg">
<path opacity="0.3" fill-rule="evenodd" clip-rule="evenodd" d="M6 11C3.51472 11 1.5 8.98528 1.5 6.5C1.5 4.01472 3.51472 2 6 2C8.48528 2 10.5 4.01472 10.5 6.5C10.5 8.98528 8.48528 11 6 11Z" fill="#1E3F4F"/>
<path fill-rule="evenodd" clip-rule="evenodd" d="M5.73058 4.00213C5.74152 3.85986 5.86016 3.75 6.00285 3.75C6.14314 3.75 6.2606 3.85631 6.27456 3.9959L6.49997 6.25L8.11665 7.17381C8.19909 7.22093 8.24997 7.3086 8.24997 7.40356C8.24997 7.57804 8.08407 7.70475 7.91574 7.65885L5.89863 7.10873C5.66725 7.04562 5.51327 6.82712 5.53167 6.588L5.73058 4.00213Z" fill="#1E3F4F"/>
</svg>
