<svg width="35" height="36" viewBox="0 0 35 36" fill="none" xmlns="http://www.w3.org/2000/svg">
<g id="icon">
<path id="Combined Shape Copy" opacity="0.3" fill-rule="evenodd" clip-rule="evenodd" d="M8.94834 16.6669L3.35669 22.2585C3.02783 22.5874 3.02783 23.1206 3.35669 23.4495L5.90641 25.9992C7.32199 25.0614 9.24799 25.216 10.4952 26.4632C11.7424 27.7104 11.8971 29.6364 10.9592 31.052L13.5089 33.6017C13.8378 33.9306 14.371 33.9306 14.6999 33.6017L20.2916 28.01L17.7934 25.5119C17.4646 25.183 17.4646 24.6499 17.7934 24.321L18.6649 23.4495C18.9938 23.1206 19.527 23.1206 19.8558 23.4495L22.354 25.9476L33.1017 15.1999C33.4306 14.871 33.4306 14.3378 33.1017 14.009L30.552 11.4593C29.1364 12.3972 27.2104 12.2425 25.9632 10.9953C24.716 9.74805 24.5613 7.82201 25.4992 6.40643L22.9494 3.85671C22.6206 3.52785 22.0874 3.52785 21.7585 3.85671L11.0107 14.6045L13.5089 17.1027C13.8378 17.4316 13.8378 17.9648 13.5089 18.2936L12.6374 19.1651C12.3086 19.494 11.7754 19.494 11.4465 19.1651L8.94834 16.6669ZM13.6686 21.3871C13.3398 21.0582 13.3398 20.5251 13.6686 20.1962L14.5401 19.3247C14.869 18.9959 15.4022 18.9959 15.731 19.3247L17.6337 21.2274C17.9626 21.5563 17.9626 22.0894 17.6337 22.4183L16.7622 23.2898C16.4334 23.6186 15.9002 23.6186 15.5713 23.2898L13.6686 21.3871Z" fill="#1CAED4"/>
</g>
</svg>
