<svg width="16" height="15" viewBox="0 0 16 15" fill="none" xmlns="http://www.w3.org/2000/svg">
<path fill-rule="evenodd" clip-rule="evenodd" d="M11.4815 0.25C13.9617 0.25 15.9792 2.2675 15.9792 4.7485V10.1313C15.9792 12.6115 13.9617 14.6298 11.4815 14.6298H4.9985C2.51825 14.6298 0.5 12.6115 0.5 10.1313V4.7485C0.5 2.2675 2.51825 0.25 4.9985 0.25H11.4815ZM11.4815 1.375H4.9985C3.1385 1.375 1.625 2.8885 1.625 4.7485V10.1313C1.625 11.9913 3.1385 13.5048 4.9985 13.5048H11.4815C13.3415 13.5048 14.8542 11.9913 14.8542 10.1313V9.92125L12.3808 9.9217C10.9581 9.9217 9.80007 8.76445 9.79932 7.34245C9.79932 5.91895 10.9573 4.76095 12.3808 4.7602L14.8542 4.75975V4.7485C14.8542 2.8885 13.3415 1.375 11.4815 1.375ZM14.8542 5.88475L12.3808 5.8852C11.5776 5.88595 10.9243 6.5392 10.9243 7.3417C10.9243 8.14345 11.5783 8.7967 12.3808 8.7967L14.8542 8.79625V5.88475ZM12.724 6.7327C13.0345 6.7327 13.2865 6.9847 13.2865 7.2952C13.2865 7.6057 13.0345 7.8577 12.724 7.8577H12.49C12.1795 7.8577 11.9275 7.6057 11.9275 7.2952C11.9275 6.9847 12.1795 6.7327 12.49 6.7327H12.724ZM8.51375 3.65357C8.82425 3.65357 9.07625 3.90557 9.07625 4.21607C9.07625 4.52657 8.82425 4.77857 8.51375 4.77857H4.4645C4.154 4.77857 3.902 4.52657 3.902 4.21607C3.902 3.90557 4.154 3.65357 4.4645 3.65357H8.51375Z" fill="#828282"/>
</svg>
