<svg width="19" height="17" viewBox="0 0 19 17" fill="none" xmlns="http://www.w3.org/2000/svg">
<path d="M9.3498 11.9463C8.82701 11.9463 8.38879 12.3821 8.38879 12.902C8.38879 13.4219 8.82701 13.8577 9.3498 13.8577C9.85338 13.8577 10.3108 13.4219 10.2878 12.9249C10.3108 12.3782 9.87644 11.9463 9.3498 11.9463Z" fill="#D0021B"/>
<path d="M8.36957 6.28085C8.36957 5.78007 8.65403 5.3672 9.11147 5.23723C9.56892 5.13019 10.0264 5.34809 10.2224 5.77624C10.2878 5.92916 10.3108 6.08207 10.3108 6.25409C10.2993 6.49302 10.283 6.73194 10.2666 6.97087C10.2503 7.20979 10.2339 7.44872 10.2224 7.68764C10.2013 8.05654 10.1792 8.42544 10.1571 8.79434C10.135 9.16324 10.1129 9.53214 10.0917 9.90105C10.0686 10.1419 10.0686 10.3598 10.0686 10.5968C10.0494 10.9905 9.7419 11.2925 9.3498 11.2925C8.95771 11.2925 8.65403 11.0097 8.63096 10.6197C8.59829 10.0444 8.56561 9.47479 8.53294 8.90518C8.50026 8.33559 8.46759 7.766 8.43491 7.19068C8.42338 7.03968 8.41281 6.88772 8.40224 6.73577C8.39167 6.58381 8.3811 6.43185 8.36957 6.28085Z" fill="#D0021B"/>
<path fill-rule="evenodd" clip-rule="evenodd" d="M18.2449 15.3333C18.8485 14.2973 18.8523 13.0625 18.2526 12.0304L12.2328 1.66292C11.637 0.619294 10.5606 0 9.35361 0C8.14657 0 7.07023 0.623117 6.4744 1.6591L0.446892 12.038C-0.152783 13.0816 -0.148939 14.324 0.458424 15.36C1.0581 16.3845 2.1306 17 3.32995 17H15.3542C16.5574 17 17.6376 16.3769 18.2449 15.3333ZM16.938 14.584C16.6035 15.1574 16.0115 15.4976 15.3504 15.4976H3.3261C2.67261 15.4976 2.08447 15.1651 1.75772 14.6031C1.42713 14.0335 1.42329 13.353 1.75388 12.7796L7.78138 2.40454C8.10813 1.83494 8.69242 1.49854 9.35361 1.49854C10.0109 1.49854 10.5991 1.83877 10.9258 2.40837L16.9495 12.7835C17.2724 13.3416 17.2686 14.0144 16.938 14.584Z" fill="#D0021B"/>
</svg>
