<svg width="24" height="24" viewBox="0 0 24 24" fill="none" xmlns="http://www.w3.org/2000/svg">
<path fill-rule="evenodd" clip-rule="evenodd" d="M14.8901 2.36753L23.3703 17.6108C23.557 18.0658 23.6386 18.4358 23.662 18.8201C23.7086 19.7181 23.4053 20.591 22.8104 21.2627C22.2155 21.932 21.4107 22.3271 20.5358 22.375H3.4587C3.0971 22.3523 2.73549 22.2672 2.39721 22.1355C0.705831 21.4291 -0.110698 19.4415 0.57752 17.7186L9.11608 2.35675C9.4077 1.81675 9.85096 1.35099 10.3992 1.05166C11.9856 0.140483 14.0036 0.739151 14.8901 2.36753ZM13.0121 12.4132C13.0121 12.9879 12.5572 13.468 11.9973 13.468C11.4374 13.468 10.9708 12.9879 10.9708 12.4132V9.02591C10.9708 8.44999 11.4374 7.98423 11.9973 7.98423C12.5572 7.98423 13.0121 8.44999 13.0121 9.02591V12.4132ZM11.9973 17.5629C11.4374 17.5629 10.9708 17.0828 10.9708 16.5093C10.9708 15.9333 11.4374 15.4544 11.9973 15.4544C12.5572 15.4544 13.0121 15.9226 13.0121 16.4961C13.0121 17.0828 12.5572 17.5629 11.9973 17.5629Z" fill="#FF751D"/>
</svg>
