<svg width="20" height="12" viewBox="0 0 20 12" fill="none" xmlns="http://www.w3.org/2000/svg">
  <path d="M8.82347 1.10773C8.82347 0.81394 8.93973 0.532185 9.14665 0.324446C9.35358 0.116707 9.63423 0 9.92687 0C10.2195 0 10.5002 0.116707 10.7071 0.324446C10.914 0.532185 11.0303 0.81394 11.0303 1.10773V8.95698C11.0303 9.25077 10.914 9.53253 10.7071 9.74027C10.5002 9.948 10.2195 10.0647 9.92687 10.0647C9.63423 10.0647 9.35358 9.948 9.14665 9.74027C8.93973 9.53253 8.82347 9.25077 8.82347 8.95698V1.10773Z" fill="#1CAED4"/>
  <path d="M14.7423 10.9783C14.5198 10.9777 14.3027 10.9086 14.1205 10.7804C14.0034 10.6978 13.9039 10.5926 13.8277 10.4709C13.7516 10.3492 13.7004 10.2135 13.6771 10.0718C13.6538 9.92999 13.6588 9.78498 13.692 9.64521C13.7252 9.50543 13.7858 9.3737 13.8703 9.25771L18.0411 3.38028C18.2116 3.14757 18.4672 2.99238 18.7516 2.94883C19.036 2.90528 19.326 2.97695 19.5578 3.14808C19.7896 3.3192 19.9442 3.57576 19.9876 3.86131C20.031 4.14686 19.9596 4.43802 19.7891 4.67073L15.6182 10.5443C15.5169 10.6811 15.3846 10.7917 15.2323 10.8672C15.0801 10.9426 14.9121 10.9807 14.7423 10.9783Z" fill="#1CAED4"/>
  <path d="M5.91524 11.0811C5.76439 11.0808 5.61527 11.0488 5.47748 10.9872C5.33969 10.9256 5.21627 10.8357 5.11518 10.7233L0.261783 5.29501C0.0776737 5.08095 -0.0155421 4.80297 0.00212037 4.52071C0.0197828 4.23845 0.146917 3.97437 0.356263 3.78512C0.56561 3.59587 0.840489 3.49651 1.12195 3.50836C1.40342 3.52021 1.66906 3.64232 1.86189 3.8485L6.7077 9.27674C6.89754 9.4896 6.99573 9.76924 6.98081 10.0546C6.96589 10.3399 6.83908 10.6077 6.62808 10.7994C6.43347 10.9788 6.17942 11.0792 5.91524 11.0811Z" fill="#1CAED4"/>
</svg>
