<svg width="375" height="111" viewBox="0 0 375 111" fill="none" xmlns="http://www.w3.org/2000/svg">
<g clip-path="url(#clip0_1471_35926)">
<rect width="111" height="375" transform="translate(0 111) rotate(-90)" fill="url(#paint0_linear_1471_35926)"/>
<g filter="url(#filter0_f_1471_35926)">
<g clip-path="url(#clip1_1471_35926)">
<path d="M358.23 27.1958L356.521 23.9024L357.545 23.7558C357.602 22.8401 357.783 21.9375 358.082 21.0746C360.039 15.2379 366.647 10.7289 372.834 11.0307C374.33 11.0803 375.797 11.4748 377.129 12.1859V12.048L378.781 12.1342L380.433 15.212C380.912 16.256 381.181 17.3916 381.222 18.5484C381.263 19.7052 381.076 20.8585 380.673 21.9367C378.707 27.7734 372.099 32.2824 365.912 31.9806C362.096 31.7996 359.378 29.9287 358.23 27.1958Z" fill="#FFB100"/>
<path d="M364.111 28.6787C370.298 28.9804 376.906 24.4801 378.872 18.6434C380.838 12.8067 377.41 7.82354 371.223 7.53041C365.037 7.23729 358.429 11.729 356.463 17.5743C354.497 23.4196 357.925 28.3856 364.111 28.6787Z" fill="#FFF701"/>
<path d="M364.111 28.6787H364.442C358.47 28.2217 355.199 23.3248 357.132 17.5916C359.065 11.8583 365.466 7.40971 371.554 7.53041H371.223C365.037 7.23729 358.429 11.729 356.463 17.5743C354.497 23.4196 357.925 28.3856 364.111 28.6787Z" fill="#FEFFCD"/>
<path d="M365.21 24.7473C369.571 24.9542 374.23 21.7815 375.61 17.6691C376.989 13.5567 374.585 10.0478 370.224 9.8409C365.863 9.63398 361.204 12.798 359.825 16.919C358.445 21.0401 360.816 24.549 365.21 24.7473Z" fill="#FEFFCD"/>
<path d="M364.219 24.7041C368.58 24.911 373.239 21.7384 374.627 17.6173C376.014 13.4963 373.594 9.99603 369.233 9.78911C364.872 9.5822 360.213 12.7549 358.833 16.8673C357.454 20.9797 359.858 24.4886 364.219 24.7041Z" fill="#FFD701"/>
</g>
</g>
<g clip-path="url(#clip2_1471_35926)">
<path d="M8.15081 0.0652182L10.3072 -1.85899L10.6198 -1.1362C11.3242 -1.27998 12.043 -1.33027 12.7551 -1.28558C17.5587 -1.03115 22.2727 2.90924 23.2622 7.51588C23.5191 8.62496 23.5093 9.78265 23.2333 10.9059L23.3377 10.8779L23.5977 12.1092L21.5931 13.9472C20.8972 14.511 20.0904 14.9386 19.2228 15.2035C18.3553 15.4684 17.4455 15.5649 16.5499 15.4871C11.7447 15.2266 7.03062 11.2862 6.04109 6.6796C5.42688 3.83915 6.30806 1.46309 8.15081 0.0652182Z" fill="#FFB100"/>
<path d="M8.18591 4.68715C9.17545 9.29379 13.883 13.2359 18.6882 13.4964C23.4934 13.7569 26.5906 10.2277 25.5946 5.62279C24.5985 1.0179 19.8975 -2.92599 15.0858 -3.18473C10.2741 -3.44348 7.18985 0.0822522 8.18591 4.68715Z" fill="#FFF701"/>
<path d="M8.18591 4.68714L8.25096 4.9299C7.42117 0.449565 10.4841 -2.94688 15.2045 -2.68968C19.9248 -2.43247 24.5525 1.36844 25.6596 5.86553L25.5946 5.62279C24.5985 1.01789 19.8975 -2.92599 15.0858 -3.18473C10.2741 -3.44348 7.18985 0.0822516 8.18591 4.68714Z" fill="#FEFFCD"/>
<path d="M11.3777 4.69697C12.0797 7.9432 15.3984 10.7224 18.7829 10.9018C22.1674 11.0811 24.3504 8.60344 23.6484 5.35721C22.9465 2.11098 19.6343 -0.669998 16.2432 -0.847602C12.8522 -1.02521 10.6627 1.42821 11.3777 4.69697Z" fill="#FEFFCD"/>
<path d="M11.2154 3.95973C11.9173 7.20596 15.236 9.98518 18.6287 10.1689C22.0214 10.3525 24.1945 7.86445 23.4926 4.61822C22.7906 1.37199 19.4719 -1.40724 16.0874 -1.58659C12.7029 -1.76594 10.5199 0.711753 11.2154 3.95973Z" fill="#FFD701"/>
</g>
<g clip-path="url(#clip3_1471_35926)">
<path d="M349.045 -8.79589L351.294 -10.8028L351.62 -10.049C352.355 -10.1989 353.105 -10.2514 353.847 -10.2047C358.857 -9.93938 363.774 -5.82964 364.806 -1.025C365.074 0.131749 365.064 1.33919 364.776 2.51073L364.885 2.48155L365.156 3.76569L363.065 5.6827C362.339 6.27072 361.498 6.71672 360.593 6.99301C359.688 7.2693 358.739 7.37 357.805 7.28885C352.793 7.01716 347.877 2.90741 346.845 -1.89722C346.204 -4.85976 347.123 -7.33794 349.045 -8.79589Z" fill="#FFB100"/>
<path d="M349.081 -3.97553C350.114 0.829105 355.023 4.94067 360.035 5.21236C365.047 5.48406 368.277 1.80314 367.238 -2.99967C366.199 -7.80249 361.296 -11.9159 356.278 -12.1857C351.259 -12.4556 348.043 -8.77835 349.081 -3.97553Z" fill="#FFF701"/>
<path d="M349.081 -3.97553L349.149 -3.72235C348.284 -8.39524 351.478 -11.9377 356.402 -11.6694C361.325 -11.4012 366.152 -7.43688 367.306 -2.7465L367.238 -2.99968C366.199 -7.80249 361.296 -11.9159 356.278 -12.1857C351.259 -12.4556 348.043 -8.77835 349.081 -3.97553Z" fill="#FEFFCD"/>
<path d="M352.411 -3.96541C353.143 -0.579659 356.605 2.31902 360.135 2.50608C363.665 2.69314 365.941 0.10896 365.209 -3.27679C364.477 -6.66255 361.022 -9.56305 357.486 -9.74829C353.949 -9.93353 351.665 -7.37466 352.411 -3.96541Z" fill="#FEFFCD"/>
<path d="M352.242 -4.73416C352.974 -1.3484 356.435 1.55027 359.974 1.74183C363.512 1.9334 365.779 -0.661619 365.046 -4.04737C364.314 -7.43313 360.853 -10.3318 357.323 -10.5189C353.793 -10.7059 351.516 -8.12174 352.242 -4.73416Z" fill="#FFD701"/>
</g>
</g>
<defs>
<filter id="filter0_f_1471_35926" x="352.942" y="4.54638" width="31.1514" height="30.4097" filterUnits="userSpaceOnUse" color-interpolation-filters="sRGB">
<feFlood flood-opacity="0" result="BackgroundImageFix"/>
<feBlend mode="normal" in="SourceGraphic" in2="BackgroundImageFix" result="shape"/>
<feGaussianBlur stdDeviation="1.4834" result="effect1_foregroundBlur_1471_35926"/>
</filter>
<linearGradient id="paint0_linear_1471_35926" x1="-5.50001" y1="259.091" x2="111" y2="259.091" gradientUnits="userSpaceOnUse">
<stop stop-color="white" stop-opacity="0.7"/>
<stop offset="0.3125" stop-color="white"/>
<stop offset="1" stop-color="#E9F7FB"/>
</linearGradient>
<clipPath id="clip0_1471_35926">
<rect width="111" height="375" fill="white" transform="translate(0 111) rotate(-90)"/>
</clipPath>
<clipPath id="clip1_1471_35926">
<rect width="25.2178" height="24.4761" fill="white" transform="translate(355.909 7.51318)"/>
</clipPath>
<clipPath id="clip2_1471_35926">
<rect width="19.1813" height="19.1813" fill="white" transform="translate(22.5928 -5.63208) rotate(75)"/>
</clipPath>
<clipPath id="clip3_1471_35926">
<rect width="20.0057" height="20.0057" fill="white" transform="translate(364.107 -14.7383) rotate(75)"/>
</clipPath>
</defs>
</svg>
