<svg width="45" height="45" viewBox="0 0 45 45" fill="none" xmlns="http://www.w3.org/2000/svg">
<circle cx="22.5" cy="22.5" r="22.5" fill="#FF751D"/>
<mask id="mask0_2288_33486" style="mask-type:alpha" maskUnits="userSpaceOnUse" x="0" y="0" width="45" height="45">
<circle cx="22.5" cy="22.5" r="22.5" fill="#FF751D"/>
</mask>
<g mask="url(#mask0_2288_33486)">
<path opacity="0.3" d="M20.9 13C21.4523 13 21.9 13.4477 21.9 14C21.9 14.5523 21.4523 15 20.9 15H16C14.8954 15 14 15.8954 14 17V29C14 30.1046 14.8954 31 16 31H28C29.1046 31 30 30.1046 30 29V27C30 26.4477 30.4477 26 31 26C31.5523 26 32 26.4477 32 27V29C32 31.2091 30.2091 33 28 33H16C13.7909 33 12 31.2091 12 29V17C12 14.7909 13.7909 13 16 13H20.9Z" fill="white"/>
<path d="M17.0045 24.8975C17.0045 24.1348 16.8411 21.1248 19.2155 18.7368C20.8136 17.1296 23.2053 16.8509 26.0654 16.7237V12.8381C26.0654 12.1873 26.8374 11.8454 27.3194 12.2826L33.8275 18.187C34.1534 18.4826 34.156 18.9938 33.8332 19.2927L27.325 25.32C26.8449 25.7646 26.0654 25.4241 26.0654 24.7697V20.9078C24.2494 20.9577 22.9559 21.0732 21.7806 21.4471C19.509 22.1698 18.1611 25.2687 17.7976 26.2126C17.7349 26.3754 17.5797 26.4865 17.4053 26.4865C17.1814 26.4865 17.0001 26.3052 17.0008 26.0813C17.0021 25.6693 17.0045 25.1957 17.0045 24.8975Z" fill="white"/>
<g filter="url(#filter0_f_2288_33486)">
<g clip-path="url(#clip0_2288_33486)">
<path d="M22.301 55.2997L20.606 52.0704L21.6214 51.9267C21.6779 51.0288 21.8571 50.1437 22.1536 49.2976C24.0943 43.5745 30.6453 39.1532 36.7786 39.4491C38.2615 39.4978 39.7156 39.8846 41.0367 40.5819V40.4466L42.6744 40.5312L44.3121 43.5491C44.7872 44.5728 45.0534 45.6863 45.0942 46.8206C45.1351 47.9549 44.9497 49.0857 44.5496 50.143C42.6007 55.8661 36.0498 60.2874 29.9165 59.9915C26.1333 59.814 23.4392 57.9796 22.301 55.2997Z" fill="#FFB100"/>
<path d="M28.1314 56.7541C34.2647 57.05 40.8156 52.6371 42.7645 46.914C44.7134 41.1909 41.3151 36.3046 35.1818 36.0172C29.0485 35.7298 22.4976 40.1342 20.5487 45.8658C18.5998 51.5974 21.9981 56.4667 28.1314 56.7541Z" fill="#FFF701"/>
<path d="M28.1314 56.7541H28.4589C22.5385 56.306 19.2958 51.5044 21.212 45.8827C23.1281 40.261 29.4743 35.8989 35.5094 36.0172H35.1818C29.0485 35.7298 22.4976 40.1342 20.5487 45.8658C18.5998 51.5974 21.9981 56.4667 28.1314 56.7541Z" fill="#FEFFCD"/>
<path d="M29.2205 52.8988C33.5441 53.1017 38.1625 49.9907 39.53 45.9583C40.8975 41.9259 38.5146 38.4852 34.191 38.2824C29.8674 38.0795 25.249 41.182 23.8815 45.2228C22.5139 49.2637 24.8641 52.7043 29.2205 52.8988Z" fill="#FEFFCD"/>
<path d="M28.2378 52.8564C32.5614 53.0593 37.1798 49.9484 38.5555 45.9075C39.9312 41.8666 37.5319 38.4344 33.2083 38.2316C28.8847 38.0287 24.2663 41.1396 22.8988 45.172C21.5313 49.2044 23.9142 52.6451 28.2378 52.8564Z" fill="#FFD701"/>
</g>
</g>
<g clip-path="url(#clip1_2288_33486)">
<path d="M-0.160039 5.76396L1.48588 4.29525L1.72447 4.84694C2.26211 4.73719 2.81081 4.69881 3.35431 4.73292C7.02078 4.92712 10.6189 7.93473 11.3742 11.4509C11.5703 12.2974 11.5627 13.1811 11.3521 14.0384L11.4318 14.0171L11.6302 14.9568L10.1002 16.3597C9.56897 16.7901 8.95318 17.1165 8.29101 17.3187C7.62883 17.5209 6.93439 17.5946 6.25077 17.5352C2.58307 17.3363 -1.01506 14.3287 -1.77034 10.8126C-2.23916 8.64452 -1.56657 6.83092 -0.160039 5.76396Z" fill="#FFB100"/>
<path d="M-0.13313 9.29148C0.62216 12.8076 4.21531 15.8166 7.88301 16.0154C11.5507 16.2142 13.9148 13.5205 13.1545 10.0056C12.3943 6.49082 8.80609 3.48054 5.1334 3.28305C1.46071 3.08555 -0.893399 5.77667 -0.13313 9.29148Z" fill="#FFF701"/>
<path d="M-0.133128 9.29148L-0.08348 9.47677C-0.716836 6.05703 1.62101 3.4646 5.22398 3.66091C8.82694 3.85723 12.3592 6.75838 13.2042 10.1909L13.1545 10.0056C12.3943 6.49082 8.80609 3.48054 5.1334 3.28305C1.46072 3.08555 -0.893398 5.77667 -0.133128 9.29148Z" fill="#FEFFCD"/>
<path d="M2.30343 9.29919C2.83921 11.777 5.37233 13.8983 7.95566 14.0352C10.539 14.1721 12.2052 12.2809 11.6694 9.80314C11.1336 7.32536 8.60548 5.20271 6.01717 5.06714C3.42885 4.93158 1.7577 6.80422 2.30343 9.29919Z" fill="#FEFFCD"/>
<path d="M2.1794 8.73638C2.71518 11.2142 5.2483 13.3355 7.83785 13.4757C10.4274 13.6159 12.0861 11.7168 11.5503 9.23898C11.0146 6.76121 8.48145 4.63988 5.89812 4.50299C3.31478 4.36609 1.6486 6.25726 2.1794 8.73638Z" fill="#FFD701"/>
</g>
</g>
<defs>
<filter id="filter0_f_2288_33486" x="15.5519" y="31.5519" width="33.8961" height="32.8961" filterUnits="userSpaceOnUse" color-interpolation-filters="sRGB">
<feFlood flood-opacity="0" result="BackgroundImageFix"/>
<feBlend mode="normal" in="SourceGraphic" in2="BackgroundImageFix" result="shape"/>
<feGaussianBlur stdDeviation="2.22403" result="effect1_foregroundBlur_2288_33486"/>
</filter>
<clipPath id="clip0_2288_33486">
<rect width="25" height="24" fill="white" transform="translate(20 36)"/>
</clipPath>
<clipPath id="clip1_2288_33486">
<rect width="14.6406" height="14.6406" fill="white" transform="translate(10.8634 1.41504) rotate(75)"/>
</clipPath>
</defs>
</svg>
