<svg width="24" height="25" viewBox="0 0 24 25" fill="none" xmlns="http://www.w3.org/2000/svg">
<rect opacity="0.3" x="2.40082" y="5.94873" width="18" height="7" rx="1" transform="rotate(-15 2.40082 5.94873)" fill="#1CAED4"/>
<rect x="2" y="4.5" width="20" height="16" rx="2" fill="#1CAED4"/>
<path d="M11.4117 10.0539C11.4117 9.90697 11.4699 9.76609 11.5733 9.66222C11.6768 9.55835 11.8171 9.5 11.9634 9.5C12.1098 9.5 12.2501 9.55835 12.3535 9.66222C12.457 9.76609 12.5151 9.90697 12.5151 10.0539V13.9785C12.5151 14.1254 12.457 14.2663 12.3535 14.3701C12.2501 14.474 12.1098 14.5324 11.9634 14.5324C11.8171 14.5324 11.6768 14.474 11.5733 14.3701C11.4699 14.2663 11.4117 14.1254 11.4117 13.9785V10.0539Z" fill="white"/>
<path d="M14.3712 14.9892C14.2599 14.9889 14.1514 14.9543 14.0603 14.8902C14.0017 14.8489 13.9519 14.7963 13.9139 14.7354C13.8758 14.6746 13.8502 14.6068 13.8385 14.5359C13.8269 14.465 13.8294 14.3925 13.846 14.3226C13.8626 14.2527 13.8929 14.1869 13.9351 14.1289L16.0206 11.1901C16.1058 11.0738 16.2336 10.9962 16.3758 10.9744C16.518 10.9526 16.663 10.9885 16.7789 11.074C16.8948 11.1596 16.9721 11.2879 16.9938 11.4307C17.0155 11.5734 16.9798 11.719 16.8946 11.8354L14.8091 14.7722C14.7584 14.8405 14.6923 14.8959 14.6162 14.9336C14.54 14.9713 14.4561 14.9904 14.3712 14.9892Z" fill="white"/>
<path d="M9.95762 15.0405C9.88219 15.0404 9.80763 15.0244 9.73874 14.9936C9.66984 14.9628 9.60814 14.9178 9.55759 14.8616L7.13089 12.1475C7.03884 12.0405 6.99223 11.9015 7.00106 11.7604C7.00989 11.6192 7.07346 11.4872 7.17813 11.3926C7.2828 11.2979 7.42024 11.2483 7.56098 11.2542C7.70171 11.2601 7.83453 11.3212 7.93094 11.4242L10.3539 14.1384C10.4488 14.2448 10.4979 14.3846 10.4904 14.5273C10.4829 14.6699 10.4195 14.8038 10.314 14.8997C10.2167 14.9894 10.0897 15.0396 9.95762 15.0405Z" fill="white"/>
<path fill-rule="evenodd" clip-rule="evenodd" d="M20.5 16.5C22.433 16.5 24 14.933 24 13C24 11.067 22.433 9.5 20.5 9.5C18.567 9.5 17 11.067 17 13C17 14.933 18.567 16.5 20.5 16.5Z" fill="#1CAED4"/>
<path opacity="0.3" fill-rule="evenodd" clip-rule="evenodd" d="M20.5 14.5C21.3284 14.5 22 13.8284 22 13C22 12.1716 21.3284 11.5 20.5 11.5C19.6716 11.5 19 12.1716 19 13C19 13.8284 19.6716 14.5 20.5 14.5Z" fill="#1CAED4"/>
</svg>
