<svg width="10" height="9" viewBox="0 0 10 9" fill="none" xmlns="http://www.w3.org/2000/svg">
  <path fill-rule="evenodd" clip-rule="evenodd" d="M4.99989 7.15793L2.9577 8.23158C2.71328 8.36008 2.41097 8.2661 2.28247 8.02168C2.2313 7.92435 2.21364 7.81287 2.23223 7.70449L2.62225 5.43048L0.970086 3.82001C0.772344 3.62726 0.768298 3.3107 0.961049 3.11296C1.0378 3.03422 1.13837 2.98298 1.24719 2.96716L3.53043 2.63539L4.55153 0.566426C4.67374 0.318799 4.97355 0.21713 5.22118 0.339341C5.31978 0.388006 5.3996 0.46782 5.44826 0.566426L6.46936 2.63539L8.7526 2.96716C9.02587 3.00687 9.21521 3.2606 9.1755 3.53387C9.15969 3.64269 9.10844 3.74326 9.0297 3.82001L7.37754 5.43048L7.76756 7.70449C7.81424 7.97666 7.63145 8.23513 7.35928 8.28181C7.2509 8.3004 7.13941 8.28275 7.04208 8.23158L4.99989 7.15793Z" fill="#FF751D"/>
</svg>
