<svg width="45" height="45" viewBox="0 0 45 45" fill="none" xmlns="http://www.w3.org/2000/svg">
  <circle cx="22.5" cy="22.5" r="22.1691" fill="white" stroke="#E0E0E0" stroke-width="0.661765"/>
  <mask id="mask0_4279_26264" style="mask-type:alpha" maskUnits="userSpaceOnUse" x="0" y="0" width="45" height="45">
    <circle cx="22.5" cy="22.5" r="22.1691" fill="white" stroke="#E0E0E0" stroke-width="0.661765"/>
  </mask>
  <g mask="url(#mask0_4279_26264)">
    <path d="M25.7009 8.718L25.7011 8.71795C25.8983 8.66005 26.105 8.6417 26.3093 8.66395C26.5136 8.68619 26.7115 8.74859 26.8916 8.84757C27.0718 8.94654 27.2306 9.08013 27.3589 9.24066C27.4872 9.4012 27.5826 9.58551 27.6394 9.78301L27.6394 9.78309L36.6199 40.8018C36.734 41.1969 36.6866 41.6212 36.4881 41.9813C36.2896 42.3415 35.9562 42.608 35.5612 42.7225L23.0813 46.3358L23.096 46.3864L23.0813 46.3358C22.8857 46.3925 22.6808 46.4101 22.4784 46.3875C22.2759 46.365 22.0799 46.3027 21.9016 46.2042C21.7233 46.1058 21.5662 45.9731 21.4392 45.8139C21.3123 45.6546 21.218 45.4718 21.1618 45.2761L21.1617 45.276L12.1781 14.2594C12.1781 14.2594 12.1781 14.2594 12.1781 14.2593C12.0643 13.8623 12.1125 13.4363 12.3121 13.0748C12.5117 12.7132 12.8466 12.4454 13.2432 12.3302C13.2432 12.3302 13.2432 12.3302 13.2432 12.3302L25.7009 8.718Z" fill="#253E4D" stroke="#E0E0E0" stroke-width="0.105467"/>
    <path d="M34.8471 39.8433L34.8472 39.8433C34.9355 39.8179 35.0179 39.7753 35.0897 39.7181C35.1615 39.6608 35.2213 39.5899 35.2657 39.5094C35.3101 39.429 35.3381 39.3406 35.3483 39.2493C35.3584 39.158 35.3504 39.0656 35.3248 38.9774L35.3248 38.9773L26.954 10.0692C26.9539 10.0692 26.9539 10.0691 26.9539 10.0691C26.8792 9.8158 26.7075 9.60225 26.4762 9.47487C26.2449 9.34748 25.9726 9.31657 25.7186 9.38886C25.7186 9.38887 25.7186 9.38887 25.7186 9.38888L13.4955 12.9282C13.4954 12.9282 13.4954 12.9282 13.4954 12.9282C13.2421 13.0029 13.0285 13.1746 12.9011 13.4059C12.7738 13.6372 12.7428 13.9095 12.8151 14.1635C12.8151 14.1635 12.8151 14.1635 12.8151 14.1636L21.186 43.0749C21.186 43.0749 21.186 43.0749 21.186 43.0749C21.2377 43.2529 21.3579 43.4032 21.5202 43.4927C21.6826 43.5822 21.8738 43.6038 22.0519 43.5526L34.8471 39.8433ZM34.8471 39.8433L22.052 43.5525L34.8471 39.8433ZM12.8549 13.3805C12.9891 13.137 13.2139 12.9562 13.4806 12.8776L12.8549 13.3805Z" fill="#FF751D" stroke="#E0E0E0" stroke-width="0.105467"/>
    <path d="M24.3111 27.6872L24.311 27.6872C24.231 27.7104 24.1472 27.7176 24.0643 27.7084C23.9815 27.6992 23.9013 27.6738 23.8283 27.6335C23.7553 27.5933 23.691 27.539 23.639 27.4739C23.587 27.4087 23.5484 27.334 23.5253 27.2539L23.5253 27.2538L22.227 22.7715L22.227 22.7715L22.2265 22.7699C22.2001 22.6889 22.1903 22.6034 22.1977 22.5186C22.205 22.4338 22.2294 22.3513 22.2692 22.2761C22.3091 22.2008 22.3637 22.1344 22.4298 22.0807C22.4959 22.027 22.5721 21.9871 22.6539 21.9635C22.7357 21.9398 22.8214 21.9329 22.9059 21.943C22.9905 21.9532 23.0721 21.9802 23.146 22.0226C23.2199 22.0649 23.2845 22.1217 23.3359 22.1895C23.3874 22.2573 23.4247 22.3348 23.4457 22.4173L23.4456 22.4174L23.4461 22.4191L24.7444 26.9013C24.7911 27.063 24.7716 27.2366 24.6904 27.3839C24.6091 27.5313 24.4727 27.6404 24.3111 27.6872Z" fill="#FAFBFB" stroke="#E0E0E0" stroke-width="0.105467"/>
    <path d="M22.2761 28.8562C22.2017 28.9418 22.1058 29.0057 21.9986 29.0416L21.9938 29.0378L21.9675 29.0454C21.8814 29.0704 21.791 29.077 21.7022 29.0645C21.6134 29.0521 21.5283 29.021 21.4523 28.9733L17.6495 26.5784C17.6494 26.5783 17.6494 26.5783 17.6494 26.5783C17.5074 26.4879 17.4071 26.3448 17.3706 26.1805C17.3341 26.0161 17.3643 25.844 17.4547 25.702C17.5451 25.5599 17.6882 25.4596 17.8526 25.4231C18.0169 25.3866 18.1891 25.4168 18.3311 25.5072L18.3313 25.5073L22.1344 27.9035L22.1345 27.9036C22.2382 27.9686 22.3208 28.0623 22.3724 28.1733C22.4239 28.2843 22.4423 28.4078 22.4252 28.529C22.4081 28.6502 22.3563 28.7638 22.2761 28.8562Z" fill="#FAFBFB" stroke="#E0E0E0" stroke-width="0.105467"/>
    <path d="M28.203 22.6432L28.203 22.6433L26.2688 26.7005C26.2162 26.811 26.1966 26.9342 26.2123 27.0555C26.2281 27.1768 26.2786 27.2909 26.3577 27.3842C26.4368 27.4775 26.5411 27.546 26.6582 27.5814L28.203 22.6432ZM28.203 22.6432C28.2388 22.568 28.2891 22.5007 28.3509 22.4449C28.4128 22.3891 28.485 22.3461 28.5635 22.3182C28.642 22.2904 28.7252 22.2783 28.8084 22.2826C28.8915 22.2869 28.973 22.3075 29.0482 22.3433L29.0709 22.2957M28.203 22.6432L27.4149 27.2468L29.3481 23.1885C29.3481 23.1885 29.3481 23.1885 29.3481 23.1885C29.3839 23.1133 29.4045 23.0318 29.4089 22.9487C29.4132 22.8655 29.401 22.7823 29.3732 22.7038C29.3453 22.6253 29.3023 22.5531 29.2465 22.4913C29.1908 22.4294 29.1234 22.3791 29.0482 22.3433L29.0709 22.2957M29.0709 22.2957C28.9894 22.2569 28.9012 22.2346 28.8111 22.2299C28.721 22.2253 28.6309 22.2384 28.5459 22.2685C28.4609 22.2987 28.3826 22.3453 28.3156 22.4057C28.2486 22.4661 28.1942 22.5391 28.1554 22.6206L29.3957 23.2112C29.4345 23.1297 29.4569 23.0415 29.4615 22.9514C29.4662 22.8613 29.453 22.7712 29.4229 22.6862C29.3927 22.6012 29.3461 22.5229 29.2857 22.4559C29.2253 22.3889 29.1523 22.3345 29.0709 22.2957ZM27.2524 27.4579C27.1839 27.516 27.1039 27.5589 27.0176 27.5838L27.4149 27.2469C27.3763 27.3279 27.3209 27.3999 27.2524 27.4579Z" fill="#FAFBFB" stroke="#E0E0E0" stroke-width="0.105467"/>
    <path opacity="0.18" d="M21.2956 41.9239L21.2432 41.9173C21.4548 40.2549 22.0758 38.7149 22.8381 37.2242C23.2193 36.4788 23.6362 35.745 24.0551 35.0144C24.0973 34.9408 24.1395 34.8672 24.1817 34.7937C24.5588 34.1368 24.9348 33.4816 25.2863 32.8206C25.6785 32.0824 26.0447 31.3107 26.1039 30.4908C26.1267 30.1573 26.0752 29.6296 25.9037 29.2317C25.818 29.0328 25.7048 28.8722 25.5618 28.7817C25.4216 28.6931 25.2465 28.6677 25.0244 28.7509C24.8369 28.8215 24.6439 28.9552 24.45 29.1291C24.2565 29.3026 24.0646 29.5137 23.8791 29.7363C23.7014 29.9496 23.5304 30.1723 23.3699 30.3813C23.3629 30.3904 23.3559 30.3995 23.3489 30.4086C23.1828 30.6249 23.0277 30.826 22.8897 30.9828C21.4776 32.591 20.1463 34.2815 19.1154 36.1592L19.1154 36.1592C18.7352 36.8506 18.4037 37.5676 18.1234 38.3051L18.6489 42.0758C18.6489 42.0758 18.6489 42.0758 18.6489 42.0758C18.6885 42.3562 18.8378 42.6095 19.0639 42.78C19.2899 42.9505 19.5744 43.0244 19.8549 42.9854L21.2956 41.9239ZM21.2956 41.9239L21.2432 41.9173C21.2249 42.0613 21.2096 42.2064 21.1944 42.351L21.1912 42.3815C21.1762 42.5231 21.1611 42.6642 21.143 42.8043L19.855 42.9854L21.2956 41.9239Z" fill="#1E0E00" stroke="#E0E0E0" stroke-width="0.105467"/>
    <path d="M24.7528 28.4602L24.7518 28.4602C24.546 28.4554 24.3408 28.4849 24.1446 28.5474L24.1446 28.5474C23.7024 28.6876 23.3061 28.9751 22.9368 29.2812C21.4017 30.561 20.1763 32.1645 19.0316 33.8246L19.0315 33.8247C18.9536 33.9374 18.8466 34.0268 18.7219 34.0834C18.5971 34.14 18.4594 34.1618 18.3233 34.1463C18.1872 34.1308 18.0578 34.0787 17.949 33.9955C17.8401 33.9124 17.7559 33.8013 17.7053 33.674C17.6202 33.4641 17.5486 33.2825 17.5236 33.2031L17.5234 33.2026C17.3286 32.5639 17.1383 31.9246 16.9527 31.2845L16.9526 31.2844C16.5833 30.0014 16.2338 28.7132 15.9039 27.4196L15.9038 27.4196C15.8164 27.0749 15.5903 26.3776 15.3854 25.7646C15.2831 25.4585 15.1863 25.1741 15.115 24.9662C15.0794 24.8622 15.0502 24.7774 15.0299 24.7186L15.0132 24.6704C14.8254 24.7158 14.6037 24.8629 14.3662 25.0795C14.1121 25.3111 13.8473 25.6153 13.5964 25.9377C13.0947 26.5823 12.653 27.2939 12.4702 27.6281L12.4701 27.6282C11.1011 30.1166 10.0894 32.9229 10.4229 35.7301C10.5362 36.6838 10.8014 37.6084 11.0777 38.5359C11.096 38.5974 11.1144 38.6589 11.1327 38.7204C11.3911 39.5857 11.6507 40.4554 11.7936 41.3494L11.7937 41.3495C12.0848 43.1838 11.6289 44.968 11.0069 46.4677C10.5401 47.5934 9.97724 48.5636 9.56485 49.2745C9.42824 49.51 9.30814 49.7171 9.21351 49.8919L9.21349 49.8919C8.89532 50.4789 8.60012 50.9651 8.37399 51.3182L8.58478 51.292L8.58527 51.292C8.66119 51.2832 8.73404 51.2748 8.80392 51.2668C9.1562 51.2261 9.43298 51.1941 9.64712 51.1758C9.90125 51.154 10.076 51.1504 10.1862 51.1783L10.1877 51.1786C10.5068 51.2694 10.799 51.4367 11.0388 51.666C11.2665 51.8618 11.459 52.0952 11.6081 52.356L11.6152 52.3685L11.6133 52.3689C11.6365 52.4586 11.6703 52.5452 11.714 52.6269C11.7588 52.7073 11.8132 52.782 11.8761 52.8492L11.8767 52.8498C12.0417 53.0323 12.2269 53.1956 12.4286 53.3365C12.8053 53.5929 13.2286 53.7729 13.6747 53.866C13.8632 53.9034 14.0539 53.9284 14.2456 53.941L14.2458 53.9411C14.3801 53.9503 14.4802 53.9513 14.5787 53.9524C14.5914 53.9525 14.6042 53.9527 14.617 53.9528C14.7287 53.9541 14.8427 53.9568 15.0036 53.9728C15.0036 53.9728 15.0036 53.9728 15.0036 53.9728L14.9984 54.0253C15.1946 54.0447 15.3423 54.0721 15.4214 54.0868C15.4372 54.0897 15.4502 54.0921 15.4603 54.0939L24.7528 28.4602ZM24.7528 28.4602C24.9135 28.4609 25.0725 28.4935 25.2205 28.5561C25.3683 28.6187 25.5022 28.7099 25.6145 28.8247C26.0038 29.2402 25.9401 29.7732 25.7528 30.2943C25.712 30.4061 25.6672 30.5188 25.6203 30.6228L25.6202 30.6231C25.276 31.404 24.8614 32.1494 24.4297 32.8882C24.3014 33.1077 24.1716 33.3267 24.0417 33.5459C23.7347 34.0638 23.427 34.5827 23.1384 35.111C22.3166 36.6152 21.6313 38.2624 21.6175 39.9873C21.6137 40.4575 21.6605 40.9246 21.7173 41.389C21.732 41.5093 21.7473 41.6294 21.7626 41.7492C21.8066 42.0931 21.8505 42.4356 21.8781 42.7794L21.8781 42.7795C22.1963 46.684 20.4626 50.4365 18.711 53.9607L18.7105 53.9619C18.6714 54.0456 18.6255 54.1297 18.5782 54.2134L24.7528 28.4602ZM17.5739 33.1872C17.3791 32.5488 17.1889 31.9097 17.0033 31.2698L18.9882 33.7947C18.9157 33.8995 18.8161 33.9827 18.7001 34.0354C18.584 34.0881 18.4558 34.1083 18.3292 34.0939C18.2026 34.0795 18.0822 34.031 17.981 33.9536C17.8797 33.8762 17.8014 33.7728 17.7542 33.6544C17.6688 33.4435 17.5981 33.2642 17.5739 33.1872Z" fill="#FFBE9F" stroke="#E0E0E0" stroke-width="0.105467"/>
    <path d="M23.3777 31.3936L23.3777 31.3936L23.3769 31.3928C23.2538 31.2704 23.1534 31.1273 23.0804 30.9699C22.9543 30.6385 22.9607 30.2713 23.0983 29.9446L23.0497 29.9241L23.0983 29.9446C23.2378 29.6145 23.435 29.312 23.6808 29.0511L23.6808 29.0512L23.6819 29.0499C23.8308 28.8813 23.9912 28.7065 24.1614 28.5438C24.3541 28.4838 24.5552 28.4556 24.757 28.4602L24.758 28.4602C24.9187 28.4609 25.0777 28.4935 25.2257 28.5561C25.3735 28.6187 25.5074 28.7099 25.6197 28.8246C26.0026 29.2388 25.9405 29.7699 25.7597 30.2917C25.5821 30.5838 25.3903 30.867 25.1844 31.1411C24.9452 31.4586 24.662 31.7666 24.2924 31.8091C23.9558 31.8475 23.6251 31.6503 23.3777 31.3936Z" fill="#FDD6C8" stroke="#E0E0E0" stroke-width="0.105467"/>
    <path d="M16.4315 28.8863L16.4092 28.9341C16.4297 28.9437 16.4457 28.9609 16.4536 28.9821C16.4616 29.0033 16.4609 29.0268 16.4518 29.0475L16.4518 29.0475C16.4209 29.1151 15.7903 30.566 15.9952 32.2098L15.9953 32.2101C15.9967 32.2212 15.996 32.2324 15.9931 32.2432C15.9902 32.2539 15.9852 32.264 15.9783 32.2728C15.9715 32.2816 15.963 32.289 15.9534 32.2945L15.9794 32.3403L15.9534 32.2945C15.9441 32.2998 15.9339 32.3032 15.9233 32.3047L15.9101 32.3055C15.8897 32.3052 15.8702 32.2976 15.8549 32.2841C15.8394 32.2704 15.8294 32.2515 15.8268 32.2309C15.7083 31.1236 15.8701 30.0043 16.2974 28.9759C16.3019 28.9659 16.3084 28.9569 16.3163 28.9494C16.3245 28.9418 16.334 28.9358 16.3445 28.9319C16.3549 28.928 16.366 28.9262 16.3772 28.9266C16.3883 28.927 16.3993 28.9296 16.4094 28.9342L16.4315 28.8863ZM16.4315 28.8863C16.415 28.8788 16.3972 28.8745 16.3791 28.8739C16.361 28.8732 16.3429 28.8762 16.3259 28.8825C16.309 28.8889 16.2934 28.8986 16.2802 28.911C16.267 28.9234 16.2564 28.9383 16.249 28.9549L16.5 29.0688C16.5147 29.0355 16.5158 28.9977 16.503 28.9636C16.4902 28.9294 16.4645 28.9017 16.4315 28.8863Z" fill="#E8A084" stroke="#E0E0E0" stroke-width="0.105467"/>
    <path d="M18.2173 35.248L18.2186 35.248C18.2361 35.2485 18.2533 35.2435 18.2678 35.2336C18.2823 35.2238 18.2933 35.2096 18.2993 35.1931L18.2996 35.1923L18.2996 35.1923C18.4379 34.8287 18.7083 34.3661 19.034 33.8785C19.3603 33.3901 19.7441 32.8735 20.1114 32.4013C20.8241 31.4848 21.4757 30.7335 21.5259 30.6755L18.2173 35.248ZM18.2173 35.248C18.2073 35.248 18.1974 35.246 18.1882 35.2423L18.1882 35.2423M18.2173 35.248L18.1882 35.2423M18.1882 35.2423L18.1866 35.2417M18.1882 35.2423L18.1866 35.2417M18.1866 35.2417C18.1762 35.2379 18.1666 35.2321 18.1585 35.2245C18.1504 35.217 18.1438 35.2079 18.1392 35.1978C18.1347 35.1877 18.1322 35.1768 18.1319 35.1657C18.1316 35.1546 18.1335 35.1435 18.1375 35.1332L18.1375 35.1332M18.1866 35.2417L18.1375 35.1332M18.1375 35.1332L18.1377 35.1328M18.1375 35.1332L18.1377 35.1328M18.1377 35.1328C18.415 34.4031 19.1995 33.2936 19.9337 32.3457C20.6662 31.4 21.3425 30.6228 21.3975 30.5599L21.3978 30.5596M18.1377 35.1328L21.3978 30.5596M21.3978 30.5596C21.4052 30.551 21.4142 30.5439 21.4244 30.5388M21.3978 30.5596L21.4244 30.5388M21.4244 30.5388C21.4345 30.5337 21.4455 30.5306 21.4568 30.5298M21.4244 30.5388L21.4568 30.5298M21.4568 30.5298C21.4681 30.5289 21.4795 30.5303 21.4903 30.5339M21.4568 30.5298L21.4903 30.5339M21.4903 30.5339C21.5011 30.5374 21.511 30.543 21.5196 30.5504M21.4903 30.5339L21.5196 30.5504M21.5196 30.5504C21.5282 30.5578 21.5353 30.5668 21.5404 30.577M21.5196 30.5504L21.5404 30.577M21.5404 30.577C21.5455 30.5871 21.5486 30.5981 21.5494 30.6094M21.5404 30.577L21.5494 30.6094M21.5494 30.6094C21.5503 30.6207 21.5489 30.6321 21.5454 30.6429M21.5494 30.6094L21.5454 30.6429M21.5454 30.6429C21.5418 30.6536 21.5362 30.6636 21.5288 30.6722L21.5454 30.6429Z" fill="#E8A084" stroke="#E0E0E0" stroke-width="0.105467"/>
    <path d="M20.211 46.6973L20.211 46.6974L20.2127 46.6969C20.3533 46.6615 20.7658 46.5272 21.1473 46.0992C21.5294 45.6706 21.8756 44.9527 21.8915 43.7588L21.8918 43.7588L21.8913 43.7535C21.8903 43.7417 21.8917 43.7298 21.8955 43.7186C21.8993 43.7074 21.9054 43.6971 21.9134 43.6884C21.9214 43.6796 21.9312 43.6726 21.942 43.6679C21.9529 43.6631 21.9646 43.6606 21.9764 43.6606C21.9883 43.6606 22 43.6631 22.0108 43.6679C22.0217 43.6726 22.0314 43.6796 22.0394 43.6884C22.0474 43.6971 22.0535 43.7074 22.0573 43.7186C22.0611 43.7298 22.0626 43.7417 22.0615 43.7535L22.0614 43.7535L22.0613 43.7574C22.0446 45.031 21.6621 45.787 21.2522 46.2335C20.8414 46.6809 20.3985 46.8224 20.2536 46.8583L20.2535 46.8579L20.2479 46.86C20.2421 46.8622 20.236 46.8636 20.2298 46.8642C20.2093 46.8644 20.1893 46.8571 20.1738 46.8437C20.1579 46.8299 20.1477 46.8108 20.1451 46.7899C20.1426 46.769 20.148 46.748 20.1602 46.7309C20.1724 46.7137 20.1905 46.7018 20.211 46.6973Z" fill="#E8A084" stroke="#E0E0E0" stroke-width="0.105467"/>
    <path d="M10.4246 48.1602L10.4245 48.1601C10.405 48.1486 10.3907 48.1299 10.3848 48.1079C10.3789 48.086 10.3819 48.0626 10.3931 48.0428L10.3472 48.0168L10.3929 48.0431C10.4016 48.028 10.8009 47.3296 11.1706 46.3612C11.5398 45.3942 11.8823 44.1508 11.7708 43.0482L11.7709 43.0482L11.7703 43.0445C11.7682 43.0329 11.7686 43.021 11.7714 43.0096L11.7201 42.9972L11.7714 43.0096C11.7742 42.9982 11.7793 42.9875 11.7864 42.9781C11.7935 42.9688 11.8024 42.961 11.8127 42.9552C11.8229 42.9495 11.8342 42.9459 11.8459 42.9448C11.8576 42.9436 11.8694 42.9448 11.8806 42.9484C11.8918 42.952 11.9021 42.9579 11.9109 42.9657C11.9197 42.9734 11.9268 42.9829 11.9318 42.9936C11.9368 43.0042 11.9395 43.0158 11.9398 43.0275L11.9397 43.0275L11.94 43.0314C12.0522 44.1534 11.72 45.3974 11.3486 46.3791C10.9777 47.3595 10.5703 48.0719 10.5377 48.1287L10.5377 48.1288C10.5304 48.1416 10.5199 48.1523 10.5072 48.1599C10.4947 48.1673 10.4806 48.1714 10.4661 48.1718C10.4515 48.1716 10.4372 48.1676 10.4246 48.1602Z" fill="#E8A084" stroke="#E0E0E0" stroke-width="0.105467"/>
  </g>
</svg>
