<svg width="45" height="45" viewBox="0 0 45 45" fill="none" xmlns="http://www.w3.org/2000/svg">
  <circle cx="22.5" cy="22.5" r="22.1691" fill="white" stroke="#E0E0E0" stroke-width="0.661765"/>
  <mask id="mask0_4279_26282" style="mask-type:alpha" maskUnits="userSpaceOnUse" x="0" y="0" width="45" height="45">
    <circle cx="22.5" cy="22.5" r="22.1691" fill="white" stroke="#E0E0E0" stroke-width="0.661765"/>
  </mask>
  <g mask="url(#mask0_4279_26282)">
    <path d="M11.9545 39.8539V56.0665L6.92368 58.7999V42.5873L11.9545 39.8539Z" fill="#1F3E4F" stroke="#E0E0E0" stroke-width="0.190128"/>
    <path d="M6.73349 42.3435V58.7985L4.05649 57.318V40.8647L6.73349 42.3435Z" fill="#1D88A3" stroke="#E0E0E0" stroke-width="0.190128"/>
    <path d="M38.3842 25.7292V41.9418L33.3553 44.6751V28.4626L38.3842 25.7292Z" fill="#1F3E4F" stroke="#E0E0E0" stroke-width="0.190128"/>
    <path d="M33.1651 28.219V44.674L30.4862 43.1934V26.7402L33.1651 28.219Z" fill="#1D88A3" stroke="#E0E0E0" stroke-width="0.190128"/>
    <path d="M23.2504 19.846L23.4025 19.6978L23.1652 19.7002C22.0214 19.7118 20.7364 20.0614 19.395 20.778C15.6428 22.7747 12.4753 27.0355 11.3284 31.2082L11.2356 31.5458L11.4864 31.3015L17.1662 25.7686L10.8934 34.7648L10.8763 34.7893V34.8192V35.8572L9.71377 36.4749L9.6935 36.4857L9.68037 36.5046L4.80833 43.4987L1.44033 40.9906C1.45244 35.7247 3.46713 29.8858 6.72412 24.696C9.99072 19.4909 14.5015 14.9474 19.4787 12.295C25.4159 9.13406 30.652 9.39076 33.9077 12.3123L33.9072 12.3128L33.917 12.3196L37.4392 14.7626L36.1879 15.217L36.0896 15.2527L36.1345 15.3472C36.9641 17.0908 37.4274 19.2384 37.4315 21.749L31.3759 29.3663L28.003 26.8545V25.3394C28.003 23.6515 27.5683 22.2941 26.8019 21.3329C26.0344 20.3703 24.9403 19.8126 23.6391 19.7157L23.619 19.7142L23.6 19.721L23.2504 19.846Z" fill="#7ACAD3" stroke="#E0E0E0" stroke-width="0.190128"/>
    <path d="M20.7645 20.9297L22.4921 20.3114L18.4596 24.2394L20.7645 20.9297Z" fill="#7ACAD3" stroke="#E0E0E0" stroke-width="0.190128"/>
    <path d="M22.878 23.3542L22.8779 23.3543C20.5228 24.6118 18.3948 26.759 16.8557 29.2124C15.3168 31.6655 14.3612 34.4336 14.3612 36.9372V38.4316L4.92575 43.4634C4.96565 38.2256 6.97441 32.4308 10.2083 27.2767C13.4747 22.0709 17.9855 17.5275 22.9635 14.8769C27.9425 12.2259 32.4297 11.9779 35.6655 13.6892C38.8869 15.3929 40.898 19.0547 40.9125 24.3013L31.486 29.3221V27.9157C31.486 25.4108 30.5278 23.6301 28.9552 22.7987C27.3853 21.9687 25.2332 22.101 22.878 23.3542Z" fill="#1D88A3" stroke="#E0E0E0" stroke-width="0.190128"/>
    <path d="M22.8783 23.3543L22.8782 23.3543C20.5231 24.6119 18.3951 26.759 16.856 29.2125C15.3171 31.6656 14.3615 34.4336 14.3615 36.9373V38.4392L6.22658 42.7696C6.26645 37.9177 8.12974 32.5463 11.1283 27.7671C14.1594 22.936 18.3451 18.7187 22.9638 16.2592C27.5834 13.7993 31.7455 13.5698 34.7461 15.1566C37.7322 16.7358 39.5979 20.1299 39.6123 24.9953L31.4863 29.3222V27.9157C31.4863 25.4109 30.5281 23.6302 28.9555 22.7988C27.3856 21.9688 25.2336 22.101 22.8783 23.3543Z" fill="#7ACAD3" stroke="#E0E0E0" stroke-width="0.190128"/>
    <path d="M33.5101 18.3867C33.5103 18.3866 33.5106 18.3865 33.5108 18.3863C34.6061 17.8034 35.5775 17.757 36.2686 18.1226C36.957 18.4868 37.3972 19.2762 37.3972 20.4323C37.3972 21.5335 36.9994 22.7513 36.3423 23.8549C35.6855 24.9581 34.774 25.9401 33.7556 26.5725L33.7107 26.6004V26.6133L32.6182 27.1952C32.5786 24.4397 31.5001 22.4823 29.7543 21.5598C27.9781 20.6212 25.5414 20.7701 22.8724 22.1907C20.2026 23.6117 17.7899 26.0441 16.0447 28.8253C14.3115 31.5875 13.2313 34.7024 13.2169 37.5247L12.018 38.1634L12.018 38.1634L11.9895 38.1786C10.8939 38.7619 9.92167 38.8089 9.22999 38.4434C8.54107 38.0794 8.10044 37.2901 8.10044 36.133C8.10044 34.9748 8.54367 33.6832 9.26611 32.5319C9.9881 31.3814 10.9835 30.3799 12.0778 29.7969L12.1603 29.7556L12.226 29.7228L12.2109 29.651C12.1548 29.3845 12.1274 29.1127 12.1292 28.8404V28.8397C12.1292 27.6815 12.572 26.3898 13.294 25.2386C14.0157 24.0877 15.011 23.0859 16.1057 22.503C17.2387 21.9001 18.2398 21.8734 18.9353 22.2806L19.0543 22.3502L19.0771 22.2143C19.4356 20.0823 21.0496 17.7582 22.9789 16.7288C23.8923 16.2431 24.7206 16.1301 25.3704 16.318C26.0167 16.5048 26.5018 16.9934 26.7275 17.7464L26.7851 17.9389L26.8974 17.7723C27.5619 16.7858 28.4469 15.9675 29.4823 15.3822C30.5774 14.7993 31.5493 14.753 32.2407 15.1186C32.9297 15.4828 33.3703 16.2721 33.3703 17.4281C33.3687 17.7317 33.3405 18.0346 33.2863 18.3334L33.2504 18.531L33.426 18.4335L33.5101 18.3867Z" fill="#1D88A3" stroke="#E0E0E0" stroke-width="0.190128"/>
    <path d="M13.4097 37.4227C13.4492 34.6719 14.5087 31.633 16.2074 28.9253C17.9388 26.1657 20.3287 23.7589 22.9634 22.3565C25.599 20.9537 27.9654 20.8274 29.6661 21.7269C31.3526 22.6187 32.4144 24.5353 32.4288 27.2959L31.477 27.8035C31.4376 25.3816 30.4874 23.6582 28.9487 22.8443C27.3795 22.0143 25.2284 22.1466 22.8741 23.3998C20.5189 24.6535 18.3914 26.7989 16.8528 29.2511C15.326 31.6844 14.3737 34.4285 14.3593 36.9162L13.4097 37.4227Z" fill="#FB751D" stroke="#E0E0E0" stroke-width="0.190128"/>
    <path d="M10.0269 39.4405L14.3613 37.1334V38.4504L9.93611 40.8059L9.93604 40.806C9.75305 40.9036 9.60738 40.9029 9.51415 40.8538C9.42423 40.8064 9.35422 40.6982 9.35337 40.513C9.36999 40.2933 9.43984 40.0809 9.55691 39.8942C9.67432 39.707 9.83566 39.5513 10.0269 39.4405Z" fill="#FB751D" stroke="#E0E0E0" stroke-width="0.190128"/>
    <path d="M35.8206 27.0245L31.4862 29.3335V28.0165L35.9114 25.6591L35.9118 25.6589C36.0948 25.5604 36.2403 25.5608 36.3333 25.6099C36.4231 25.6572 36.4933 25.7657 36.4941 25.952C36.4775 26.1718 36.4076 26.3841 36.2906 26.5708C36.1732 26.7581 36.0118 26.9138 35.8206 27.0245Z" fill="#FB751D" stroke="#E0E0E0" stroke-width="0.190128"/>
    <path d="M14.4951 28.5915L13.3425 26.7524L13.8159 26.005L15.2319 28.5645L14.7016 29.4003L11.6022 29.4977L12.0939 28.7222L14.414 28.7371L14.5871 28.7382L14.4951 28.5915Z" fill="white" stroke="#E0E0E0" stroke-width="0.190128"/>
    <path d="M16.8336 25.836L18.2347 24.2584L18.4561 24.5599L16.4254 26.8498L14.8539 24.7043L16.7842 22.5263L17.0035 22.8241L15.6723 24.3256L15.6212 24.3832L15.6669 24.4451L15.9977 24.8938L16.0675 24.9884L16.1454 24.9004L17.1379 23.7792L17.3476 24.0637L16.3264 25.2135L16.2753 25.271L16.3209 25.3329L16.6859 25.8292L16.7556 25.9238L16.8336 25.836Z" fill="white" stroke="#E0E0E0" stroke-width="0.190128"/>
    <path d="M19.4966 23.6604L18.9219 24.1266L18.1181 21.235L19.313 20.2685L19.313 20.2685L19.3148 20.267C19.469 20.1358 19.6407 20.0266 19.825 19.9427L19.825 19.9427L19.8263 19.9421C19.9461 19.8854 20.0776 19.8578 20.2101 19.8618C20.3011 19.8654 20.3879 19.901 20.4551 19.9625C20.5284 20.0377 20.5805 20.131 20.606 20.2329L20.606 20.2329L20.6063 20.234C20.6574 20.4281 20.6574 20.6322 20.6063 20.8263L20.6063 20.8263L20.6058 20.8281C20.5491 21.0619 20.4519 21.284 20.3186 21.4842L20.2626 21.5684L20.3501 21.6191L21.3219 22.1829L20.6508 22.7254L19.7582 22.1345L19.7001 22.096L19.6459 22.1399L19.2257 22.4802L19.1771 22.5195L19.194 22.5797L19.4966 23.6604ZM20.0339 20.8358L20.0339 20.8358L20.0333 20.8335C20.0132 20.7587 19.9807 20.6941 19.9308 20.6455C19.8797 20.5959 19.817 20.5693 19.7484 20.5604L19.7408 20.5594L19.7333 20.5597C19.5749 20.5645 19.4242 20.6289 19.3113 20.7398L18.849 21.1172L18.8006 21.1567L18.8176 21.2168L19.0496 22.0344L19.0896 22.1754L19.2021 22.0813L19.6664 21.6928C19.808 21.5837 19.9199 21.4408 19.9921 21.2773C20.0549 21.1389 20.0696 20.9835 20.0339 20.8358Z" fill="white" stroke="#E0E0E0" stroke-width="0.190128"/>
    <path d="M21.8803 21.9071L21.6712 18.5789L22.2672 18.2198L22.4762 21.5481L21.8803 21.9071Z" fill="white" stroke="#E0E0E0" stroke-width="0.190128"/>
    <path d="M24.1305 18.8296L25.1492 18.4059L25.0964 18.9363L23.9854 19.3975L23.9327 19.4193L23.9272 19.476L23.7901 20.8852L23.2116 21.1257L23.5671 17.4904L25.6743 16.6218L25.621 17.1683L24.1431 17.7833L24.0906 17.8052L24.085 17.8618L23.9994 18.7326L23.9839 18.8907L24.1305 18.8296Z" fill="white" stroke="#E0E0E0" stroke-width="0.190128"/>
    <path d="M25.842 20.1697L26.7677 16.337L27.3121 16.2171L26.3864 20.0498L25.842 20.1697Z" fill="white" stroke="#E0E0E0" stroke-width="0.190128"/>
    <path d="M27.9814 19.2763L29.354 19.2884L29.113 19.9165L27.1104 19.8992L28.6083 15.9858L30.5099 16.003L30.2709 16.6253L28.93 16.6126L28.8639 16.612L28.8403 16.6737L28.5342 17.4742L28.4848 17.6032H28.623H29.5782L29.3503 18.2002H28.3225H28.2572L28.2338 18.2612L27.8935 19.1472L27.8444 19.2751L27.9814 19.2763Z" fill="white" stroke="#E0E0E0" stroke-width="0.190128"/>
    <path d="M29.5766 19.9887L30.4304 20.378L29.5766 19.9887ZM29.5766 19.9887L31.8359 16.2153L32.7092 16.6135L32.7092 16.6135L32.71 16.6139C32.8794 16.6892 33.028 16.8046 33.1429 16.9501C33.2533 17.097 33.3203 17.2719 33.3365 17.455C33.3547 17.695 33.3258 17.9362 33.2514 18.1651L33.2513 18.1656C33.1489 18.4873 33.0066 18.795 32.8277 19.0814L32.8277 19.0814L32.826 19.0843C32.6608 19.3708 32.46 19.6353 32.2283 19.8713L32.2282 19.8714C32.0466 20.057 31.8371 20.2133 31.6075 20.3347C31.4194 20.4319 31.212 20.4861 31.0003 20.4931C30.8041 20.4986 30.6092 20.4592 30.4305 20.3781L29.5766 19.9887ZM32.6517 17.8959C32.6509 18.0479 32.6232 18.1985 32.5699 18.3408C32.5049 18.5197 32.4221 18.6917 32.3228 18.8542L32.6517 17.8959ZM32.6517 17.8959C32.652 17.7715 32.6171 17.6495 32.5509 17.5442L32.6517 17.8959ZM31.6579 19.6955C31.9722 19.5008 32.2299 19.227 32.4052 18.9015C32.5072 18.7344 32.5922 18.5576 32.6591 18.3737C32.7162 18.221 32.7459 18.0594 32.7467 17.8964L32.7467 17.8962C32.7471 17.7538 32.7071 17.6142 32.6314 17.4936L32.6314 17.4936L32.63 17.4915C32.5464 17.3659 32.4276 17.2679 32.2883 17.2098L31.9398 17.0526L31.8625 17.0177L31.8191 17.0905L30.4083 19.4519L30.3537 19.5432L30.4507 19.5872L30.798 19.7447C30.9341 19.8084 31.0838 19.8372 31.2338 19.8287C31.3839 19.8202 31.5296 19.7745 31.6577 19.6956L31.6579 19.6955Z" fill="white" stroke="#E0E0E0" stroke-width="0.190128"/>
  </g>
</svg>
