<svg width="45" height="45" viewBox="0 0 45 45" fill="none" xmlns="http://www.w3.org/2000/svg">
  <circle cx="22.5" cy="22.5" r="22.1691" fill="white" stroke="#E0E0E0" stroke-width="0.661765"/>
  <path d="M36.8607 13.3136H8.80227C8.37652 13.3136 8.02001 13.6924 8.02001 14.1743V30.3142C8.02001 30.7961 8.37652 31.1749 8.80227 31.1749H36.8607C37.2864 31.1749 37.643 30.7961 37.643 30.3142V14.1743C37.643 13.6924 37.2864 13.3136 36.8607 13.3136Z" fill="#22AAD0" stroke="#E0E0E0" stroke-width="0.156461"/>
  <g style="mix-blend-mode:multiply">
    <path d="M21.5636 16.65H10.1204C9.97058 16.65 9.8428 16.7785 9.8428 16.945V18.5342C9.8428 18.7007 9.97058 18.8292 10.1204 18.8292H21.5636C21.7134 18.8292 21.8412 18.7007 21.8412 18.5342V16.945C21.8412 16.7785 21.7134 16.65 21.5636 16.65Z" fill="#9EE2E6"/>
    <path d="M21.5636 16.65H10.1204C9.97058 16.65 9.8428 16.7785 9.8428 16.945V18.5342C9.8428 18.7007 9.97058 18.8292 10.1204 18.8292H21.5636C21.7134 18.8292 21.8412 18.7007 21.8412 18.5342V16.945C21.8412 16.7785 21.7134 16.65 21.5636 16.65Z" stroke="#E0E0E0" stroke-width="0.156461"/>
  </g>
  <path d="M19.6171 19.9869H9.94011C9.90007 19.9869 9.84295 20.0324 9.84295 20.122V21.0301C9.84295 21.1197 9.90007 21.1651 9.94011 21.1651H19.6171C19.6571 21.1651 19.7142 21.1197 19.7142 21.0301V20.122C19.7142 20.0324 19.6571 19.9869 19.6171 19.9869Z" fill="white" stroke="#E0E0E0" stroke-width="0.156461"/>
  <path d="M15.0597 21.9889H9.93936C9.89998 21.9889 9.84292 22.034 9.84292 22.1239V23.032C9.84292 23.1219 9.89998 23.1671 9.93936 23.1671H15.0597C15.0991 23.1671 15.1561 23.1219 15.1561 23.032V22.1239C15.1561 22.034 15.0991 21.9889 15.0597 21.9889Z" fill="white" stroke="#E0E0E0" stroke-width="0.156461"/>
  <path d="M16.8822 26.6603H9.94011C9.90005 26.6603 9.84293 26.7057 9.84293 26.7953V27.7034C9.84293 27.793 9.90005 27.8385 9.94011 27.8385H16.8822C16.9223 27.8385 16.9794 27.793 16.9794 27.7034V26.7953C16.9794 26.7057 16.9223 26.6603 16.8822 26.6603Z" fill="white" stroke="#E0E0E0" stroke-width="0.156461"/>
  <path d="M34.9076 16.65H24.4292C24.2675 16.65 24.125 16.7952 24.125 16.9888V27.1656C24.125 27.3592 24.2675 27.5044 24.4292 27.5044H34.9076C35.0694 27.5044 35.2118 27.3592 35.2118 27.1656V16.9888C35.2118 16.7952 35.0694 16.65 34.9076 16.65Z" fill="#9EE2E6" stroke="#E0E0E0" stroke-width="0.156461"/>
  <path d="M27.7715 19.9087C27.7715 20.9722 28.6217 21.8325 29.6684 21.8325C30.715 21.8325 31.5653 20.9722 31.5653 19.9087C31.5653 18.8453 30.715 17.985 29.6684 17.985C28.6217 17.985 27.7715 18.8453 27.7715 19.9087Z" fill="#E9F8F8" stroke="#E0E0E0" stroke-width="0.156461"/>
  <path d="M26.8598 23.2708V27.5045H32.4769V23.2707C32.4769 23.0167 32.3861 22.7745 32.2266 22.5971C32.0748 22.4283 31.8731 22.3316 31.6629 22.323H31.6321L27.7076 22.323L27.7073 22.323C27.5974 22.3226 27.4883 22.3464 27.3861 22.3931C27.2839 22.4398 27.1904 22.5088 27.1113 22.5965C27.0321 22.6843 26.9689 22.7889 26.9256 22.9047C26.8823 23.0205 26.8599 23.145 26.8598 23.2708Z" fill="#E9F8F8" stroke="#E0E0E0" stroke-width="0.156461"/>
</svg>
