<svg width="12" height="13" viewBox="0 0 12 13" fill="none" xmlns="http://www.w3.org/2000/svg">
<path fill-rule="evenodd" clip-rule="evenodd" d="M6 11.25C8.76 11.25 11 9.005 11 6.25L10.9981 6.11012C10.9239 3.41471 8.71322 1.25 6 1.25C3.245 1.25 1 3.49 1 6.25C1 9.005 3.245 11.25 6 11.25ZM4 5.26C4.15 5.115 4.385 5.115 4.53 5.265L6 6.74L7.47 5.265C7.615 5.115 7.855 5.115 8 5.26C8.15 5.41 8.15 5.645 8 5.79L6.265 7.535C6.195 7.605 6.1 7.645 6 7.645C5.9 7.645 5.805 7.605 5.735 7.535L4 5.79C3.925 5.72 3.89 5.625 3.89 5.53C3.89 5.43 3.925 5.335 4 5.26Z" fill="#1CAED4"/>
</svg>
