<svg width="24" height="25" viewBox="0 0 24 25" fill="none" xmlns="http://www.w3.org/2000/svg">
<path fill-rule="evenodd" clip-rule="evenodd" d="M22 12.5C22 6.98 17.51 2.5 12 2.5L11.7202 2.50384C6.32942 2.65216 2 7.07356 2 12.5C2 18.01 6.48 22.5 12 22.5C17.51 22.5 22 18.01 22 12.5ZM10.02 16.5C9.73 16.2 9.73 15.73 10.03 15.44L12.98 12.5L10.03 9.56C9.73 9.27 9.73 8.79 10.02 8.5C10.32 8.2 10.79 8.2 11.08 8.5L14.57 11.97C14.71 12.11 14.79 12.3 14.79 12.5C14.79 12.7 14.71 12.89 14.57 13.03L11.08 16.5C10.94 16.65 10.75 16.72 10.56 16.72C10.36 16.72 10.17 16.65 10.02 16.5Z" fill="#1CAED4"/>
</svg>
