<svg width="10" height="11" viewBox="0 0 10 11" fill="none" xmlns="http://www.w3.org/2000/svg">
  <path fill-rule="evenodd" clip-rule="evenodd" d="M4.87705 0.25C6.1142 0.25 7.12294 1.25143 7.13641 2.48694L7.246 2.48745C8.627 2.48745 9.75 3.60995 9.75 4.98995V7.74795C9.75 9.12745 8.627 10.2499 7.246 10.2499H2.504C1.1235 10.2499 0 9.12745 0 7.74795V4.98995C0 3.60995 1.1235 2.48745 2.504 2.48745L2.606 2.487L2.60917 2.38976C2.64057 1.82253 2.87418 1.30217 3.27505 0.9055C3.70405 0.48 4.28005 0.2675 4.87705 0.25ZM7.246 3.23745L7.1365 3.237L7.13655 4.028C7.13655 4.235 6.96855 4.403 6.76155 4.403C6.55455 4.403 6.38655 4.235 6.38655 4.028L6.3865 3.237H3.3555L3.35555 4.028C3.35555 4.235 3.18755 4.403 2.98055 4.403C2.77355 4.403 2.60555 4.235 2.60555 4.028L2.6055 3.237L2.504 3.23745C1.537 3.23745 0.75 4.02345 0.75 4.98995V7.74795C0.75 8.71395 1.537 9.49995 2.504 9.49995H7.246C8.213 9.49995 9 8.71395 9 7.74795V4.98995C9 4.02345 8.213 3.23745 7.246 3.23745ZM4.87555 1C4.47005 1.014 4.09005 1.154 3.80305 1.438C3.52021 1.71837 3.36169 2.09004 3.35571 2.48695L6.3855 2.487L6.38398 2.42331C6.33796 1.6309 5.67928 1 4.87555 1Z" fill="#1CAED4"/>
</svg>
