<svg width="14" height="14" viewBox="0 0 14 14" fill="none" xmlns="http://www.w3.org/2000/svg">
  <path opacity="0.3" fill-rule="evenodd" clip-rule="evenodd" d="M6.9998 9.91683C9.57713 9.91683 11.6665 7.82749 11.6665 5.25016C11.6665 2.67283 9.57713 0.583496 6.9998 0.583496C4.42247 0.583496 2.33313 2.67283 2.33313 5.25016C2.33313 7.82749 4.42247 9.91683 6.9998 9.91683Z" fill="#1CAED4"/>
  <path opacity="0.3" fill-rule="evenodd" clip-rule="evenodd" d="M3.81372 5.25L6.16446 11.2948L6.98576 10.9754L7.80159 11.2977L10.1908 5.25H3.81372ZM5.51921 6.41667H8.47547L6.9857 10.1877L5.51921 6.41667Z" fill="#1CAED4"/>
  <path opacity="0.3" d="M5.83313 12.8335H8.16646C8.16646 13.4778 7.64413 14.0002 6.9998 14.0002C6.35546 14.0002 5.83313 13.4778 5.83313 12.8335Z" fill="#1CAED4"/>
  <path fill-rule="evenodd" clip-rule="evenodd" d="M4.66638 9.91683C4.66638 9.59466 4.92755 9.3335 5.24972 9.3335H8.74972C9.07188 9.3335 9.33305 9.59466 9.33305 9.91683C9.33305 10.239 9.07188 10.5002 8.74971 10.5002C9.07188 10.5002 9.33305 10.7613 9.33305 11.0835C9.33305 11.4057 9.07188 11.6668 8.74971 11.6668C9.07188 11.6668 9.33305 11.928 9.33305 12.2502C9.33305 12.5723 9.07188 12.8335 8.74972 12.8335H5.24971C4.92755 12.8335 4.66638 12.5723 4.66638 12.2502C4.66638 11.928 4.92755 11.6668 5.24971 11.6668C4.92755 11.6668 4.66638 11.4057 4.66638 11.0835C4.66638 10.7613 4.92755 10.5002 5.24972 10.5002H5.24971C4.92755 10.5002 4.66638 10.239 4.66638 9.91683Z" fill="#1CAED4"/>
</svg>
