<svg xmlns="http://www.w3.org/2000/svg" width="20" height="19" viewBox="0 0 20 19" fill="none">
  <path fill-rule="evenodd" clip-rule="evenodd" d="M15.6378 4.10975V4.10975C15.2648 4.10975 14.9268 3.89475 14.7678 3.55875C14.4808 2.95075 14.1158 2.17375 13.8998 1.75075C13.5808 1.12175 13.0638 0.75575 12.3478 0.75075C12.3358 0.74975 7.66376 0.74975 7.65176 0.75075C6.93576 0.75575 6.41976 1.12175 6.09976 1.75075C5.88476 2.17375 5.51976 2.95075 5.23276 3.55875C5.07376 3.89475 4.73476 4.10975 4.36276 4.10975V4.10975C2.36676 4.10975 0.749756 5.72675 0.749756 7.72175V13.6578C0.749756 15.6518 2.36676 17.2698 4.36276 17.2698H15.6378C17.6328 17.2698 19.2498 15.6518 19.2498 13.6578V7.72175C19.2498 5.72675 17.6328 4.10975 15.6378 4.10975Z" stroke="#1E3F4F" stroke-width="1.5" stroke-linecap="round" stroke-linejoin="round"/>
  <path fill-rule="evenodd" clip-rule="evenodd" d="M6.82139 10.3343C6.82039 12.0873 8.25139 13.5213 10.0014 13.5203C11.7484 13.5183 13.1754 12.0903 13.1784 10.3413C13.1814 8.58535 11.7554 7.15435 10.0034 7.15235C8.24139 7.15035 6.80739 8.60535 6.82139 10.3343Z" stroke="#1E3F4F" stroke-width="1.5" stroke-linecap="round" stroke-linejoin="round"/>
  <path d="M14.9025 7.99509C14.8059 7.98517 14.7105 7.95996 14.6036 7.91695C14.4847 7.86413 14.3818 7.79695 14.2823 7.69586C14.1035 7.5057 14 7.25703 14 7.00049C14 6.86422 14.0279 6.72916 14.0823 6.60681C14.1368 6.48285 14.2014 6.37829 14.3182 6.26456C14.407 6.18719 14.498 6.12493 14.6224 6.07013C14.9913 5.92396 15.4301 6.0113 15.7043 6.28541C15.7865 6.36639 15.8557 6.46411 15.8941 6.54651L15.9169 6.60494C15.9721 6.72916 16 6.86422 16 7.00049C16 7.26222 15.8978 7.50428 15.7081 7.70577C15.5442 7.87081 15.3289 7.9723 15.0992 7.99509L15 8L14.9025 7.99509Z" fill="#1E3F4F"/>
</svg>
