<svg width="24" height="24" viewBox="0 0 24 24" fill="none" xmlns="http://www.w3.org/2000/svg">
<path fill-rule="evenodd" clip-rule="evenodd" d="M7.40914 21.0796C7.40877 21.0805 7.40823 21.0819 7.40823 21.0853C7.40823 21.0887 7.40877 21.09 7.40903 21.0906C7.40951 21.0917 7.41052 21.0934 7.41231 21.0952C7.41411 21.097 7.41583 21.098 7.41696 21.0985C7.41759 21.0988 7.41887 21.0993 7.42223 21.0993C7.42561 21.0993 7.42705 21.0988 7.42792 21.0984C7.42928 21.0978 7.4312 21.0967 7.43313 21.0948C7.43506 21.0928 7.43608 21.091 7.43653 21.09L7.43654 21.09C7.43677 21.0894 7.43723 21.0883 7.43723 21.0853C7.43723 21.0823 7.43676 21.081 7.43642 21.0802C7.43588 21.0789 7.43471 21.077 7.43265 21.0749C7.43059 21.0728 7.42861 21.0717 7.42732 21.0711C7.42653 21.0708 7.4253 21.0703 7.42223 21.0703C7.41921 21.0703 7.41812 21.0708 7.41757 21.071L7.41756 21.071C7.4165 21.0715 7.41472 21.0725 7.41279 21.0744C7.41087 21.0763 7.40972 21.0783 7.40914 21.0796ZM5.90823 21.0853C5.90823 20.2504 6.58474 19.5703 7.42223 19.5703C8.25845 19.5703 8.93723 20.2491 8.93723 21.0853C8.93723 21.9228 8.25717 22.5993 7.42223 22.5993C6.58602 22.5993 5.90823 21.9215 5.90823 21.0853Z" fill="white"/>
<path fill-rule="evenodd" clip-rule="evenodd" d="M18.6604 21.0802C18.6601 21.081 18.6596 21.0823 18.6596 21.0853C18.6596 21.0883 18.6601 21.0894 18.6603 21.09L18.6603 21.09C18.6608 21.091 18.6618 21.0928 18.6637 21.0948C18.6657 21.0967 18.6676 21.0978 18.669 21.0984C18.6698 21.0988 18.6713 21.0993 18.6746 21.0993C18.678 21.0993 18.6795 21.0988 18.6803 21.0984C18.6817 21.0978 18.6836 21.0967 18.6855 21.0948C18.6875 21.0928 18.6885 21.091 18.6889 21.09L18.6889 21.09C18.6892 21.0894 18.6896 21.0883 18.6896 21.0853C18.6896 21.0823 18.6892 21.081 18.6888 21.0802C18.6883 21.0789 18.6871 21.077 18.6851 21.0749C18.683 21.0728 18.681 21.0717 18.6797 21.0711C18.6789 21.0708 18.6777 21.0703 18.6746 21.0703C18.6716 21.0703 18.6703 21.0708 18.6696 21.0711C18.6683 21.0717 18.6663 21.0728 18.6642 21.0749C18.6622 21.077 18.661 21.0789 18.6604 21.0802ZM17.1596 21.0853C17.1596 20.2491 17.8384 19.5703 18.6746 19.5703C19.5109 19.5703 20.1896 20.2491 20.1896 21.0853C20.1896 21.9228 19.5096 22.5993 18.6746 22.5993C17.8397 22.5993 17.1596 21.9228 17.1596 21.0853Z" fill="white"/>
<path fill-rule="evenodd" clip-rule="evenodd" d="M2.01084 3.62209C2.08148 3.21395 2.46961 2.94035 2.87775 3.01099L4.95775 3.37099C5.29407 3.4292 5.54867 3.70715 5.57722 4.04727L5.81239 6.849H19.9088C21.1828 6.849 22.1605 7.97815 21.9781 9.23935L21.0291 15.7974C20.8466 17.0535 19.771 17.986 18.5018 17.986H7.58985C6.26219 17.986 5.1561 16.9695 5.04548 15.6457L4.13095 4.75019L2.62194 4.48901C2.2138 4.41837 1.94019 4.03024 2.01084 3.62209ZM5.93829 8.349L6.54022 15.5203C6.58577 16.0663 7.04163 16.486 7.58985 16.486H18.5018C19.0247 16.486 19.4691 16.1021 19.5446 15.5823C19.5446 15.5822 19.5446 15.5823 19.5446 15.5823L20.4936 9.02465C20.5452 8.66785 20.2689 8.349 19.9088 8.349H5.93829Z" fill="white"/>
<path fill-rule="evenodd" clip-rule="evenodd" d="M13.3753 11.295C13.3753 10.8808 13.7111 10.545 14.1253 10.545H16.8983C17.3125 10.545 17.6483 10.8808 17.6483 11.295C17.6483 11.7092 17.3125 12.045 16.8983 12.045H14.1253C13.7111 12.045 13.3753 11.7092 13.3753 11.295Z" fill="white"/>
</svg>
