<svg width="18" height="18" viewBox="0 0 18 18" fill="none" xmlns="http://www.w3.org/2000/svg">
<g id="Clock">
<path id="Mask" opacity="0.3" fill-rule="evenodd" clip-rule="evenodd" d="M9 16.5C5.27208 16.5 2.25 13.4779 2.25 9.75C2.25 6.02208 5.27208 3 9 3C12.7279 3 15.75 6.02208 15.75 9.75C15.75 13.4779 12.7279 16.5 9 16.5Z" fill="#BDBDBD"/>
<path id="Path 107" fill-rule="evenodd" clip-rule="evenodd" d="M8.59817 5.97124C8.6132 5.77586 8.77612 5.625 8.97207 5.625H9.03544C9.22809 5.625 9.38941 5.77099 9.40858 5.96269L9.74981 9.375L12.1859 10.767C12.3027 10.8338 12.3748 10.9581 12.3748 11.0926V11.134C12.3748 11.3813 12.1397 11.5609 11.9011 11.4958L8.5488 10.5815C8.37527 10.5342 8.25978 10.3703 8.27358 10.191L8.59817 5.97124Z" fill="#BDBDBD"/>
</g>
</svg>
