<svg width="23" height="23" viewBox="0 0 23 23" fill="none" xmlns="http://www.w3.org/2000/svg">
  <rect opacity="0.8" width="23" height="23" rx="11.5" fill="#333333"/>
  <path fill-rule="evenodd" clip-rule="evenodd" d="M16.5087 6.8456C15.9555 6.29235 15.0585 6.29235 14.5053 6.8456L11.5 9.85083L8.49482 6.84561C7.94157 6.29236 7.04459 6.29236 6.49135 6.84561C5.9381 7.39885 5.93811 8.29583 6.49135 8.84908L9.49657 11.8543L6.49139 14.8595C5.93815 15.4127 5.93815 16.3097 6.49139 16.8629C7.04463 17.4162 7.94162 17.4162 8.49486 16.8629L11.5 13.8578L14.5052 16.863C15.0585 17.4162 15.9554 17.4162 16.5087 16.863C17.0619 16.3097 17.0619 15.4127 16.5087 14.8595L13.5035 11.8543L16.5087 8.84907C17.062 8.29582 17.062 7.39884 16.5087 6.8456Z" fill="#FAFAFA"/>
</svg>
