<svg width="24" height="24" viewBox="0 0 24 24" fill="none" xmlns="http://www.w3.org/2000/svg">
<path fill-rule="evenodd" clip-rule="evenodd" d="M19.0711 5.42856C18.2901 4.64751 17.0237 4.64751 16.2427 5.42856L12 9.67124L7.75735 5.42857C6.9763 4.64753 5.70997 4.64753 4.92893 5.42857C4.14788 6.20962 4.14788 7.47595 4.92893 8.257L9.17159 12.4997L4.92898 16.7423C4.14794 17.5233 4.14794 18.7896 4.92898 19.5707C5.71003 20.3517 6.97636 20.3517 7.75741 19.5707L12 15.3281L16.2426 19.5707C17.0237 20.3518 18.29 20.3518 19.0711 19.5707C19.8521 18.7897 19.8521 17.5233 19.0711 16.7423L14.8284 12.4997L19.0711 8.25699C19.8522 7.47594 19.8522 6.20961 19.0711 5.42856Z" fill="#BDBDBD"/>
</svg>
