<svg width="24" height="25" viewBox="0 0 24 25" fill="none" xmlns="http://www.w3.org/2000/svg">
<path fill-rule="evenodd" clip-rule="evenodd" d="M10.4646 8.46165C10.4846 8.20115 10.7018 8 10.9631 8H11.0476C11.3044 8 11.5195 8.19465 11.5451 8.45025L12.0001 13L15.2481 14.856C15.4039 14.9451 15.5001 15.1107 15.5001 15.2902V15.3454C15.5001 15.6751 15.1866 15.9145 14.8685 15.8278L10.3987 14.6087C10.1673 14.5456 10.0134 14.3271 10.0318 14.088L10.4646 8.46165Z" fill="#343434"/>
<path opacity="0.3" fill-rule="evenodd" clip-rule="evenodd" d="M6.20102 1.91818C5.93691 1.60343 5.42697 1.7239 5.33164 2.12357L4.20314 6.8547C4.12546 7.18035 4.38353 7.48885 4.71778 7.46991L9.58475 7.1941C9.99566 7.17082 10.204 6.68879 9.93948 6.37351L8.74872 4.95442C9.62236 4.65588 10.5488 4.49995 11.5 4.49995C16.1944 4.49995 20 8.30553 20 13C20 17.6944 16.1944 21.5 11.5 21.5C6.80558 21.5 3 17.6944 3 13C3 12.2119 3.10672 11.44 3.31481 10.6982L1.38913 10.158C1.13559 11.0619 1 12.0151 1 13C1 18.7989 5.70101 23.5 11.5 23.5C17.299 23.5 22 18.7989 22 13C22 7.20096 17.299 2.49995 11.5 2.49995C10.0413 2.49995 8.65217 2.79739 7.3898 3.33491L6.20102 1.91818Z" fill="#343434"/>
</svg>
