<svg xmlns="http://www.w3.org/2000/svg" width="20" height="20" viewBox="0 0 20 20" fill="none">
  <path fill-rule="evenodd" clip-rule="evenodd" d="M14.303 0.75H5.654C2.639 0.75 0.75 2.884 0.75 5.904V14.053C0.75 17.073 2.631 19.207 5.654 19.207H14.302C17.326 19.207 19.207 17.073 19.207 14.053V5.904C19.207 2.884 17.326 0.75 14.303 0.75Z" stroke="#BDBDBD" stroke-width="1.5" stroke-linecap="round" stroke-linejoin="round"/>
  <path fill-rule="evenodd" clip-rule="evenodd" d="M8.70272 6.78545C8.70272 7.80445 7.87572 8.63145 6.85672 8.63145C5.83872 8.63145 5.01172 7.80445 5.01172 6.78545C5.01172 5.76645 5.83872 4.93945 6.85672 4.93945C7.87572 4.93945 8.70272 5.76645 8.70272 6.78545Z" stroke="#BDBDBD" stroke-width="1.5" stroke-linecap="round" stroke-linejoin="round"/>
  <path d="M19.206 12.95C18.212 12.085 17.347 11.044 16.207 10.357C15.065 9.67005 13.838 10.094 13.046 11.119C12.281 12.11 11.803 13.443 10.648 14.068C9.22502 14.839 8.38902 13.596 7.20202 13.098C5.87702 12.543 4.87102 13.541 4.09702 14.5C3.32202 15.46 2.53702 16.41 1.74902 17.36" stroke="#BDBDBD" stroke-width="1.5" stroke-linecap="round" stroke-linejoin="round"/>
</svg>
