<svg xmlns="http://www.w3.org/2000/svg" width="20" height="20" viewBox="0 0 20 20" fill="none">
  <path fill-rule="evenodd" clip-rule="evenodd" d="M14.3034 0.75H5.65437C2.63937 0.75 0.750366 2.884 0.750366 5.904V14.053C0.750366 17.073 2.63137 19.207 5.65437 19.207H14.3024C17.3264 19.207 19.2074 17.073 19.2074 14.053V5.904C19.2074 2.884 17.3264 0.75 14.3034 0.75Z" stroke="#1E3F4F" stroke-width="1.5" stroke-linecap="round" stroke-linejoin="round"/>
  <path fill-rule="evenodd" clip-rule="evenodd" d="M8.70321 6.78545C8.70321 7.80445 7.87621 8.63145 6.85721 8.63145C5.83921 8.63145 5.01221 7.80445 5.01221 6.78545C5.01221 5.76645 5.83921 4.93945 6.85721 4.93945C7.87621 4.93945 8.70321 5.76645 8.70321 6.78545Z" stroke="#1E3F4F" stroke-width="1.5" stroke-linecap="round" stroke-linejoin="round"/>
  <path d="M19.2066 12.95C18.2126 12.085 17.3476 11.044 16.2076 10.357C15.0656 9.67005 13.8386 10.094 13.0466 11.119C12.2816 12.11 11.8036 13.443 10.6486 14.068C9.22563 14.839 8.38963 13.596 7.20263 13.098C5.87763 12.543 4.87163 13.541 4.09763 14.5C3.32263 15.46 2.53763 16.41 1.74963 17.36" stroke="#1E3F4F" stroke-width="1.5" stroke-linecap="round" stroke-linejoin="round"/>
</svg>
