<svg width="23" height="24" viewBox="0 0 23 24" fill="none" xmlns="http://www.w3.org/2000/svg">
<path opacity="0.3" d="M1.91675 12.9666C1.91675 12.4875 2.39591 12.0083 2.87508 12.0083C3.35425 12.0083 3.83341 12.4875 3.83341 12.9666C3.83341 13.4458 3.83341 17.7583 3.83341 17.7583C3.83341 18.8168 4.69154 19.675 5.75008 19.675H17.2501C18.3086 19.675 19.1667 18.8168 19.1667 17.7583V12.9666C19.1667 12.4374 19.5958 12.0083 20.1251 12.0083C20.6544 12.0083 21.0834 12.4374 21.0834 12.9666V17.7583C21.0834 19.8754 19.3672 21.5916 17.2501 21.5916H5.75008C3.63299 21.5916 1.91675 19.8754 1.91675 17.7583C1.91675 17.7583 1.91675 13.4458 1.91675 12.9666Z" fill="white"/>
<rect opacity="0.3" x="12.4583" y="14.8833" width="1.91667" height="13.4167" rx="0.958333" transform="rotate(-180 12.4583 14.8833)" fill="white"/>
<path d="M15.614 9.41415C15.9883 9.0399 16.5951 9.0399 16.9693 9.41415C17.3436 9.7884 17.3436 10.3952 16.9693 10.7694L12.1776 15.5611C11.8172 15.9215 11.2378 15.9368 10.8589 15.5958L6.06724 11.2833C5.67384 10.9292 5.64194 10.3233 5.99601 9.92987C6.35007 9.53647 6.95602 9.50457 7.34942 9.85864L11.4653 13.5629L15.614 9.41415Z" fill="white"/>
</svg>
