<svg width="24" height="24" viewBox="0 0 24 24" fill="none" xmlns="http://www.w3.org/2000/svg">
<g id="Group">
<g id="Group_2">
<path id="Vector" d="M20.486 3.51458C15.7996 -1.17126 8.20134 -1.17179 3.51445 3.51458C-1.17191 8.20094 -1.17139 15.7992 3.51445 20.4861C8.20082 25.1714 15.7991 25.1719 20.486 20.4861C25.1718 15.7992 25.1713 8.20146 20.486 3.51458ZM13.5649 17.2178C13.5649 18.0824 12.8642 18.7831 11.9997 18.7831C11.1351 18.7831 10.4344 18.0824 10.4344 17.2178V10.9568C10.4344 10.0923 11.1351 9.39157 11.9997 9.39157C12.8642 9.39157 13.5649 10.0923 13.5649 10.9568V17.2178ZM11.972 8.28129C11.0704 8.28129 10.4694 7.64267 10.4882 6.8543C10.4694 6.02785 11.0704 5.40853 11.9903 5.40853C12.9107 5.40853 13.4929 6.02837 13.5122 6.8543C13.5117 7.64267 12.9112 8.28129 11.972 8.28129Z" fill="#1CAED4"/>
</g>
</g>
</svg>
