<svg width="12" height="12" viewBox="0 0 12 12" fill="none" xmlns="http://www.w3.org/2000/svg">
<g clip-path="url(#clip0_2761_15318)">
<path d="M9.78152 1.92593C7.54388 -0.31145 3.91589 -0.311699 1.67801 1.92593C-0.559624 4.16357 -0.559374 7.79156 1.67801 10.0294C3.91564 12.2666 7.54364 12.2668 9.78152 10.0294C12.0189 7.79156 12.0187 4.16382 9.78152 1.92593ZM6.47689 8.46893C6.47689 8.88173 6.14231 9.2163 5.72951 9.2163C5.31672 9.2163 4.98214 8.88173 4.98214 8.46893V5.47944C4.98214 5.06664 5.31672 4.73207 5.72951 4.73207C6.14231 4.73207 6.47689 5.06664 6.47689 5.47944V8.46893ZM5.71631 4.20193C5.28582 4.20193 4.99883 3.897 5.0078 3.52058C4.99883 3.12596 5.28582 2.83025 5.72503 2.83025C6.16449 2.83025 6.44251 3.12621 6.45173 3.52058C6.45148 3.897 6.16473 4.20193 5.71631 4.20193Z" fill="#1CAED4"/>
</g>
<defs>
<clipPath id="clip0_2761_15318">
<rect width="11.4595" height="11.4595" fill="white" transform="translate(0 0.247803)"/>
</clipPath>
</defs>
</svg>
