<svg width="13" height="13" viewBox="0 0 13 13" fill="none" xmlns="http://www.w3.org/2000/svg">
<path fill-rule="evenodd" clip-rule="evenodd" d="M6.50124 1.37502C7.74954 1.37545 8.76144 2.38774 8.76144 3.63652V5.15252C8.76144 5.35962 8.59354 5.52752 8.38644 5.52752C8.17933 5.52752 8.01144 5.35962 8.01144 5.15252V3.63652C8.01144 2.80156 7.33477 2.12502 6.50044 2.12502H6.49882C5.664 2.12141 4.98445 2.79451 4.98044 3.62887V5.15252C4.98044 5.35962 4.81255 5.52752 4.60544 5.52752C4.39833 5.52752 4.23044 5.35962 4.23044 5.15252V3.6264C4.23583 2.37738 5.25269 1.37007 6.50124 1.37502Z" fill="#1CAED4"/>
<path fill-rule="evenodd" clip-rule="evenodd" d="M4.12889 4.36218C3.15975 4.36218 2.375 5.14699 2.375 6.11468V8.87268C2.375 9.84038 3.15975 10.6252 4.12889 10.6252H8.87111C9.84025 10.6252 10.625 9.84038 10.625 8.87268V6.11468C10.625 5.14699 9.84025 4.36218 8.87111 4.36218H4.12889ZM1.625 6.11468C1.625 4.73238 2.74594 3.61218 4.12889 3.61218H8.87111C10.2541 3.61218 11.375 4.73238 11.375 6.11468V8.87268C11.375 10.255 10.2541 11.3752 8.87111 11.3752H4.12889C2.74594 11.3752 1.625 10.255 1.625 8.87268V6.11468Z" fill="#1CAED4"/>
</svg>
