<svg width="18" height="18" viewBox="0 0 18 18" fill="none" xmlns="http://www.w3.org/2000/svg">
<g id="icon">
<path id="Combined Shape" opacity="0.3" fill-rule="evenodd" clip-rule="evenodd" d="M3.16613 10.591C2.58034 11.1767 2.58034 12.1265 3.16613 12.7123L5.28745 14.8336C5.87324 15.4194 6.82298 15.4194 7.40877 14.8336L9.53009 12.7123C10.1159 12.1265 10.1159 11.1767 9.53009 10.591L8.99986 10.0607L7.40898 11.6516C7.11609 11.9445 6.64122 11.9445 6.34832 11.6516C6.05543 11.3587 6.05543 10.8838 6.34832 10.5909L7.9392 9.00007L7.40877 8.46963C6.82298 7.88384 5.87324 7.88384 5.28745 8.46963L3.16613 10.591Z" fill="#BDBDBD"/>
<path id="Combined Shape Copy" fill-rule="evenodd" clip-rule="evenodd" d="M8.46984 5.28773C7.88405 5.87351 7.88405 6.82326 8.46984 7.40905L9.00026 7.93947L10.5913 6.3484C10.8842 6.0555 11.3591 6.0555 11.652 6.3484C11.9449 6.64129 11.9449 7.11616 11.652 7.40906L10.0609 9.00013L10.5912 9.53037C11.1769 10.1162 12.1267 10.1162 12.7125 9.53037L14.8338 7.40905C15.4196 6.82326 15.4196 5.87352 14.8338 5.28773L12.7125 3.16641C12.1267 2.58062 11.1769 2.58062 10.5912 3.16641L8.46984 5.28773Z" fill="#BDBDBD"/>
</g>
</svg>
