<svg width="24" height="25" viewBox="0 0 24 25" fill="none" xmlns="http://www.w3.org/2000/svg">
<path fill-rule="evenodd" clip-rule="evenodd" d="M3 11.3178C3 6.71789 6.84388 3 11.4934 3C16.1561 3 20 6.71789 20 11.3178C20 13.6357 19.157 15.7876 17.7695 17.6116C16.2388 19.6235 14.3522 21.3765 12.2285 22.7524C11.7425 23.0704 11.3039 23.0944 10.7704 22.7524C8.63474 21.3765 6.74809 19.6235 5.2305 17.6116C3.84198 15.7876 3 13.6357 3 11.3178ZM8.69429 11.5767C8.69429 13.1177 9.95172 14.3297 11.4935 14.3297C13.0363 14.3297 14.3058 13.1177 14.3058 11.5767C14.3058 10.0478 13.0363 8.77683 11.4935 8.77683C9.95172 8.77683 8.69429 10.0478 8.69429 11.5767Z" fill="#1CAED4"/>
</svg>
