<svg width="24" height="24" viewBox="0 0 24 24" fill="none" xmlns="http://www.w3.org/2000/svg">
<path fill-rule="evenodd" clip-rule="evenodd" d="M3 10.8178C3 6.21789 6.84388 2.5 11.4934 2.5C16.1561 2.5 20 6.21789 20 10.8178C20 13.1357 19.157 15.2876 17.7695 17.1116C16.2388 19.1235 14.3522 20.8765 12.2285 22.2524C11.7425 22.5704 11.3039 22.5944 10.7704 22.2524C8.63474 20.8765 6.74809 19.1235 5.2305 17.1116C3.84198 15.2876 3 13.1357 3 10.8178ZM8.69429 11.0767C8.69429 12.6177 9.95172 13.8297 11.4935 13.8297C13.0363 13.8297 14.3058 12.6177 14.3058 11.0767C14.3058 9.54779 13.0363 8.27683 11.4935 8.27683C9.95172 8.27683 8.69429 9.54779 8.69429 11.0767Z" fill="#FF751D"/>
</svg>
