<svg width="18" height="20" viewBox="0 0 18 20" fill="none" xmlns="http://www.w3.org/2000/svg">
  <path opacity="0.3" fill-rule="evenodd" clip-rule="evenodd" d="M17.4061 4.23604C17.7673 4.39654 18 4.75467 18 5.14985V13.9116C18 14.2747 17.8031 14.6094 17.4856 14.7857L9.48564 19.2302C9.18362 19.398 8.81638 19.398 8.51436 19.2302L0.514357 14.7857C0.196892 14.6094 0 14.2747 0 13.9116L0 5.14985C0 4.75467 0.232734 4.39654 0.593862 4.23604L8.59386 0.680488C8.85243 0.56557 9.14757 0.56557 9.40614 0.680488L17.4061 4.23604Z" fill="#1CAED4"/>
  <path fill-rule="evenodd" clip-rule="evenodd" d="M11.9672 1.72443L4.6001 5.81729V10.4057L6.6001 11.4057V6.9941L14.2552 2.74128L11.9672 1.72443Z" fill="#1CAED4"/>
</svg>
