<svg width="14" height="17" viewBox="0 0 14 17" fill="none" xmlns="http://www.w3.org/2000/svg">
  <path fill-rule="evenodd" clip-rule="evenodd" d="M0 7.23328C0 3.5534 3.07509 0.579102 6.79473 0.579102C10.5249 0.579102 13.5999 3.5534 13.5999 7.23328C13.5999 9.08762 12.9256 10.8092 11.8156 12.2683C10.591 13.8779 9.08169 15.2802 7.38281 16.381C6.99398 16.6354 6.64307 16.6546 6.21634 16.381C4.50777 15.2802 2.99846 13.8779 1.78439 12.2683C0.673584 10.8092 0 9.08762 0 7.23328ZM4.55537 7.44077C4.55537 8.67353 5.56131 9.6431 6.79473 9.6431C8.02896 9.6431 9.04458 8.67353 9.04458 7.44077C9.04458 6.21761 8.02896 5.20085 6.79473 5.20085C5.56131 5.20085 4.55537 6.21761 4.55537 7.44077Z" fill="#1CAED4"/>
  <circle cx="6.72015" cy="7.21893" r="4.79998" fill="#1E3F4F"/>
  <path d="M6.3127 5.69553C6.3127 5.59369 6.353 5.49601 6.42473 5.424C6.49647 5.35198 6.59376 5.31152 6.69521 5.31152C6.79665 5.31152 6.89394 5.35198 6.96568 5.424C7.03741 5.49601 7.07771 5.59369 7.07771 5.69553V8.4166C7.07771 8.51844 7.03741 8.61612 6.96568 8.68814C6.89394 8.76015 6.79665 8.80061 6.69521 8.80061C6.59376 8.80061 6.49647 8.76015 6.42473 8.68814C6.353 8.61612 6.3127 8.51844 6.3127 8.4166V5.69553Z" fill="white"/>
  <path d="M8.36457 9.11732C8.28741 9.11712 8.21217 9.09317 8.14899 9.0487C8.10839 9.02006 8.07389 8.98359 8.0475 8.94141C8.0211 8.89924 8.00335 8.8522 7.99527 8.80305C7.98719 8.75391 7.98895 8.70364 8.00045 8.65518C8.01195 8.60673 8.03296 8.56106 8.06224 8.52085L9.50815 6.48335C9.56724 6.40268 9.65583 6.34888 9.75443 6.33378C9.85303 6.31868 9.95357 6.34353 10.0339 6.40285C10.1143 6.46218 10.1679 6.55111 10.1829 6.65011C10.1979 6.7491 10.1732 6.85003 10.1141 6.9307L8.66821 8.96688C8.63306 9.01429 8.58721 9.05264 8.53442 9.07879C8.48164 9.10495 8.42342 9.11815 8.36457 9.11732Z" fill="white"/>
  <path d="M5.30451 9.15295C5.25222 9.15285 5.20053 9.14176 5.15276 9.1204C5.10499 9.09904 5.06221 9.06787 5.02716 9.0289L3.34466 7.14712C3.28083 7.07291 3.24852 6.97655 3.25464 6.8787C3.26076 6.78085 3.30484 6.6893 3.37741 6.62369C3.44998 6.55809 3.54527 6.52364 3.64285 6.52775C3.74042 6.53186 3.83251 6.57419 3.89936 6.64566L5.57923 8.52745C5.64504 8.60124 5.67908 8.69818 5.67391 8.79709C5.66874 8.896 5.62478 8.98883 5.55163 9.0553C5.48417 9.11748 5.3961 9.15228 5.30451 9.15295Z" fill="white"/>
</svg>
