<svg width="16" height="16" viewBox="0 0 16 16" fill="none" xmlns="http://www.w3.org/2000/svg">
<path fill-rule="evenodd" clip-rule="evenodd" d="M7.99237 2.16675C4.95902 2.16675 2.5 4.62577 2.5 7.65912C2.5 10.6925 4.95902 13.1515 7.99237 13.1515C11.0257 13.1515 13.4847 10.6925 13.4847 7.65912C13.4847 4.62577 11.0257 2.16675 7.99237 2.16675ZM1.5 7.65912C1.5 4.07348 4.40673 1.16675 7.99237 1.16675C11.578 1.16675 14.4847 4.07348 14.4847 7.65912C14.4847 11.2448 11.578 14.1515 7.99237 14.1515C4.40673 14.1515 1.5 11.2448 1.5 7.65912Z" fill="#BDBDBD"/>
<path fill-rule="evenodd" clip-rule="evenodd" d="M11.8062 11.7851C12.0012 11.5896 12.3178 11.5892 12.5133 11.7842L14.8626 14.1274C15.0581 14.3224 15.0586 14.639 14.8636 14.8345C14.6685 15.03 14.352 15.0305 14.1564 14.8354L11.8071 12.4922C11.6116 12.2972 11.6112 11.9806 11.8062 11.7851Z" fill="#BDBDBD"/>
</svg>
