<svg width="25" height="25" viewBox="0 0 25 25" fill="none" xmlns="http://www.w3.org/2000/svg">
  <path d="M11.5858 16.5358L10.1716 15.1216L12.6464 12.6467C13.2322 12.0609 13.2322 11.1111 12.6464 10.5254C12.0606 9.93957 11.1109 9.93957 10.5251 10.5254L6.98958 14.0609C5.62275 15.4277 5.62275 17.6438 6.98958 19.0106C8.35642 20.3775 10.5725 20.3775 11.9393 19.0106L19.0104 11.9396C20.3772 10.5727 20.3772 8.35666 19.0104 6.98982L18.6568 6.63627C17.4853 5.4647 15.5858 5.4647 14.4142 6.63627L13 5.22206C14.9526 3.26944 18.1184 3.26944 20.0711 5.22206L20.4246 5.57561C22.5725 7.72349 22.5725 11.2059 20.4246 13.3538L13.3535 20.4249C11.2057 22.5727 7.72325 22.5727 5.57537 20.4249C3.42748 18.277 3.42748 14.7946 5.57537 12.6467L9.1109 9.11114C10.4777 7.74431 12.6938 7.74431 14.0606 9.11114C15.4275 10.478 15.4275 12.6941 14.0606 14.0609L11.5858 16.5358Z" fill="#1E3F4F"/>
</svg>
