<svg width="11" height="12" viewBox="0 0 11 12" fill="none" xmlns="http://www.w3.org/2000/svg">
  <path opacity="0.3" fill-rule="evenodd" clip-rule="evenodd" d="M10.4036 2.63769C10.6142 2.73131 10.75 2.94022 10.75 3.17074V8.28175C10.75 8.4936 10.6351 8.68879 10.45 8.79167L5.78329 11.3843C5.60711 11.4821 5.39289 11.4821 5.21671 11.3843L0.550042 8.79167C0.364854 8.68879 0.25 8.4936 0.25 8.28175L0.25 3.17074C0.25 2.94022 0.385761 2.73131 0.596419 2.63769L5.26309 0.563613C5.41392 0.496577 5.58608 0.496577 5.73691 0.563613L10.4036 2.63769Z" fill="#1CAED4"/>
  <path fill-rule="evenodd" clip-rule="evenodd" d="M7.23085 1.17258L2.93335 3.56008V6.23665L4.10002 6.81998V4.24655L8.56547 1.76574L7.23085 1.17258Z" fill="#1CAED4"/>
</svg>
