<svg width="19" height="20" viewBox="0 0 19 20" fill="none" xmlns="http://www.w3.org/2000/svg">
  <path d="M7.49995 18.0153C6.6571 18.2457 5.7623 17.9022 5.29005 17.167L4.4321 15.8315C4.2579 15.5603 4.02073 15.3353 3.74081 15.1755L2.36219 14.3886C1.60335 13.9555 1.2135 13.0799 1.39939 12.2261L1.73711 10.6751C1.80568 10.3602 1.79712 10.0333 1.71216 9.72241L1.29373 8.19118C1.06342 7.34832 1.4069 6.45352 2.14204 5.98127L3.47758 5.12333C3.74876 4.94912 3.97382 4.71196 4.1336 4.43203L4.92047 3.05341C5.3536 2.29457 6.2292 1.90473 7.08295 2.09062L8.63398 2.42833C8.94892 2.4969 9.27576 2.48834 9.58667 2.40338L11.1179 1.98496C11.9608 1.75464 12.8556 2.09812 13.3278 2.83326L14.1858 4.16881C14.36 4.43999 14.5971 4.66505 14.877 4.82482L16.2557 5.61169C17.0145 6.04482 17.4044 6.92042 17.2185 7.77417L16.8808 9.3252C16.8122 9.64014 16.8207 9.96698 16.9057 10.2779L17.3241 11.8091C17.5544 12.652 17.211 13.5468 16.4758 14.019L15.1403 14.877C14.8691 15.0512 14.644 15.2883 14.4843 15.5683L13.6974 16.9469C13.2643 17.7057 12.3887 18.0956 11.5349 17.9097L9.98388 17.572C9.66894 17.5034 9.3421 17.512 9.03118 17.5969L7.49995 18.0153Z" fill="#1CAED4"/>
  <path d="M8.06014 12.1015C8.20215 12.2395 8.39356 12.3175 8.59525 12.3175C8.79592 12.3175 8.98835 12.2395 9.13036 12.1015L13.0634 8.27963C13.3588 7.99264 13.3588 7.52665 13.0634 7.23966C12.7681 6.95267 12.2885 6.95267 11.9932 7.23966L8.59525 10.5406L7.22043 9.20561C6.92509 8.91762 6.44658 8.91762 6.15022 9.20561C5.85488 9.4936 5.85488 9.95759 6.15022 10.2456L8.06014 12.1015Z" fill="white"/>
</svg>
