<svg width="16" height="17" viewBox="0 0 16 17" fill="none" xmlns="http://www.w3.org/2000/svg">
  <path fill-rule="evenodd" clip-rule="evenodd" d="M15.0711 1.42856C14.2901 0.647511 13.0237 0.647511 12.2427 1.42856L8.00001 5.67124L3.75735 1.42857C2.9763 0.647525 1.70997 0.647525 0.928926 1.42857C0.147877 2.20962 0.147878 3.47595 0.928926 4.257L5.17159 8.49966L0.928984 12.7423C0.147935 13.5233 0.147935 14.7896 0.928984 15.5707C1.71003 16.3517 2.97636 16.3517 3.75741 15.5707L8.00001 11.3281L12.2426 15.5707C13.0237 16.3518 14.29 16.3518 15.0711 15.5707C15.8521 14.7897 15.8521 13.5233 15.0711 12.7423L10.8284 8.49966L15.0711 4.25699C15.8522 3.47594 15.8522 2.20961 15.0711 1.42856Z" fill="#BDBDBD"/>
</svg>
