<svg width="14" height="16" viewBox="0 0 14 16" fill="none" xmlns="http://www.w3.org/2000/svg">
  <path fill-rule="evenodd" clip-rule="evenodd" d="M13.9767 2.41822C13.9767 3.57416 13.0397 4.51124 11.8837 4.51124C10.7278 4.51124 9.7907 3.57416 9.7907 2.41822C9.7907 1.26227 10.7278 0.325195 11.8837 0.325195C13.0397 0.325195 13.9767 1.26227 13.9767 2.41822ZM4.81267 7.27726L9.78321 4.25534C9.46822 3.89553 9.24418 3.45407 9.14701 2.96685L4.03861 5.9763C4.40577 6.32528 4.67802 6.77317 4.81267 7.27726ZM4.81086 8.72819C4.68284 9.20265 4.43284 9.62705 4.09658 9.96568L9.1791 12.8903C9.29845 12.4214 9.53656 11.9998 9.85953 11.6596L4.81086 8.72819ZM11.8837 15.674C13.0397 15.674 13.9767 14.737 13.9767 13.581C13.9767 12.4251 13.0397 11.488 11.8837 11.488C10.7278 11.488 9.7907 12.4251 9.7907 13.581C9.7907 14.737 10.7278 15.674 11.8837 15.674ZM4.2093 7.99961C4.2093 9.15556 3.27222 10.0926 2.11628 10.0926C0.960333 10.0926 0.0232544 9.15556 0.0232544 7.99961C0.0232544 6.84367 0.960333 5.90659 2.11628 5.90659C3.27222 5.90659 4.2093 6.84367 4.2093 7.99961Z" fill="white"/>
</svg>
