<svg xmlns="http://www.w3.org/2000/svg" width="22" height="21" viewBox="0 0 22 21" fill="none">
  <g clip-path="url(#clip0_12737_267629)">
    <rect x="0.839844" y="0.112427" width="20.7751" height="20.7751" rx="4.61669" fill="#FFDBE2"/>
    <path d="M17.7198 0.112427H4.73496C2.58375 0.112427 0.839844 1.85633 0.839844 4.00755V16.9924C0.839844 19.1437 2.58375 20.8876 4.73496 20.8876H17.7198C19.8711 20.8876 21.615 19.1437 21.615 16.9924V4.00755C21.615 1.85633 19.8711 0.112427 17.7198 0.112427Z" fill="#E4F4D2"/>
    <path d="M19.1531 13.0942L21.9873 1.44189L10.0964 3.43225L12.408 5.89749L0.103922 17.0586L4.54205 21.7935L16.8461 10.6336L19.1531 13.0942Z" fill="#7ACF23"/>
    <path d="M13.4793 27.2279L15.9785 28.5849V20.7203L13.4793 19.3633V27.2279Z" fill="#1F3E4F"/>
    <path d="M15.9786 28.5848L17.3511 27.8267V19.8456L15.9786 20.6046V28.5848Z" fill="#1D88A3"/>
    <path d="M0.827329 20.4654L3.32568 21.8233V13.9596L0.827329 12.6017V20.4654Z" fill="#1F3E4F"/>
    <path d="M3.32581 21.8233L4.69922 21.0651V13.085L3.32581 13.8431V21.8233Z" fill="#1D88A3"/>
    <path d="M1.22699 7.44023L2.98538 6.22063C4.56357 4.80444 7.09289 4.68793 9.94438 6.20606C14.7263 8.75447 18.6035 14.9307 18.6035 20.0057L16.9352 21.2481L14.5761 17.8614L13.9954 17.5529V17.0286L10.7189 12.3295L13.7806 15.3121C13.2346 13.3252 11.7255 11.2965 9.94165 10.3472C9.30455 10.0068 8.69656 9.8421 8.15775 9.83664L8.29883 9.97407L7.93477 9.84393C6.71244 9.93494 5.88785 10.8897 5.88785 12.4906V13.2388L4.21954 14.4811L1.28341 10.7878C1.28341 9.57361 1.5064 8.53331 1.90869 7.68778L1.22699 7.44023Z" fill="#7ACAD3"/>
    <path d="M10.7207 12.3295L8.2988 9.97131L9.33637 10.3417L10.7207 12.3295Z" fill="#7ACAD3"/>
    <path d="M12.327 18.0426C12.327 15.6671 10.5121 12.7755 8.27409 11.5805C6.03513 10.3891 4.22029 11.3484 4.22029 13.7239V14.473L-0.383217 12.021C-0.383217 6.94605 3.49309 4.89549 8.27592 7.44208C13.0587 9.98867 16.9351 16.1668 16.9351 21.2426L12.327 18.7852V18.0426Z" fill="#1D88A3"/>
    <path d="M12.327 18.0426C12.327 15.6671 10.5121 12.7755 8.27407 11.5805C6.03511 10.3891 4.22027 11.3484 4.22027 13.7239V14.473L0.239288 12.3532C0.239288 7.64322 3.83711 5.74011 8.27589 8.10376C12.7147 10.4674 16.3125 16.2041 16.3125 20.9104L12.327 18.7889V18.0426Z" fill="#7ACAD3"/>
    <path d="M1.29958 10.1416C1.29958 9.01213 2.16239 8.55524 3.22726 9.12226L3.26822 9.14501C3.24177 8.99934 3.22807 8.85164 3.22726 8.70359C3.22726 7.5741 4.09099 7.1172 5.15586 7.68422C5.65789 7.96791 6.08698 8.36459 6.40914 8.84285C6.63303 8.09562 7.38026 7.85625 8.26856 8.32861C9.2051 8.82828 9.98601 9.95322 10.1598 10.9872C10.5112 10.7815 11.0081 10.7997 11.5588 11.0927C12.6236 11.6598 13.4864 13.0359 13.4864 14.1663C13.4873 14.2999 13.4739 14.4333 13.4464 14.564L13.4864 14.5841C14.5513 15.1511 15.415 16.5272 15.415 17.6576C15.415 18.788 14.5513 19.244 13.4864 18.677L13.4728 18.6697L12.8748 18.3512C12.8748 15.6562 10.8161 12.3751 8.27676 11.0236C5.73745 9.67199 3.67778 10.7596 3.67778 13.4546L3.06434 13.1278V13.1196C2.07501 12.5053 1.29958 11.2165 1.29958 10.1416Z" fill="#1D88A3"/>
    <path d="M8.27596 11.6024C6.0379 10.411 4.22398 11.3703 4.22398 13.7458L3.67789 13.4545C3.67789 10.7596 5.73664 9.67102 8.27596 11.0226C10.8153 12.3742 12.874 15.6562 12.874 18.3511L12.3279 18.0598C12.3279 15.6853 10.514 12.7937 8.27596 11.6024Z" fill="#FB751D"/>
    <path d="M12.3271 18.7944L14.4696 19.9348C14.6607 20.0367 14.8154 19.9548 14.8154 19.7528C14.8072 19.6396 14.7713 19.5302 14.711 19.434C14.6508 19.3379 14.5679 19.2579 14.4696 19.2012L12.3271 18.0608V18.7944Z" fill="#FB751D"/>
    <path d="M4.22021 14.4784L2.07772 13.3371C1.97945 13.2804 1.89656 13.2004 1.83628 13.1043C1.77599 13.0081 1.74015 12.8987 1.73189 12.7855C1.73189 12.5826 1.88659 12.5007 2.07772 12.6035L4.22021 13.7448V14.4784Z" fill="#FB751D"/>
  </g>
  <defs>
    <clipPath id="clip0_12737_267629">
      <rect x="0.839844" y="0.112427" width="20.7751" height="20.7751" rx="4.61669" fill="white"/>
    </clipPath>
  </defs>
</svg>