<svg width="22" height="22" viewBox="0 0 22 22" fill="none" xmlns="http://www.w3.org/2000/svg">
<circle cx="10.614" cy="6.67149" r="4.37986" stroke="#1CAED4" stroke-width="1.5" stroke-linecap="round" stroke-linejoin="round"/>
<path fill-rule="evenodd" clip-rule="evenodd" d="M3.66664 17.1428C3.66546 16.8349 3.73432 16.5308 3.86801 16.2534C4.28754 15.4144 5.47061 14.9697 6.4523 14.7683C7.1603 14.6172 7.87807 14.5163 8.60028 14.4663C9.93739 14.3488 11.2822 14.3488 12.6193 14.4663C13.3415 14.5169 14.0592 14.6178 14.7673 14.7683C15.749 14.9697 16.9321 15.3724 17.3516 16.2534C17.6205 16.8188 17.6205 17.4752 17.3516 18.0406C16.9321 18.9216 15.749 19.3244 14.7673 19.5174C14.0602 19.6747 13.3421 19.7785 12.6193 19.8278C11.531 19.9201 10.4377 19.9369 9.34704 19.8782C9.09532 19.8782 8.852 19.8782 8.60028 19.8278C7.8802 19.7791 7.16492 19.6753 6.46069 19.5174C5.47061 19.3244 4.29593 18.9216 3.86801 18.0406C3.73501 17.7601 3.66622 17.4534 3.66664 17.1428Z" stroke="#1CAED4" stroke-width="1.5" stroke-linecap="round" stroke-linejoin="round"/>
</svg>
