<svg width="24" height="21" viewBox="0 0 24 21" fill="none" xmlns="http://www.w3.org/2000/svg">
<g clip-path="url(#clip0_12737_267395)">
<rect x="1.33984" y="0.112427" width="20.7751" height="20.7751" rx="4.61669" fill="#FFDBE2"/>
<path d="M18.2198 0.112427H5.23496C3.08375 0.112427 1.33984 1.85633 1.33984 4.00755V16.9924C1.33984 19.1436 3.08375 20.8875 5.23496 20.8875H18.2198C20.3711 20.8875 22.115 19.1436 22.115 16.9924V4.00755C22.115 1.85633 20.3711 0.112427 18.2198 0.112427Z" fill="#E4F4D2"/>
<g clip-path="url(#clip1_12737_267395)">
<path d="M17.8239 22.9394C17.8239 22.899 17.8275 22.8587 17.8295 22.8184C17.8335 22.7996 17.8443 22.783 17.8598 22.7718C17.8752 22.7605 17.8943 22.7554 17.9132 22.7575C17.9132 22.7171 17.9168 22.6768 17.9185 22.6365C17.874 22.6365 17.8383 22.6094 17.8403 22.576L17.8511 22.334C17.8551 22.3153 17.8657 22.2987 17.881 22.2874C17.8963 22.2761 17.9152 22.2709 17.9341 22.2727C17.9341 22.2323 17.9373 22.192 17.9393 22.1517C17.8948 22.1517 17.8591 22.1251 17.8615 22.0916C17.8647 22.0109 17.8683 21.9303 17.8715 21.8496C17.8752 21.8313 17.8854 21.8151 17.9002 21.8039C17.9149 21.7926 17.9333 21.7872 17.9517 21.7887L17.9565 21.6677C17.9128 21.6677 17.8764 21.6411 17.8796 21.6072L17.8892 21.3652C17.8928 21.3469 17.9029 21.3305 17.9177 21.3192C17.9325 21.3079 17.9509 21.3025 17.9694 21.3039C17.9694 21.2636 17.9726 21.2232 17.9738 21.1829C17.9301 21.1829 17.896 21.1563 17.8972 21.1228C17.9 21.0422 17.9032 20.9615 17.906 20.8808C17.9095 20.8625 17.9196 20.846 17.9344 20.8347C17.9492 20.8234 17.9677 20.818 17.9862 20.8195C17.9862 20.7792 17.989 20.7389 17.9906 20.6985C17.9469 20.6985 17.9128 20.6719 17.914 20.6384L17.9225 20.3964C17.9259 20.3781 17.936 20.3616 17.9508 20.3504C17.9656 20.3391 17.9841 20.3338 18.0026 20.3355C18.0026 20.2952 18.0054 20.2549 18.0066 20.2146C17.9637 20.2146 17.9297 20.1879 17.9309 20.1545C17.9333 20.0738 17.9361 19.9931 17.9385 19.9125C17.9418 19.894 17.9519 19.8776 17.9668 19.8663C17.9816 19.855 18.0001 19.8497 18.0187 19.8516L18.0223 19.7306C18.0134 19.7317 18.0043 19.731 17.9957 19.7286C17.987 19.7262 17.9789 19.7221 17.9719 19.7165C17.9648 19.7109 17.959 19.7039 17.9546 19.696C17.9503 19.6881 17.9475 19.6795 17.9465 19.6705C17.9492 19.5898 17.9517 19.5092 17.9541 19.4285C17.9572 19.4099 17.9672 19.3933 17.9821 19.3819C17.9971 19.3706 18.0157 19.3655 18.0343 19.3676L18.0379 19.2466C18.0273 19.2479 18.0165 19.2467 18.0064 19.2429C17.9964 19.2392 17.9874 19.2332 17.9801 19.2252C17.9729 19.2173 17.9676 19.2078 17.9648 19.1974C17.9619 19.187 17.9616 19.1761 17.9637 19.1655C17.9662 19.0849 17.9684 19.0042 17.9706 18.9235C17.9736 18.905 17.9836 18.8883 17.9985 18.8769C18.0134 18.8655 18.0321 18.8602 18.0507 18.8622C18.0507 18.8219 18.0531 18.7816 18.0539 18.7412C18.0451 18.7423 18.0362 18.7416 18.0276 18.7391C18.019 18.7367 18.0111 18.7325 18.0041 18.7269C17.9972 18.7213 17.9914 18.7144 17.9872 18.7065C17.9829 18.6987 17.9803 18.69 17.9794 18.6811L17.9854 18.4392C17.9884 18.421 17.998 18.4046 18.0124 18.3932C18.0268 18.3819 18.0449 18.3764 18.0632 18.3779C18.0632 18.3375 18.0632 18.2972 18.066 18.2569C18.0571 18.2579 18.0482 18.2572 18.0396 18.2547C18.0311 18.2523 18.0231 18.2481 18.0161 18.2425C18.0092 18.237 18.0034 18.23 17.9992 18.2222C17.9949 18.2143 17.9923 18.2057 17.9914 18.1968L17.9974 17.9548C18.0001 17.9367 18.0095 17.9203 18.0237 17.909C18.0379 17.8976 18.0559 17.892 18.074 17.8935C18.074 17.8531 18.074 17.8128 18.0768 17.7725C18.068 17.7735 18.059 17.7728 18.0505 17.7704C18.042 17.7679 18.034 17.7637 18.0271 17.7581C18.0202 17.7525 18.0145 17.7456 18.0103 17.7378C18.0061 17.7299 18.0035 17.7213 18.0026 17.7124C18.0045 17.6317 18.0062 17.5511 18.0078 17.4704C18.0104 17.4524 18.0197 17.436 18.0339 17.4246C18.048 17.4132 18.0659 17.4077 18.084 17.4091L18.0864 17.2881C18.0776 17.289 18.0688 17.2882 18.0603 17.2857C18.0518 17.2832 18.044 17.2791 18.0371 17.2735C18.0303 17.2679 18.0246 17.261 18.0204 17.2532C18.0162 17.2454 18.0135 17.2368 18.0126 17.228L18.0175 16.986C18.0198 16.968 18.0289 16.9516 18.0429 16.9402C18.057 16.9287 18.0748 16.9232 18.0928 16.9247C18.0928 16.8844 18.0928 16.844 18.0928 16.8037C18.0841 16.8047 18.0753 16.8038 18.0669 16.8013C18.0584 16.7988 18.0506 16.7946 18.0438 16.789C18.037 16.7834 18.0314 16.7765 18.0273 16.7688C18.0232 16.761 18.0207 16.7524 18.0199 16.7436C18.0199 16.663 18.0212 16.5823 18.0239 16.5016C18.0261 16.4837 18.0351 16.4674 18.0489 16.456C18.0628 16.4445 18.0806 16.4389 18.0984 16.4403C18.0984 16.4 18.0984 16.3597 18.0984 16.3193C18.0897 16.3202 18.081 16.3194 18.0726 16.3168C18.0642 16.3143 18.0564 16.3101 18.0497 16.3045C18.043 16.2989 18.0374 16.292 18.0333 16.2843C18.0292 16.2765 18.0267 16.268 18.0259 16.2592C18.0259 16.2189 18.0259 16.1786 18.0279 16.1382C18.0277 16.1372 18.0277 16.1361 18.0279 16.135C17.6363 16.1076 17.3384 15.8341 17.3465 15.5034C17.3465 15.4933 17.3465 15.4833 17.3489 15.4732C11.1467 15.4427 4.98779 14.432 -0.902616 12.4781C-0.973431 12.6908 -1.04491 12.9032 -1.11706 13.1154L-0.935884 13.1751C-0.765526 13.2307 -0.666117 13.3933 -0.714218 13.5381C-0.762318 13.6829 -0.941494 13.7579 -1.11506 13.7014L-1.29784 13.6413C-1.31027 13.678 -1.32309 13.7147 -1.33552 13.7518L-1.15234 13.8119C-0.979977 13.868 -0.879367 14.0313 -0.927869 14.1773C-0.97637 14.3233 -1.15755 14.3959 -1.33191 14.3386L-1.5167 14.2781C-1.52913 14.3148 -1.54195 14.3515 -1.55478 14.3883L-1.36959 14.4492C-1.19523 14.506 -1.09341 14.6694 -1.14232 14.8154C-1.19122 14.9614 -1.3744 15.0336 -1.55037 14.9767L-1.73756 14.915C-1.79288 15.0744 -1.8486 15.2336 -1.90472 15.3925L-1.88748 15.3978C-1.27339 15.5994 -0.905016 16.1677 -1.07377 16.6763C-1.24252 17.1848 -1.90191 17.4365 -2.53844 17.2252L-2.55568 17.2191C-2.62062 17.3987 -2.68582 17.5781 -2.75129 17.7571L-2.55568 17.8221C-2.37129 17.8826 -2.26347 18.0483 -2.31518 18.1935C-2.36689 18.3387 -2.55969 18.4073 -2.74568 18.3464L-2.94329 18.2811L-2.98338 18.3904C-2.91764 18.4127 -2.85177 18.4344 -2.78576 18.4557C-2.59977 18.517 -2.49074 18.6836 -2.54285 18.8284C-2.59496 18.9731 -2.78977 19.0417 -2.97776 18.9796L-3.17818 18.9139L-3.21827 19.0232L-3.01785 19.0893C-2.83025 19.151 -2.71962 19.318 -2.77253 19.4628C-2.82544 19.6076 -3.02186 19.6753 -3.21346 19.6128L-3.41388 19.5459C-3.48469 19.7354 -3.55605 19.925 -3.62793 20.1145C3.02987 22.3473 9.99379 23.5186 17.0113 23.5859C17.0322 23.2543 17.3857 22.9857 17.8194 22.9539C17.8243 22.9414 17.8239 22.9406 17.8239 22.9394Z" fill="url(#paint0_linear_12737_267395)"/>
<path d="M22.1865 16.0362L22.3741 16.0254C22.3626 15.8011 22.3507 15.577 22.3385 15.353C21.1731 15.4237 20.0125 15.4604 18.8568 15.4631C18.8568 15.4732 18.8568 15.4833 18.8568 15.4934C18.8568 15.8241 18.5497 16.0984 18.1577 16.1242C18.1577 16.1242 18.1577 16.1262 18.1577 16.127C18.1577 16.1673 18.1577 16.2077 18.1557 16.248C18.1536 16.2657 18.1446 16.2819 18.1307 16.2931C18.1169 16.3043 18.0992 16.3095 18.0815 16.3077C18.0815 16.348 18.0815 16.3883 18.0815 16.4287C18.0992 16.4272 18.1167 16.4328 18.1303 16.4443C18.1439 16.4558 18.1525 16.4722 18.1541 16.49L18.1505 16.732C18.1481 16.7498 18.1389 16.7661 18.1248 16.7773C18.1108 16.7885 18.093 16.7938 18.0751 16.7921C18.0751 16.8324 18.0751 16.8727 18.0751 16.9131C18.0929 16.9115 18.1105 16.9171 18.1242 16.9285C18.1378 16.94 18.1464 16.9565 18.1481 16.9744C18.1481 17.055 18.1466 17.1357 18.1437 17.2163C18.1413 17.2343 18.132 17.2506 18.1179 17.2618C18.1037 17.273 18.0858 17.2783 18.0679 17.2764L18.0655 17.3974C18.0833 17.3959 18.1011 17.4014 18.1149 17.4129C18.1287 17.4243 18.1374 17.4408 18.1393 17.4587C18.1393 17.5394 18.1356 17.6201 18.134 17.7007C18.1314 17.7187 18.122 17.7351 18.1078 17.7463C18.0935 17.7575 18.0755 17.7627 18.0575 17.7608C18.0575 17.8012 18.0575 17.8415 18.0547 17.8818C18.0726 17.8801 18.0904 17.8856 18.1043 17.8971C18.1182 17.9086 18.127 17.9251 18.1288 17.9431C18.1288 18.0238 18.1252 18.1044 18.1232 18.1851C18.1205 18.2032 18.111 18.2196 18.0966 18.2308C18.0821 18.242 18.064 18.2472 18.0459 18.2452C18.0459 18.2855 18.0459 18.3259 18.043 18.3662C18.061 18.3646 18.0789 18.3702 18.0929 18.3817C18.1068 18.3933 18.1157 18.4098 18.1176 18.4279C18.1176 18.5086 18.1132 18.5892 18.1112 18.6699C18.1083 18.688 18.0986 18.7043 18.0842 18.7154C18.0697 18.7265 18.0515 18.7316 18.0334 18.7296C18.0334 18.7699 18.031 18.8102 18.0302 18.8506C18.0482 18.8488 18.0661 18.8542 18.0801 18.8657C18.0941 18.8772 18.103 18.8938 18.1048 18.9119C18.1048 18.9925 18.1004 19.0732 18.0984 19.1539C18.0954 19.1724 18.0853 19.189 18.0704 19.2002C18.0554 19.2113 18.0367 19.2161 18.0182 19.2136L18.0146 19.3346C18.0235 19.3336 18.0325 19.3344 18.0411 19.337C18.0497 19.3396 18.0578 19.3438 18.0647 19.3495C18.0717 19.3552 18.0775 19.3623 18.0817 19.3702C18.086 19.3782 18.0886 19.3869 18.0895 19.3959C18.0875 19.4765 18.0851 19.5572 18.0823 19.6379C18.0793 19.6563 18.0692 19.6729 18.0542 19.684C18.0393 19.6951 18.0206 19.7 18.0022 19.6975C18.0022 19.7379 17.9994 19.7782 17.9982 19.8185C18.0163 19.8166 18.0344 19.822 18.0486 19.8335C18.0628 19.845 18.0719 19.8616 18.0739 19.8798C18.0711 19.9605 18.0687 20.0412 18.0659 20.1218C18.0627 20.1403 18.0527 20.1568 18.0377 20.168C18.0228 20.1792 18.0042 20.1842 17.9857 20.1819C17.9857 20.2223 17.9829 20.2626 17.9813 20.3029C17.9903 20.3019 17.9995 20.3027 18.0082 20.3053C18.0169 20.3078 18.0251 20.3121 18.0322 20.3178C18.0392 20.3236 18.0451 20.3307 18.0495 20.3387C18.0538 20.3467 18.0565 20.3555 18.0575 20.3646L18.0491 20.6066C18.0457 20.6249 18.0356 20.6413 18.0207 20.6524C18.0058 20.6635 17.9873 20.6685 17.9689 20.6663C17.9689 20.7066 17.9661 20.747 17.9645 20.7873C17.9735 20.7863 17.9827 20.7871 17.9915 20.7896C18.0002 20.7922 18.0084 20.7965 18.0155 20.8022C18.0226 20.8079 18.0285 20.815 18.0329 20.823C18.0373 20.8311 18.04 20.8399 18.041 20.849C18.0382 20.9297 18.035 21.0103 18.0322 21.091C18.0287 21.1092 18.0185 21.1255 18.0037 21.1365C17.9888 21.1476 17.9704 21.1526 17.9521 21.1507L17.9472 21.2717C17.9909 21.2717 18.0274 21.2999 18.0242 21.3334L18.0146 21.5754C18.011 21.5936 18.0008 21.6098 17.986 21.6208C17.9711 21.6318 17.9528 21.6369 17.9344 21.6351C17.9344 21.6754 17.9308 21.7157 17.9292 21.7561C17.9733 21.7561 18.0094 21.7843 18.0066 21.8178C18.0034 21.8984 18 21.9791 17.9965 22.0598C17.9928 22.0784 17.9823 22.0949 17.9669 22.106C17.9516 22.117 17.9327 22.1219 17.914 22.1195C17.914 22.1598 17.9104 22.2001 17.9084 22.2404C17.9529 22.2404 17.9885 22.2687 17.9861 22.3022C17.9829 22.3828 17.9795 22.4635 17.9757 22.5441C17.9717 22.5628 17.961 22.5792 17.9455 22.5903C17.9301 22.6013 17.9111 22.6062 17.8923 22.6038C17.8923 22.624 17.8923 22.6442 17.8895 22.6647C17.8867 22.6853 17.8895 22.7051 17.8867 22.726C17.9316 22.726 17.9669 22.7539 17.9669 22.7873C17.9669 22.8277 17.9633 22.868 17.9613 22.9083C17.9613 22.9083 17.9613 22.9104 17.9613 22.9116C18.3918 22.9467 18.7229 23.2185 18.71 23.55C20.0114 23.55 21.3182 23.5126 22.6303 23.4379C22.6271 23.2349 22.6235 23.0322 22.6194 22.8297L22.4122 22.841C22.2038 22.8527 22.0338 22.7357 22.0322 22.5813C22.0306 22.4268 22.1962 22.2937 22.4026 22.2824L22.6082 22.2707C22.6082 22.2304 22.6082 22.1929 22.6054 22.1537L22.4002 22.1654C22.1938 22.1767 22.025 22.0598 22.0226 21.9057C22.0202 21.7516 22.1829 21.6181 22.3886 21.6068L22.5922 21.5951C22.5922 21.5548 22.5922 21.5173 22.5894 21.4782L22.3858 21.4899C22.1813 21.5012 22.0138 21.3842 22.011 21.2301C22.0082 21.0761 22.1713 20.9426 22.3717 20.9313L22.5721 20.9196L22.5533 20.3755H22.5477C21.8458 20.4158 21.275 20.0029 21.2678 19.4668C21.2606 18.9308 21.8005 18.4751 22.4787 18.434H22.4844C22.4774 18.2654 22.4705 18.0966 22.4635 17.9278L22.2703 17.9391C22.0763 17.9504 21.9148 17.8334 21.9096 17.6794C21.9043 17.5253 22.0555 17.3926 22.2475 17.3817L22.4391 17.3704C22.4371 17.3301 22.4355 17.2926 22.4339 17.2539L22.2427 17.2651C22.0507 17.276 21.8903 17.1591 21.8847 17.0054C21.8791 16.8517 22.0278 16.7187 22.2182 16.7078L22.4074 16.6969C22.4074 16.6565 22.4038 16.619 22.4018 16.5803L22.2126 16.5912C22.0226 16.6021 21.8635 16.4855 21.8574 16.3315C21.8514 16.1774 21.9981 16.0471 22.1865 16.0362Z" fill="#79C8D1"/>
<path d="M14.6909 19.4519C10.348 19.2446 6.03771 18.588 1.82837 17.4926C1.05515 17.2909 0.612222 16.5391 0.826271 15.8321C1.04072 15.1243 1.80072 14.7202 2.53626 14.9109C6.57523 15.9586 10.7108 16.5845 14.8773 16.7787C15.6554 16.8154 16.2674 17.4272 16.235 18.1669C16.2029 18.9062 15.5075 19.4914 14.6909 19.4519Z" fill="#79C8D1"/>
<path d="M10.1637 22.1557C6.66251 21.7542 3.19879 21.0721 -0.194437 20.1157C-0.349563 20.0721 -0.439351 19.9253 -0.394858 19.789C-0.351166 19.6527 -0.191631 19.5781 -0.0381087 19.6212C3.32954 20.5696 6.76714 21.2455 10.2418 21.6427C10.4022 21.6612 10.5172 21.7903 10.4964 21.9318C10.4747 22.0738 10.326 22.1742 10.1637 22.1557Z" fill="white"/>
</g>
</g>
<path d="M17.3248 12.8242C17.3584 12.9197 17.2795 13.0282 17.148 13.0661C17.2931 13.3424 17.7148 13.4695 18.1285 13.3444C19.9352 12.8018 21.7072 12.1922 23.4444 11.5154C23.8713 11.3492 24.0994 10.9616 23.9583 10.6547C22.9987 8.55748 22.093 6.4437 21.2414 4.31339C21.1159 4.00163 20.7087 3.86974 20.3275 4.01736C18.7727 4.6148 17.1839 5.15256 15.5611 5.63062C15.1658 5.74677 14.9177 6.09605 15.0075 6.41708C15.1298 6.3828 15.2528 6.43402 15.2821 6.53163C15.3113 6.62923 15.2356 6.73772 15.1121 6.77362C14.9887 6.80951 14.8648 6.75668 14.8363 6.65867C14.8079 6.56067 14.884 6.45338 15.0067 6.4187C14.9077 6.10008 14.5101 5.9327 14.1104 6.03999C9.81245 7.19137 5.40801 7.89416 0.966867 8.13723C0.531955 8.16143 0.198456 8.44859 0.225312 8.78535C0.225312 8.79745 0.225315 8.80955 0.228522 8.82165C0.0946412 8.8273 -0.00757569 8.91482 0.000441124 9.01686C0.00845793 9.1189 0.124705 9.19795 0.258986 9.1919C0.262193 9.22578 0.264998 9.25925 0.267803 9.29273C0.133121 9.29878 0.0305075 9.38629 0.0389251 9.48833C0.0473428 9.59037 0.164389 9.66942 0.299873 9.66337C0.302679 9.69685 0.305483 9.73032 0.30869 9.7642C0.173206 9.77025 0.0681865 9.85737 0.0790092 9.95981C0.0898319 10.0623 0.205672 10.1409 0.341958 10.1344C0.344764 10.1683 0.34797 10.2018 0.351177 10.2357C0.214891 10.2417 0.110672 10.3292 0.120292 10.4313C0.129912 10.5333 0.248561 10.6124 0.385648 10.6059C0.388855 10.6394 0.391665 10.6733 0.394872 10.7068C0.257784 10.7132 0.154367 10.8007 0.163586 10.9032C0.172805 11.0056 0.292653 11.0839 0.430542 11.0774C0.43415 11.1109 0.437357 11.1448 0.440563 11.1782C0.302674 11.1847 0.200062 11.2722 0.208079 11.3746C0.216095 11.4771 0.338751 11.5553 0.477442 11.5489C0.48105 11.5823 0.484257 11.6162 0.487865 11.6497C0.348773 11.6562 0.244156 11.7441 0.254578 11.8465C0.264999 11.949 0.38645 12.0268 0.525942 12.0203C0.529149 12.0538 0.532757 12.0877 0.536365 12.1212C0.396872 12.128 0.291853 12.2156 0.302275 12.318C0.312697 12.4204 0.435357 12.4987 0.575651 12.4918L0.58647 12.5931C0.446176 12.5995 0.340755 12.6874 0.351578 12.7899C0.362401 12.8923 0.48586 12.9702 0.627356 12.9637C0.630964 12.9972 0.634573 13.0307 0.638581 13.0645C0.497084 13.0714 0.391262 13.1593 0.402485 13.2618C0.413709 13.3642 0.537972 13.442 0.68027 13.4352C0.683878 13.4687 0.687883 13.5025 0.691891 13.536C0.549593 13.5429 0.443373 13.6312 0.454998 13.7336C0.466622 13.8361 0.591684 13.9139 0.735586 13.9067L0.747608 14.0079C0.604508 14.0147 0.497887 14.1031 0.509511 14.2055C0.521136 14.308 0.647801 14.3854 0.7901 14.3785L0.802122 14.4794C0.658621 14.4866 0.551597 14.575 0.561618 14.6774C0.571639 14.7798 0.701114 14.8573 0.845817 14.85C0.849826 14.8839 0.854232 14.9174 0.858241 14.9512C0.713537 14.9585 0.606112 15.0468 0.617736 15.1493C0.629361 15.2517 0.758833 15.3292 0.904338 15.3219C0.908347 15.3554 0.912754 15.3892 0.917163 15.4227C0.771658 15.43 0.663832 15.5187 0.676659 15.6212C0.689486 15.7236 0.818559 15.801 0.964866 15.7938H0.979697C1.09113 16.0741 1.47754 16.2713 1.90644 16.2439C6.84334 15.9344 11.736 15.1194 16.5087 13.8115C16.9271 13.6965 17.1901 13.3735 17.1336 13.0718C17.0009 13.1077 16.8674 13.0601 16.8345 12.9641C16.8017 12.8681 16.883 12.7572 17.0173 12.7189C17.1516 12.6806 17.2907 12.7274 17.3248 12.8242ZM15.141 6.87162C15.2645 6.83694 15.3883 6.88735 15.418 6.98536C15.4476 7.08336 15.3715 7.19145 15.2472 7.22735C15.123 7.26324 14.9983 7.21081 14.9694 7.1128C14.9406 7.0148 15.0171 6.90631 15.141 6.87162ZM15.2761 7.32293C15.4007 7.28784 15.5254 7.33866 15.5567 7.43626C15.5879 7.53387 15.5102 7.64236 15.3847 7.67825C15.2592 7.71415 15.1346 7.66212 15.1041 7.56411C15.0736 7.46611 15.1518 7.35802 15.2761 7.32293ZM15.4144 7.77344C15.5394 7.73794 15.6653 7.78836 15.695 7.88596C15.7246 7.98356 15.6481 8.09246 15.5222 8.12795C15.3963 8.16344 15.2701 8.11262 15.2416 8.01462C15.2131 7.91661 15.2881 7.80973 15.4144 7.77344ZM15.5527 8.22434C15.6789 8.18885 15.8056 8.23886 15.836 8.33646C15.8665 8.43407 15.7895 8.54256 15.6629 8.57845C15.5362 8.61435 15.4088 8.56353 15.3787 8.46593C15.3486 8.36833 15.4256 8.26064 15.5515 8.22515L15.5527 8.22434ZM15.6929 8.67525C15.8196 8.63935 15.9471 8.68896 15.9783 8.78656C16.0096 8.88417 15.9314 8.99306 15.804 9.02855C15.6765 9.06405 15.5482 9.01444 15.5178 8.91643C15.4873 8.81843 15.5647 8.71155 15.6917 8.67606L15.6929 8.67525ZM15.8344 9.12535C15.9619 9.08945 16.0906 9.13866 16.1218 9.23626C16.1531 9.33386 16.0749 9.44276 15.9467 9.47825C15.8184 9.51374 15.6893 9.46454 15.6585 9.36694C15.6276 9.26933 15.7058 9.16245 15.8332 9.12616L15.8344 9.12535ZM15.9755 9.57626C16.1038 9.53996 16.2333 9.58916 16.2649 9.68677C16.2966 9.78437 16.218 9.89326 16.089 9.92875C15.9599 9.96425 15.8296 9.91544 15.7988 9.81744C15.7679 9.71943 15.8481 9.61255 15.9755 9.57626ZM16.1202 10.026C16.2493 9.98925 16.3796 10.0385 16.4117 10.1357C16.4437 10.2329 16.3648 10.3426 16.2349 10.3776C16.105 10.4127 15.9739 10.3651 15.9427 10.2675C15.9114 10.1699 15.9916 10.0627 16.121 10.026H16.1202ZM16.2661 10.4757C16.396 10.4385 16.5275 10.4873 16.56 10.5845C16.5924 10.6817 16.5131 10.7914 16.382 10.8286C16.2509 10.8657 16.1194 10.8165 16.0878 10.7188C16.0561 10.6212 16.1359 10.5128 16.267 10.4757H16.2661ZM16.4141 10.9249C16.5447 10.8874 16.677 10.9358 16.7095 11.033C16.7419 11.1302 16.6626 11.2399 16.5311 11.2774C16.3996 11.315 16.2666 11.2661 16.2349 11.1685C16.2032 11.0709 16.2838 10.962 16.4165 10.9249H16.4141ZM16.5632 11.3738C16.6946 11.3363 16.8277 11.3843 16.861 11.4815C16.8943 11.5787 16.8137 11.6884 16.6814 11.7263C16.5491 11.7642 16.4153 11.715 16.3832 11.6178C16.3511 11.5206 16.4325 11.4113 16.564 11.3738H16.5632ZM16.7139 11.8223C16.8462 11.7844 16.9804 11.832 17.0137 11.9292C17.047 12.0264 16.9664 12.1365 16.8333 12.1744C16.7003 12.2123 16.5656 12.1643 16.5331 12.0667C16.5006 11.9691 16.5824 11.8602 16.7147 11.8223H16.7139ZM16.8662 12.2704C16.9993 12.2325 17.1344 12.2801 17.168 12.3769C17.2017 12.4737 17.1207 12.5842 16.9869 12.6225C16.853 12.6608 16.7175 12.6128 16.6846 12.5152C16.6518 12.4176 16.7339 12.3087 16.867 12.2704H16.8662Z" fill="url(#paint1_linear_12737_267395)"/>
<path d="M7.10855 7.50562C5.09446 7.81079 3.04723 8.02186 0.966867 8.13882C0.531955 8.16302 0.198456 8.45018 0.225312 8.78695C0.225312 8.79905 0.225315 8.81115 0.228522 8.82325C0.0946412 8.82889 -0.00757569 8.91641 0.000441123 9.01845C0.00845793 9.12049 0.124705 9.19954 0.259387 9.19349L0.267803 9.29432C0.133121 9.30037 0.0305075 9.38789 0.0389251 9.48993C0.0473428 9.59197 0.164389 9.67102 0.299873 9.66497C0.302679 9.69844 0.305483 9.73192 0.30869 9.7658C0.173206 9.77185 0.0681865 9.85896 0.0790092 9.9614C0.0898319 10.0638 0.205672 10.1425 0.341958 10.136C0.344764 10.1699 0.34797 10.2034 0.351177 10.2373C0.214891 10.2433 0.110672 10.3308 0.120292 10.4329C0.129912 10.5349 0.248561 10.6136 0.385648 10.6075C0.388855 10.641 0.392066 10.6749 0.394872 10.7083C0.257784 10.7148 0.154367 10.8023 0.163586 10.9048C0.172805 11.0072 0.292653 11.0854 0.430542 11.079C0.43415 11.1125 0.437356 11.1463 0.440563 11.1798C0.302674 11.1863 0.200062 11.2738 0.208079 11.3762C0.216095 11.4787 0.338751 11.5569 0.477442 11.5505C0.48105 11.5839 0.484257 11.6178 0.487864 11.6513C0.348773 11.6577 0.244156 11.7457 0.254577 11.8481C0.264999 11.9506 0.38645 12.0284 0.525942 12.0219C0.529149 12.0554 0.532757 12.0893 0.536365 12.1228C0.396872 12.1296 0.291853 12.2171 0.302275 12.3196C0.312697 12.422 0.435357 12.5003 0.575651 12.4934L0.58647 12.5947C0.446176 12.6011 0.340755 12.689 0.351578 12.7915C0.3624 12.8939 0.48586 12.9718 0.627356 12.9653C0.630964 12.9988 0.634573 13.0322 0.638581 13.0661C0.497084 13.073 0.391262 13.1609 0.402485 13.2633C0.413709 13.3658 0.537971 13.4436 0.68027 13.4368C0.683877 13.4703 0.687883 13.5041 0.691891 13.5376C0.549593 13.5445 0.443373 13.6328 0.454998 13.7352C0.466622 13.8377 0.591684 13.9155 0.735586 13.9083L0.747608 14.0095C0.604508 14.0163 0.497887 14.1047 0.509511 14.2071C0.521136 14.3095 0.647801 14.387 0.7901 14.3801L0.802122 14.481C0.658621 14.4882 0.551597 14.5765 0.561618 14.679C0.571639 14.7814 0.701114 14.8589 0.845817 14.8516C0.849826 14.8855 0.854232 14.919 0.858241 14.9528C0.713537 14.9601 0.606112 15.0484 0.617736 15.1509C0.629361 15.2533 0.758833 15.3307 0.904338 15.3235C0.908347 15.357 0.912754 15.3908 0.917163 15.4243C0.771658 15.4316 0.663832 15.5203 0.676659 15.6227C0.689486 15.7252 0.818559 15.8026 0.964866 15.7954H0.979697C1.09113 16.0757 1.47754 16.2729 1.90644 16.2455C4.21047 16.0997 6.4819 15.8487 8.72073 15.4925C9.20226 14.0585 9.25784 12.5144 8.88066 11.0491C8.46699 9.42701 7.66732 8.23279 7.10855 7.50562Z" fill="#98EB27"/>
<path d="M22.5983 11.5054C22.583 11.5118 22.5658 11.5122 22.5502 11.5064C22.5346 11.5007 22.5217 11.4892 22.5141 11.4743C22.5113 11.4669 22.51 11.4589 22.5104 11.4509C22.5108 11.4429 22.5128 11.4351 22.5163 11.4279C22.5198 11.4207 22.5247 11.4143 22.5307 11.4091C22.5368 11.404 22.5438 11.4001 22.5514 11.3977L22.9202 11.2578C22.9355 11.2513 22.9526 11.2508 22.9683 11.2564C22.9839 11.262 22.9969 11.2733 23.0047 11.288C23.0076 11.2955 23.0089 11.3035 23.0086 11.3116C23.0083 11.3196 23.0063 11.3275 23.0028 11.3347C22.9993 11.3419 22.9944 11.3484 22.9883 11.3536C22.9822 11.3588 22.9751 11.3627 22.9675 11.365C22.8448 11.4122 22.7214 11.459 22.5983 11.5054ZM22.2311 11.6425L21.8628 11.7776C21.8473 11.7839 21.8301 11.7841 21.8145 11.7782C21.7989 11.7723 21.7861 11.7607 21.7786 11.7458C21.7759 11.7381 21.7748 11.73 21.7754 11.7219C21.7759 11.7138 21.7782 11.706 21.782 11.6988C21.7857 11.6916 21.7909 11.6853 21.7973 11.6803C21.8036 11.6752 21.8109 11.6716 21.8187 11.6695C21.9413 11.6246 22.0638 11.5796 22.1862 11.5344C22.2016 11.5281 22.2188 11.5278 22.2344 11.5336C22.25 11.5394 22.2629 11.551 22.2704 11.5659C22.2732 11.5735 22.2744 11.5816 22.2739 11.5897C22.2734 11.5978 22.2712 11.6057 22.2675 11.6129C22.2638 11.6201 22.2587 11.6265 22.2524 11.6316C22.2462 11.6367 22.2389 11.6404 22.2311 11.6425ZM21.4932 11.9107C21.3697 11.9548 21.2463 11.9985 21.1228 12.0418C21.1073 12.0481 21.0901 12.0482 21.0745 12.0421C21.0589 12.0361 21.0463 12.0243 21.039 12.0091C21.0363 12.0015 21.0352 11.9934 21.0358 11.9854C21.0364 11.9773 21.0386 11.9695 21.0424 11.9623C21.0462 11.9552 21.0514 11.9489 21.0577 11.9439C21.064 11.9389 21.0713 11.9353 21.0791 11.9333C21.2026 11.89 21.3259 11.8463 21.4491 11.8022C21.4645 11.796 21.4817 11.7959 21.4972 11.8019C21.5128 11.8079 21.5255 11.8195 21.5329 11.8345C21.5356 11.8421 21.5367 11.8502 21.5361 11.8583C21.5356 11.8663 21.5334 11.8742 21.5296 11.8814C21.5259 11.8885 21.5207 11.8948 21.5145 11.8999C21.5082 11.9049 21.5009 11.9086 21.4932 11.9107ZM20.7512 12.1697L20.3784 12.2971C20.3629 12.303 20.3456 12.3028 20.3302 12.2965C20.3148 12.2902 20.3022 12.2783 20.2951 12.2632C20.2925 12.2556 20.2915 12.2476 20.2921 12.2396C20.2928 12.2316 20.2951 12.2238 20.2988 12.2167C20.3026 12.2097 20.3077 12.2035 20.314 12.1985C20.3202 12.1935 20.3274 12.1899 20.3352 12.1878C20.4594 12.1459 20.5834 12.1035 20.7071 12.0608C20.7227 12.0547 20.7399 12.0548 20.7554 12.0609C20.7709 12.067 20.7836 12.0788 20.7909 12.0938C20.7936 12.1014 20.7946 12.1095 20.794 12.1175C20.7934 12.1255 20.7912 12.1333 20.7875 12.1404C20.7838 12.1476 20.7786 12.1538 20.7724 12.1589C20.7661 12.1639 20.7589 12.1676 20.7512 12.1697ZM20.0049 12.4221C19.8803 12.4635 19.7554 12.5047 19.6301 12.5455C19.6144 12.5514 19.5972 12.5511 19.5817 12.5448C19.5663 12.5384 19.5538 12.5265 19.5467 12.5113C19.5442 12.5037 19.5432 12.4957 19.5439 12.4877C19.5446 12.4798 19.5469 12.4721 19.5506 12.465C19.5544 12.458 19.5595 12.4518 19.5658 12.4469C19.572 12.4419 19.5791 12.4383 19.5868 12.4362C19.7114 12.3959 19.8365 12.3556 19.9608 12.3128C19.9765 12.307 19.9938 12.3072 20.0093 12.3136C20.0248 12.3199 20.0374 12.3319 20.0445 12.3471C20.0473 12.3548 20.0485 12.3629 20.048 12.371C20.0474 12.3791 20.0452 12.387 20.0415 12.3942C20.0378 12.4015 20.0326 12.4078 20.0263 12.4129C20.02 12.418 20.0127 12.4217 20.0049 12.4237V12.4221ZM19.2545 12.6669L18.8777 12.7879C18.862 12.7937 18.8447 12.7932 18.8293 12.7866C18.8139 12.78 18.8015 12.7678 18.7947 12.7524C18.7922 12.7448 18.7914 12.7367 18.7922 12.7286C18.793 12.7206 18.7954 12.7128 18.7994 12.7058C18.8034 12.6988 18.8087 12.6927 18.8152 12.6878C18.8216 12.683 18.829 12.6796 18.8368 12.6778C18.9621 12.6386 19.0875 12.5982 19.2128 12.5568C19.2285 12.5511 19.2457 12.5515 19.2612 12.5579C19.2766 12.5643 19.2891 12.5763 19.2962 12.5915C19.299 12.5993 19.3001 12.6076 19.2995 12.6159C19.2989 12.6242 19.2966 12.6322 19.2926 12.6395C19.2887 12.6468 19.2832 12.6532 19.2767 12.6582C19.2701 12.6632 19.2625 12.6667 19.2545 12.6686V12.6669ZM18.5009 12.9009L18.4937 12.9029C18.3529 12.9311 18.2075 12.9272 18.0684 12.8916C18.0606 12.8901 18.0531 12.887 18.0466 12.8825C18.0401 12.8779 18.0346 12.872 18.0305 12.8651C18.0264 12.8583 18.0238 12.8506 18.0229 12.8426C18.0219 12.8347 18.0227 12.8266 18.0251 12.819C18.0318 12.8033 18.0438 12.7906 18.0591 12.7832C18.0743 12.7758 18.0917 12.7742 18.1081 12.7787C18.2261 12.8091 18.3494 12.8125 18.4688 12.7883C18.4849 12.7843 18.5019 12.7865 18.5163 12.7946C18.5308 12.8027 18.5416 12.816 18.5466 12.8319C18.5496 12.8471 18.5464 12.8629 18.5379 12.8758C18.5293 12.8888 18.516 12.8978 18.5009 12.9009ZM23.2833 11.1501C23.2727 11.1544 23.2612 11.156 23.2498 11.1547C23.2384 11.1535 23.2274 11.1494 23.218 11.1428C23.2117 11.1384 23.2065 11.1327 23.2026 11.1261C23.1987 11.1195 23.1963 11.1121 23.1955 11.1044C23.1947 11.0968 23.1955 11.089 23.198 11.0817C23.2004 11.0744 23.2044 11.0678 23.2096 11.0622C23.2845 10.9791 23.3365 10.8777 23.3603 10.7681C23.3646 10.752 23.3748 10.738 23.3888 10.729C23.4028 10.72 23.4197 10.7165 23.4361 10.7193C23.4439 10.7199 23.4516 10.7222 23.4585 10.726C23.4654 10.7297 23.4715 10.7349 23.4764 10.7412C23.4812 10.7474 23.4847 10.7547 23.4866 10.7624C23.4885 10.7701 23.4887 10.7781 23.4874 10.7859C23.4592 10.9152 23.398 11.0349 23.3098 11.1331C23.3018 11.141 23.292 11.1468 23.2813 11.1501H23.2833ZM17.775 12.7133C17.7635 12.717 17.7513 12.7177 17.7395 12.7152C17.7277 12.7127 17.7167 12.7072 17.7076 12.6992C17.6187 12.6194 17.5511 12.5184 17.5108 12.4056L17.5008 12.3774C17.4986 12.3697 17.498 12.3616 17.499 12.3536C17.5 12.3456 17.5026 12.338 17.5066 12.3311C17.5107 12.3241 17.5161 12.3181 17.5225 12.3134C17.529 12.3087 17.5363 12.3053 17.5441 12.3036C17.5596 12.2986 17.5764 12.2996 17.5912 12.3064C17.606 12.3132 17.6178 12.3252 17.6243 12.3403L17.6343 12.3685C17.6685 12.464 17.7258 12.5494 17.801 12.6169C17.807 12.622 17.8118 12.6283 17.8151 12.6355C17.8184 12.6426 17.8202 12.6504 17.8202 12.6583C17.8202 12.6661 17.8184 12.6739 17.8151 12.6811C17.8118 12.6882 17.807 12.6945 17.801 12.6996C17.7929 12.7064 17.7833 12.7111 17.773 12.7133H17.775ZM23.4236 10.4826H23.4196C23.4043 10.4879 23.3876 10.4873 23.3727 10.4808C23.3579 10.4743 23.346 10.4624 23.3395 10.4475C23.3346 10.4342 23.329 10.4205 23.3234 10.4072C23.2817 10.3144 23.2403 10.2214 23.1992 10.1281C23.1963 10.1207 23.195 10.1128 23.1952 10.1048C23.1955 10.0969 23.1973 10.0891 23.2007 10.0819C23.204 10.0747 23.2087 10.0683 23.2146 10.063C23.2205 10.0577 23.2274 10.0536 23.2348 10.051C23.25 10.0446 23.2669 10.0442 23.2824 10.0498C23.2978 10.0554 23.3106 10.0666 23.3182 10.0813C23.3583 10.1741 23.4012 10.2672 23.4429 10.36C23.4497 10.3757 23.4561 10.3914 23.4621 10.4076C23.4646 10.4152 23.4655 10.4232 23.4648 10.4312C23.4641 10.4391 23.4618 10.4469 23.458 10.4539C23.4542 10.4609 23.449 10.4671 23.4428 10.472C23.4365 10.477 23.4293 10.4806 23.4216 10.4826H23.4236ZM17.4635 12.0809C17.448 12.0858 17.4312 12.0848 17.4163 12.0779C17.4015 12.0711 17.3898 12.0589 17.3834 12.0438C17.3433 11.9325 17.306 11.8216 17.2675 11.7103C17.2652 11.7026 17.2645 11.6946 17.2655 11.6866C17.2664 11.6787 17.2689 11.671 17.2729 11.6641C17.2769 11.6572 17.2822 11.6512 17.2886 11.6464C17.295 11.6417 17.3023 11.6383 17.31 11.6365C17.3256 11.6315 17.3424 11.6325 17.3573 11.6394C17.3721 11.6462 17.3838 11.6584 17.3902 11.6736L17.5068 12.0071C17.5092 12.0148 17.5099 12.0229 17.5089 12.031C17.508 12.039 17.5054 12.0467 17.5013 12.0536C17.4973 12.0606 17.4918 12.0666 17.4853 12.0713C17.4788 12.076 17.4714 12.0793 17.4635 12.0809ZM23.1366 9.83728C23.1216 9.84388 23.1046 9.84443 23.0891 9.8388C23.0737 9.83317 23.061 9.8218 23.0537 9.80703L22.9118 9.48438C22.9089 9.47698 22.9076 9.46908 22.9078 9.46114C22.9081 9.45321 22.9099 9.44541 22.9133 9.43821C22.9166 9.43102 22.9213 9.42457 22.9272 9.41927C22.9331 9.41396 22.94 9.40991 22.9474 9.40735C22.9625 9.40099 22.9794 9.40063 22.9947 9.40631C23.01 9.412 23.0226 9.42333 23.03 9.438C23.0769 9.54528 23.1246 9.65297 23.1719 9.76065C23.1748 9.76799 23.1762 9.77586 23.176 9.78376C23.1758 9.79167 23.174 9.79944 23.1707 9.80662C23.1674 9.81379 23.1627 9.82021 23.1568 9.82549C23.1509 9.83076 23.1441 9.83477 23.1366 9.83728ZM17.2318 11.4138C17.2163 11.4189 17.1994 11.4178 17.1846 11.411C17.1698 11.4041 17.158 11.3919 17.1517 11.3767L17.0374 11.0428C17.0352 11.0351 17.0344 11.0271 17.0354 11.0192C17.0363 11.0112 17.0388 11.0036 17.0428 10.9966C17.0468 10.9897 17.0521 10.9837 17.0585 10.9789C17.0649 10.9742 17.0722 10.9708 17.0799 10.969C17.0955 10.9639 17.1125 10.9649 17.1273 10.9719C17.1422 10.9789 17.1539 10.9912 17.1601 11.0065C17.198 11.1178 17.2364 11.229 17.2751 11.34C17.2774 11.3477 17.2781 11.3558 17.2771 11.3638C17.2761 11.3718 17.2735 11.3795 17.2695 11.3864C17.2654 11.3934 17.26 11.3994 17.2535 11.4041C17.247 11.4088 17.2397 11.4121 17.2318 11.4138ZM22.8532 9.19198C22.8385 9.19773 22.8221 9.19778 22.8073 9.19212C22.7925 9.18646 22.7803 9.17549 22.7731 9.16133C22.7262 9.05364 22.6797 8.94555 22.6332 8.83867C22.6303 8.83133 22.6289 8.82347 22.6291 8.81556C22.6293 8.80766 22.6311 8.79988 22.6344 8.79271C22.6377 8.78553 22.6424 8.77911 22.6483 8.77384C22.6541 8.76857 22.661 8.76455 22.6684 8.76204C22.6832 8.75611 22.6996 8.75596 22.7145 8.76164C22.7293 8.76732 22.7415 8.7784 22.7486 8.7927L22.8893 9.11535C22.8921 9.12275 22.8935 9.13065 22.8932 9.13858C22.8929 9.1465 22.891 9.15429 22.8876 9.16145C22.8842 9.16862 22.8795 9.17502 22.8735 9.18027C22.8676 9.18552 22.8607 9.1895 22.8532 9.19198ZM17.003 10.746C16.9874 10.7512 16.9704 10.7503 16.9554 10.7433C16.9405 10.7363 16.9288 10.7239 16.9228 10.7084C16.8851 10.5971 16.8476 10.4858 16.8102 10.3745C16.8079 10.3669 16.8072 10.3589 16.8081 10.351C16.809 10.3431 16.8115 10.3355 16.8154 10.3286C16.8193 10.3217 16.8247 10.3158 16.831 10.311C16.8373 10.3063 16.8446 10.3029 16.8523 10.3011C16.8678 10.2957 16.8849 10.2966 16.8999 10.3036C16.9148 10.3106 16.9265 10.3231 16.9324 10.3386C16.9701 10.4499 17.0079 10.5612 17.0459 10.6725C17.0481 10.6802 17.0488 10.6883 17.0479 10.6962C17.0469 10.7041 17.0444 10.7118 17.0403 10.7187C17.0363 10.7256 17.0309 10.7315 17.0245 10.7362C17.018 10.7409 17.0107 10.7442 17.003 10.746ZM22.5746 8.54506C22.5599 8.55109 22.5434 8.55129 22.5286 8.5456C22.5137 8.53991 22.5015 8.52877 22.4945 8.51441C22.448 8.40686 22.4018 8.29931 22.3558 8.19175C22.3529 8.18441 22.3516 8.17655 22.3518 8.16867C22.3521 8.16078 22.3539 8.15303 22.3572 8.14587C22.3605 8.13871 22.3652 8.13229 22.371 8.12701C22.3768 8.12173 22.3836 8.11768 22.3911 8.11512C22.4058 8.10902 22.4224 8.10883 22.4373 8.11461C22.4522 8.12038 22.4643 8.13168 22.4712 8.14618C22.5173 8.25387 22.5638 8.36195 22.6103 8.46883C22.6131 8.47628 22.6144 8.48423 22.614 8.49219C22.6137 8.50015 22.6117 8.50795 22.6082 8.5151C22.6047 8.52225 22.5997 8.5286 22.5937 8.53375C22.5877 8.53891 22.5806 8.54276 22.573 8.54506H22.5746ZM16.7797 10.0777C16.7641 10.0829 16.747 10.0819 16.7321 10.0749C16.7171 10.0678 16.7055 10.0552 16.6995 10.0397L16.5889 9.7054C16.5866 9.69793 16.5858 9.69007 16.5866 9.68229C16.5873 9.67451 16.5897 9.66696 16.5934 9.66011C16.5971 9.65325 16.6022 9.64723 16.6083 9.6424C16.6145 9.63757 16.6215 9.63403 16.629 9.632C16.6446 9.62652 16.6618 9.62742 16.6768 9.6345C16.6917 9.64159 16.7034 9.6543 16.7092 9.66991C16.7464 9.78122 16.7833 9.89294 16.8206 10.0043C16.8229 10.0119 16.8235 10.02 16.8226 10.028C16.8216 10.0359 16.819 10.0436 16.8149 10.0505C16.8108 10.0574 16.8054 10.0634 16.7989 10.068C16.7925 10.0727 16.7851 10.076 16.7773 10.0777H16.7797ZM22.2981 7.89733C22.2833 7.90365 22.2667 7.90394 22.2517 7.89814C22.2368 7.89234 22.2246 7.88092 22.2179 7.86628C22.1722 7.75873 22.1266 7.65118 22.0812 7.54363C22.0783 7.53633 22.077 7.52853 22.0771 7.52068C22.0773 7.51283 22.0791 7.5051 22.0823 7.49795C22.0855 7.4908 22.0901 7.48438 22.0959 7.47906C22.1016 7.47374 22.1083 7.46964 22.1157 7.467C22.1305 7.46092 22.1471 7.46079 22.162 7.46665C22.1769 7.4725 22.189 7.48388 22.1959 7.49846C22.2412 7.60654 22.2872 7.71463 22.3329 7.82111C22.3358 7.8285 22.3371 7.83641 22.3367 7.84432C22.3364 7.85224 22.3345 7.86001 22.3311 7.86715C22.3277 7.87429 22.3228 7.88065 22.3169 7.88584C22.3109 7.89104 22.304 7.89495 22.2965 7.89733H22.2981ZM16.5576 9.40856C16.542 9.41415 16.5248 9.4133 16.5098 9.4062C16.4948 9.3991 16.4832 9.38632 16.4775 9.37065C16.4409 9.25906 16.4045 9.14734 16.3684 9.03549C16.3662 9.02805 16.3654 9.02023 16.3662 9.01249C16.367 9.00476 16.3694 8.99726 16.3731 8.99045C16.3769 8.98364 16.3819 8.97766 16.388 8.97286C16.3941 8.96805 16.4011 8.96453 16.4085 8.96249C16.4238 8.95754 16.4404 8.95872 16.4548 8.96579C16.4692 8.97286 16.4803 8.98526 16.4859 9.0004C16.5224 9.11212 16.5592 9.22384 16.5957 9.33515C16.598 9.34259 16.5989 9.35043 16.5981 9.35819C16.5974 9.36595 16.5951 9.37348 16.5914 9.38033C16.5877 9.38718 16.5826 9.39321 16.5765 9.39806C16.5705 9.40291 16.5635 9.40648 16.556 9.40856H16.5576ZM22.0231 7.24921C22.0083 7.2556 21.9916 7.25588 21.9766 7.25C21.9616 7.24411 21.9495 7.23253 21.9429 7.21775C21.8976 7.10966 21.8527 7.00117 21.8078 6.89308C21.805 6.8858 21.8037 6.87804 21.8039 6.87024C21.8041 6.86244 21.8059 6.85476 21.8091 6.84765C21.8123 6.84055 21.8169 6.83416 21.8226 6.82887C21.8283 6.82358 21.835 6.8195 21.8423 6.81685C21.8571 6.81046 21.8738 6.81017 21.8888 6.81606C21.9038 6.82195 21.9159 6.83353 21.9225 6.84831C21.9674 6.9564 22.0127 7.06489 22.058 7.17096C22.0612 7.17837 22.0628 7.18635 22.0627 7.19442C22.0627 7.20249 22.061 7.21046 22.0577 7.21782C22.0544 7.22518 22.0496 7.23177 22.0437 7.23718C22.0377 7.24258 22.0307 7.24668 22.0231 7.24921ZM16.3364 8.73865C16.3208 8.74359 16.3039 8.74212 16.2894 8.73456C16.2749 8.727 16.264 8.71397 16.259 8.69832C16.2229 8.58674 16.187 8.47502 16.1512 8.36316C16.149 8.35572 16.1483 8.34792 16.1491 8.3402C16.1499 8.33248 16.1523 8.32501 16.156 8.31821C16.1597 8.31142 16.1648 8.30544 16.1708 8.30062C16.1769 8.29581 16.1838 8.29225 16.1913 8.29016C16.2065 8.28525 16.2231 8.2865 16.2375 8.29365C16.2518 8.3008 16.2629 8.31329 16.2682 8.32848L16.3765 8.66363C16.379 8.6712 16.3799 8.67921 16.3792 8.68715C16.3786 8.6951 16.3763 8.70283 16.3725 8.70986C16.3688 8.71688 16.3636 8.72306 16.3574 8.72801C16.3512 8.73297 16.344 8.73659 16.3364 8.73865ZM21.7517 6.59906C21.7444 6.60232 21.7365 6.60409 21.7285 6.60425C21.7204 6.60441 21.7125 6.60297 21.705 6.6C21.6976 6.59704 21.6908 6.59261 21.685 6.58698C21.6793 6.58135 21.6747 6.57462 21.6716 6.5672L21.5381 6.24213C21.5353 6.23487 21.534 6.22714 21.5342 6.21937C21.5344 6.21161 21.5362 6.20396 21.5393 6.19688C21.5425 6.18979 21.547 6.18341 21.5527 6.17809C21.5583 6.17277 21.5649 6.16863 21.5721 6.1659C21.5795 6.16271 21.5874 6.16101 21.5955 6.1609C21.6035 6.16079 21.6114 6.16228 21.6189 6.16528C21.6263 6.16828 21.6331 6.17272 21.6389 6.17837C21.6446 6.18401 21.6492 6.19074 21.6523 6.19817C21.6967 6.30572 21.7413 6.41407 21.7862 6.52324C21.789 6.53038 21.7904 6.53802 21.7903 6.54572C21.7902 6.55342 21.7886 6.56101 21.7855 6.56807C21.7825 6.57512 21.778 6.5815 21.7725 6.58682C21.767 6.59214 21.7605 6.5963 21.7533 6.59906H21.7517ZM16.1211 8.06834C16.1056 8.07293 16.089 8.07129 16.0747 8.06376C16.0604 8.05624 16.0496 8.04341 16.0446 8.02801C16.0093 7.91642 15.9741 7.80457 15.9391 7.69245C15.9369 7.68504 15.9361 7.67724 15.9369 7.66953C15.9378 7.66182 15.9401 7.65436 15.9438 7.64758C15.9476 7.6408 15.9526 7.63486 15.9587 7.63009C15.9648 7.62533 15.9718 7.62185 15.9792 7.61985C15.9946 7.61517 16.0113 7.61677 16.0255 7.62432C16.0398 7.63187 16.0505 7.64475 16.0554 7.66018C16.0907 7.77231 16.1261 7.88416 16.1616 7.99574C16.166 8.01056 16.1643 8.02651 16.157 8.04011C16.1498 8.05371 16.1374 8.06386 16.1227 8.06834H16.1211ZM21.4852 5.94851C21.4706 5.95457 21.4543 5.95462 21.4398 5.94865C21.4252 5.94269 21.4136 5.93119 21.4074 5.91665C21.3633 5.80816 21.3196 5.69926 21.2759 5.59077C21.2732 5.58357 21.2718 5.57589 21.272 5.56817C21.2722 5.56046 21.2739 5.55285 21.2771 5.5458C21.2802 5.53875 21.2847 5.5324 21.2903 5.5271C21.2958 5.52181 21.3024 5.51768 21.3096 5.51495C21.3241 5.50904 21.3404 5.50912 21.3548 5.51515C21.3693 5.52119 21.3808 5.5327 21.387 5.54721L21.5192 5.87269C21.5221 5.87981 21.5235 5.88743 21.5234 5.89511C21.5233 5.90278 21.5217 5.91037 21.5187 5.91742C21.5157 5.92447 21.5113 5.93085 21.5058 5.93619C21.5004 5.94152 21.4939 5.94571 21.4868 5.94851H21.4852ZM15.9115 7.39722C15.8961 7.40179 15.8796 7.40012 15.8654 7.39258C15.8513 7.38505 15.8406 7.37224 15.8357 7.35689C15.801 7.24477 15.7662 7.13278 15.7315 7.02093C15.7294 7.01349 15.7287 7.00569 15.7296 6.99799C15.7304 6.99029 15.7328 6.98284 15.7365 6.97606C15.7402 6.96928 15.7452 6.9633 15.7513 6.95847C15.7573 6.95365 15.7642 6.95006 15.7716 6.94793C15.7868 6.94328 15.8033 6.94492 15.8174 6.95248C15.8314 6.96005 15.8419 6.97291 15.8465 6.98826L15.9512 7.32382C15.9535 7.33126 15.9543 7.33909 15.9535 7.34685C15.9528 7.35462 15.9505 7.36215 15.9468 7.369C15.9431 7.37585 15.9381 7.38188 15.932 7.38673C15.9259 7.39158 15.9189 7.39515 15.9115 7.39722ZM21.2238 5.29716C21.2093 5.30306 21.193 5.30299 21.1786 5.29695C21.1641 5.29092 21.1526 5.2794 21.1465 5.26489L21.0166 4.93861C21.0111 4.92406 21.0116 4.90792 21.0179 4.89371C21.0242 4.8795 21.0358 4.86838 21.0503 4.86279C21.0648 4.85703 21.081 4.85723 21.0954 4.86333C21.1097 4.86944 21.1212 4.88097 21.1272 4.89546C21.1705 5.00395 21.2138 5.11284 21.2575 5.22134C21.2603 5.22854 21.2616 5.23622 21.2614 5.24393C21.2612 5.25165 21.2595 5.25926 21.2564 5.2663C21.2532 5.27335 21.2487 5.27971 21.2432 5.285C21.2376 5.2903 21.231 5.29443 21.2238 5.29716ZM15.705 6.7249H15.701C15.6857 6.72845 15.6696 6.72585 15.6561 6.71764C15.6426 6.70943 15.6329 6.69627 15.6289 6.68093C15.6005 6.55654 15.6048 6.42686 15.6413 6.30464C15.646 6.28957 15.6563 6.27692 15.67 6.26938C15.6838 6.26185 15.7 6.26003 15.7151 6.26431C15.7225 6.26626 15.7294 6.26969 15.7354 6.27438C15.7415 6.27908 15.7465 6.28495 15.7502 6.29165C15.754 6.29835 15.7563 6.30574 15.7572 6.31337C15.758 6.32101 15.7573 6.32874 15.7552 6.3361C15.7247 6.43956 15.7214 6.54918 15.7455 6.65432C15.7493 6.66907 15.7472 6.68474 15.7397 6.69795C15.7321 6.71115 15.7197 6.72083 15.705 6.7249ZM20.8999 4.6821C20.8897 4.68605 20.8786 4.68712 20.8678 4.6852C20.857 4.68328 20.8469 4.67845 20.8386 4.67121C20.7578 4.59868 20.6605 4.54729 20.5552 4.52158C20.5478 4.51979 20.5408 4.51653 20.5347 4.51201C20.5285 4.50748 20.5233 4.50177 20.5193 4.49521C20.5154 4.48864 20.5128 4.48136 20.5116 4.47377C20.5105 4.46618 20.5109 4.45844 20.5127 4.451C20.5165 4.43587 20.5261 4.42287 20.5394 4.41486C20.5527 4.40684 20.5686 4.40447 20.5837 4.40825C20.7077 4.43863 20.8225 4.49914 20.918 4.5845C20.929 4.59474 20.9356 4.60893 20.9364 4.62401C20.9371 4.63909 20.9319 4.65387 20.922 4.66516C20.916 4.6724 20.9085 4.67819 20.8999 4.6821ZM15.8954 6.07717C15.8853 6.08023 15.8744 6.08054 15.8641 6.07806C15.8538 6.07558 15.8442 6.07041 15.8365 6.06305C15.8259 6.05233 15.82 6.03783 15.82 6.02272C15.82 6.00761 15.8259 5.99312 15.8365 5.98239C15.9284 5.89094 16.0411 5.82351 16.1648 5.78598C16.1796 5.78125 16.1957 5.78257 16.2096 5.78967C16.2235 5.79676 16.234 5.80905 16.239 5.82389C16.2412 5.83133 16.242 5.83915 16.2412 5.84689C16.2404 5.85462 16.238 5.86212 16.2343 5.86893C16.2305 5.87573 16.2255 5.88172 16.2194 5.88652C16.2133 5.89133 16.2063 5.89485 16.1989 5.89689C16.0942 5.92893 15.9989 5.9861 15.9211 6.06346C15.9137 6.06999 15.9049 6.07469 15.8954 6.07717ZM20.241 4.52158H20.2349C20.2117 4.52763 20.1884 4.53489 20.1656 4.54336L19.9087 4.64016C19.8941 4.64567 19.8779 4.64516 19.8638 4.63873C19.8496 4.63231 19.8385 4.6205 19.8329 4.60588C19.8276 4.59133 19.8282 4.57526 19.8347 4.56119C19.8412 4.54713 19.8529 4.53622 19.8674 4.53086L20.1243 4.43447C20.1506 4.42451 20.1773 4.41589 20.2045 4.40865C20.2191 4.40395 20.235 4.40528 20.2486 4.41235C20.2623 4.41942 20.2726 4.43166 20.2772 4.44636C20.2819 4.46107 20.2806 4.47705 20.2736 4.49078C20.2665 4.5045 20.2544 4.51486 20.2398 4.51957L20.241 4.52158ZM19.5764 4.76357C19.4655 4.80417 19.3543 4.8445 19.2429 4.88457C19.2283 4.88993 19.2122 4.8893 19.1981 4.8828C19.184 4.87631 19.173 4.86448 19.1675 4.84988C19.165 4.84263 19.1639 4.83494 19.1643 4.82726C19.1647 4.81958 19.1666 4.81206 19.17 4.80513C19.1733 4.7982 19.1779 4.79199 19.1836 4.78687C19.1893 4.78175 19.196 4.7778 19.2032 4.77527C19.3141 4.73547 19.425 4.69514 19.5359 4.65427C19.5504 4.64889 19.5664 4.64946 19.5805 4.65588C19.5946 4.66229 19.6057 4.67403 19.6112 4.68856C19.614 4.69588 19.6153 4.70369 19.6151 4.71154C19.6148 4.71938 19.613 4.72708 19.6097 4.73419C19.6064 4.74131 19.6017 4.74768 19.5959 4.75293C19.5901 4.75819 19.5833 4.76222 19.576 4.76478L19.5764 4.76357ZM18.9086 5.00556L18.5735 5.12333C18.5588 5.12851 18.5427 5.12764 18.5286 5.12092C18.5146 5.11419 18.5038 5.10216 18.4985 5.08743C18.496 5.08018 18.4949 5.0725 18.4954 5.06483C18.4958 5.05716 18.4978 5.04965 18.5011 5.04275C18.5045 5.03585 18.5092 5.02968 18.5149 5.02462C18.5207 5.01955 18.5273 5.01568 18.5346 5.01322C18.6463 4.97451 18.7578 4.93538 18.8693 4.89586C18.8839 4.89052 18.9 4.89121 18.9141 4.89778C18.9283 4.90435 18.9392 4.91627 18.9446 4.93095C18.9471 4.93823 18.9482 4.94594 18.9477 4.95363C18.9472 4.96132 18.9452 4.96883 18.9418 4.97574C18.9385 4.98265 18.9337 4.9888 18.9279 4.99386C18.9222 4.99891 18.9154 5.00275 18.9082 5.00516L18.9086 5.00556ZM18.2372 5.23908C18.1249 5.27726 18.0126 5.31517 17.9 5.35282C17.8853 5.35798 17.8692 5.35705 17.8551 5.35025C17.8411 5.34345 17.8303 5.33132 17.8251 5.31652C17.8227 5.30921 17.8217 5.30149 17.8223 5.29381C17.8228 5.28612 17.8249 5.27863 17.8284 5.27176C17.8318 5.26489 17.8366 5.25878 17.8425 5.2538C17.8483 5.24881 17.8551 5.24504 17.8624 5.24271L18.1991 5.12898C18.2137 5.1238 18.2299 5.12466 18.2439 5.13139C18.2579 5.13811 18.2688 5.15015 18.274 5.16487C18.2764 5.17218 18.2773 5.17989 18.2767 5.18756C18.2762 5.19522 18.2741 5.2027 18.2706 5.20955C18.2671 5.21641 18.2624 5.22251 18.2566 5.22751C18.2508 5.23251 18.244 5.2363 18.2368 5.23868L18.2372 5.23908ZM17.5617 5.46534C17.4487 5.50245 17.3355 5.53915 17.2222 5.57545C17.2074 5.58033 17.1914 5.57918 17.1774 5.57224C17.1635 5.5653 17.1528 5.55313 17.1477 5.53834C17.1454 5.53087 17.1447 5.52303 17.1455 5.51526C17.1463 5.5075 17.1486 5.49998 17.1523 5.49314C17.1561 5.48629 17.1611 5.48027 17.1672 5.47543C17.1733 5.47059 17.1803 5.46702 17.1878 5.46494L17.5265 5.35443C17.5413 5.34953 17.5575 5.35067 17.5715 5.3576C17.5855 5.36454 17.5962 5.37672 17.6014 5.39153C17.6036 5.399 17.6043 5.40684 17.6035 5.41458C17.6027 5.42233 17.6003 5.42983 17.5966 5.43666C17.5929 5.44348 17.5878 5.4495 17.5818 5.45435C17.5757 5.45921 17.5688 5.46281 17.5613 5.46494L17.5617 5.46534ZM16.8803 5.68434C16.7665 5.72037 16.6526 5.75586 16.5388 5.79082C16.524 5.79554 16.5079 5.79422 16.494 5.78713C16.4801 5.78004 16.4696 5.76775 16.4646 5.7529C16.4623 5.74547 16.4615 5.73763 16.4623 5.72988C16.4631 5.72212 16.4654 5.7146 16.4692 5.70778C16.4729 5.70096 16.478 5.69497 16.4841 5.69018C16.4902 5.68539 16.4972 5.68189 16.5047 5.6799L16.8454 5.57303C16.8603 5.56829 16.8765 5.5696 16.8904 5.57669C16.9043 5.58377 16.915 5.59607 16.92 5.61094C16.9223 5.61825 16.9231 5.62594 16.9224 5.63357C16.9218 5.64121 16.9196 5.64863 16.9161 5.65542C16.9125 5.6622 16.9077 5.66822 16.9018 5.67311C16.896 5.67801 16.8892 5.68169 16.8819 5.68394L16.8803 5.68434Z" fill="#98EB27"/>
<path d="M9.45621 15.1762C9.44579 15.1786 9.43496 15.1786 9.42454 15.1762C9.41657 15.175 9.40894 15.1721 9.40214 15.1678C9.39534 15.1634 9.38952 15.1577 9.38506 15.1509C9.38061 15.1441 9.37761 15.1365 9.37626 15.1285C9.37491 15.1205 9.37525 15.1123 9.37724 15.1044C9.80919 13.7636 9.84732 12.3258 9.48707 10.9636C9.17763 9.78431 8.60122 8.68528 7.80354 7.67739C7.79884 7.67141 7.79539 7.66452 7.79342 7.65715C7.79145 7.64978 7.79099 7.64209 7.79208 7.63454C7.79317 7.62699 7.79578 7.61974 7.79975 7.61324C7.80372 7.60673 7.80897 7.60112 7.81517 7.59673C7.82816 7.58734 7.84422 7.58328 7.86008 7.58538C7.87594 7.58748 7.89041 7.59557 7.90055 7.60802C8.71025 8.62881 9.29587 9.74237 9.61133 10.9382C9.97934 12.3187 9.94343 13.7767 9.50792 15.1371C9.50352 15.1477 9.49641 15.1568 9.48732 15.1637C9.47824 15.1706 9.4675 15.1749 9.45621 15.1762Z" fill="#98EB27"/>
<path d="M13.4478 10.0775C9.93244 10.9289 6.35566 11.499 2.75093 11.7823C2.0695 11.8364 1.45942 11.3734 1.39489 10.7632C1.33035 10.1525 1.81858 9.62742 2.47716 9.5766C5.97779 9.30802 9.4517 8.76021 12.8661 7.93833C13.4858 7.7891 14.1188 8.13515 14.2911 8.72278C14.4619 9.31001 14.0915 9.92184 13.4478 10.0775Z" fill="#5BA900"/>
<path d="M5.79656 13.3029C4.53686 13.4554 3.26645 13.5742 1.98537 13.6594C1.85069 13.6683 1.72883 13.5788 1.714 13.4614C1.69877 13.3432 1.79417 13.2408 1.92965 13.2319C3.20352 13.148 4.46697 13.0304 5.72 12.879C5.85188 12.8633 5.97573 12.9448 5.99738 13.0617C6.01903 13.1779 5.92924 13.2868 5.79656 13.3029Z" fill="white"/>
<path d="M10.7774 13.2545C7.90474 13.8083 5.00091 14.1839 2.0824 14.3789C1.94651 14.3882 1.82346 14.2983 1.80782 14.1813C1.79219 14.0631 1.88799 13.9607 2.02467 13.9514C4.92738 13.7589 7.81555 13.3867 10.6728 12.8371C10.8027 12.8121 10.9314 12.8851 10.9606 12.9984C10.9899 13.1154 10.9081 13.2295 10.7774 13.2545Z" fill="white"/>
<defs>
<linearGradient id="paint0_linear_12737_267395" x1="-3.66262" y1="19.8411" x2="18.1332" y2="16.5148" gradientUnits="userSpaceOnUse">
<stop stop-color="#00ACD4"/>
<stop offset="1" stop-color="#008AA6"/>
</linearGradient>
<linearGradient id="paint1_linear_12737_267395" x1="0.0767332" y1="13.0522" x2="23.2535" y2="7.61136" gradientUnits="userSpaceOnUse">
<stop stop-color="#5BA900"/>
<stop offset="1" stop-color="#5DD300"/>
</linearGradient>
<clipPath id="clip0_12737_267395">
<rect x="1.33984" y="0.112427" width="20.7751" height="20.7751" rx="4.61669" fill="white"/>
</clipPath>
<clipPath id="clip1_12737_267395">
<rect width="28.0079" height="20.0057" fill="white" transform="translate(-3.62305 3.57495)"/>
</clipPath>
</defs>
</svg>
