<svg width="18" height="21" viewBox="0 0 18 21" fill="none" xmlns="http://www.w3.org/2000/svg">
  <path fill-rule="evenodd" clip-rule="evenodd" d="M17.2871 3.74297C17.6761 3.74297 18 4.06596 18 4.47696V4.85696C18 5.25795 17.6761 5.59095 17.2871 5.59095H0.713853C0.32386 5.59095 0 5.25795 0 4.85696V4.47696C0 4.06596 0.32386 3.74297 0.713853 3.74297H3.62957C4.22185 3.74297 4.7373 3.32197 4.87054 2.72798L5.02323 2.04598C5.26054 1.11699 6.0415 0.5 6.93527 0.5H11.0647C11.9488 0.5 12.7385 1.11699 12.967 1.99699L13.1304 2.72698C13.2627 3.32197 13.7781 3.74297 14.3714 3.74297H17.2871ZM15.8058 17.634C16.1102 14.7971 16.6432 8.05712 16.6432 7.98913C16.6626 7.78313 16.5955 7.58813 16.4623 7.43113C16.3193 7.28413 16.1384 7.19713 15.9391 7.19713H2.06852C1.86818 7.19713 1.67756 7.28413 1.54529 7.43113C1.41108 7.58813 1.34494 7.78313 1.35467 7.98913C1.35646 8.00162 1.37558 8.23903 1.40755 8.63594C1.54958 10.3992 1.94517 15.3102 2.20079 17.634C2.38168 19.346 3.50498 20.422 5.13206 20.461C6.38763 20.49 7.68112 20.5 9.00379 20.5C10.2496 20.5 11.5149 20.49 12.8094 20.461C14.4929 20.432 15.6152 19.375 15.8058 17.634Z" fill="white"/>
</svg>
